<?xml version="1.0" encoding="utf-8"?>
<!-- Generator: Adobe Illustrator 27.5.0, SVG Export Plug-In . SVG Version: 6.00 Build 0)  -->
<svg version="1.1" xmlns="http://www.w3.org/2000/svg" xmlns:xlink="http://www.w3.org/1999/xlink" x="0px" y="0px"
	 viewBox="0 0 500 500" style="enable-background:new 0 0 500 500;" xml:space="preserve">
<g id="BACKGROUND">
	<rect style="fill:#FFFFFF;" width="500" height="500"/>
</g>
<g id="OBJECTS">
	<rect style="fill:#FDE1E1;" width="500" height="500"/>
	<path style="fill:#F15268;" d="M117,385"/>
	<g>
		<g>
			<path style="fill:#FECBCB;" d="M78.668,410.798c0,0-59.218,21.603-31.183-52.583c28.035-74.186-59.729-155.754,3.816-197.951
				c63.545-42.196,119.746,56.418,181.555,9.472c61.809-46.946,96.855-150.683,163.124-69.653
				c66.269,81.03,97.316,158.63,42.311,209.949c-55.006,51.319,50.118,68.074-55.044,112.933
				c-105.163,44.859-195.97-1.327-234.278,0C110.66,424.293,78.668,410.798,78.668,410.798z"/>
			<g>
				<g>
					<path style="fill:#834A94;" d="M377.378,414.826c0,0,24.39,5.046,40.369-18.503c15.98-23.549,38.687-13.456,46.256-42.051
						c7.569-28.595-2.523-74.851-15.138-60.554c-12.615,14.297-10.092,38.687-26.913,50.462
						C405.132,355.954,355.512,398.005,377.378,414.826z"/>
					<g>
						<path style="fill:#D6B6BA;" d="M377.623,408.759c0.925-0.908,1.871-1.998,2.8-3.034l2.804-3.157
							c1.878-2.103,3.778-4.191,5.714-6.246c3.874-4.109,7.881-8.101,12.112-11.856c4.222-3.761,8.674-7.287,13.44-10.365
							c4.753-3.063,9.955-5.615,15.444-7.038c2.625-0.75,5.018-2.222,7.057-4.078c2.058-1.85,3.744-4.098,5.223-6.455
							c2.959-4.739,5.007-10.014,6.681-15.362c1.644-5.369,2.874-10.865,3.827-16.406c0.95-5.542,1.648-11.133,2.027-16.747
							c-0.296,5.62-0.911,11.224-1.78,16.788c-0.872,5.563-2.023,11.09-3.595,16.509c-1.604,5.4-3.583,10.743-6.522,15.611
							c-1.47,2.422-3.16,4.751-5.267,6.704c-2.086,1.956-4.583,3.553-7.366,4.394c-5.405,1.49-10.392,4.035-15.047,7.127
							c-4.646,3.099-8.993,6.646-13.117,10.431c-4.133,3.778-8.049,7.796-11.835,11.932c-1.893,2.069-3.75,4.171-5.589,6.294
							l-2.754,3.195c-0.934,1.071-1.813,2.128-2.88,3.208c-0.388,0.393-1.021,0.396-1.414,0.008
							c-0.393-0.388-0.396-1.021-0.008-1.414c0.002-0.002,0.005-0.005,0.007-0.007L377.623,408.759z"/>
					</g>
				</g>
				<g>
					<g>
						<path style="fill:#FFF1E3;" d="M115.649,408.662c0,0-26.974,5.581-44.646-20.463s-42.786-14.882-51.157-46.506
							c-8.371-31.624,2.79-82.781,16.742-66.969c13.952,15.812,11.161,42.786,29.764,55.808
							C84.954,343.553,139.832,390.059,115.649,408.662z"/>
						<g>
							<path style="fill:#D6B6BA;" d="M113.927,403.479c-1.173-1.185-2.148-2.356-3.181-3.539l-3.049-3.532
								c-2.036-2.346-4.092-4.67-6.188-6.958c-4.191-4.573-8.527-9.015-13.103-13.193c-4.566-4.185-9.379-8.107-14.524-11.533
								c-5.154-3.417-10.68-6.233-16.662-7.877c-3.069-0.925-5.825-2.684-8.13-4.842c-2.327-2.154-4.197-4.726-5.823-7.401
								c-3.251-5.377-5.443-11.283-7.221-17.252c-1.742-5.991-3.019-12.102-3.988-18.253c-0.965-6.152-1.65-12.349-1.982-18.564
								c0.415,6.21,1.182,12.393,2.229,18.524c1.05,6.129,2.406,12.209,4.22,18.15c1.848,5.917,4.11,11.755,7.381,17.002
								c1.634,2.61,3.5,5.101,5.778,7.152c2.258,2.057,4.91,3.692,7.821,4.527c6.066,1.577,11.807,4.399,17.059,7.788
								c5.265,3.405,10.183,7.306,14.846,11.467c4.674,4.154,9.102,8.571,13.381,13.116c2.139,2.273,4.239,4.583,6.313,6.91
								l3.099,3.494c1.027,1.148,2.07,2.352,3.101,3.365l0.034,0.033c0.394,0.387,0.399,1.02,0.012,1.414
								c-0.387,0.394-1.02,0.399-1.414,0.012C113.935,403.487,113.929,403.481,113.927,403.479z"/>
						</g>
					</g>
					<g>
						<g>
							<path style="fill:#834A94;" d="M120.513,412.068c0,0-4.409-47.364-10.847-34.357c-6.438,13.007-23.2-39.5-21.827-20.683
								c1.374,18.817-34.925-49.838-37.778-32.951c-2.853,16.887,17.617,46.901,17.617,46.901s-20.385-8.919-16.453,0.477
								c3.932,9.396,41.665,30.988,33.231,31.996c-8.434,1.007-5.156,9.108,13.694,15.847
								C116.999,426.037,120.513,412.068,120.513,412.068z"/>
							<g>
								<path style="fill:#FCDCE1;" d="M115.853,417.747c-6.098-6.418-11.839-13.123-17.385-19.995
									c-5.533-6.881-10.809-13.965-15.835-21.22c-5.061-7.232-9.738-14.728-14.142-22.371l-3.232-5.775
									c-1.041-1.944-2.018-3.923-3.03-5.882l-1.505-2.946c-0.479-0.993-0.924-2.002-1.388-3.003l-2.756-6.014l2.813,5.987
									c0.473,0.996,0.928,2,1.416,2.988l1.533,2.93c1.03,1.949,2.025,3.917,3.083,5.85l3.284,5.739
									c4.473,7.595,9.214,15.036,14.336,22.21c5.087,7.196,10.421,14.218,16.008,21.033c5.595,6.802,11.402,13.452,17.515,19.766
									L115.853,417.747z"/>
							</g>
							<g>
								
									<polyline style="fill:none;stroke:#FCDCE1;stroke-width:0.5;stroke-linecap:round;stroke-linejoin:round;stroke-miterlimit:10;" points="
									108.422,391.346 111.013,411.832 87.295,409.158 								"/>
								
									<polyline style="fill:none;stroke:#FCDCE1;stroke-width:0.5;stroke-linecap:round;stroke-linejoin:round;stroke-miterlimit:10;" points="
									94.574,377.609 96.338,394.041 76.456,391.636 								"/>
								
									<polyline style="fill:none;stroke:#FCDCE1;stroke-width:0.5;stroke-linecap:round;stroke-linejoin:round;stroke-miterlimit:10;" points="
									81.201,360.787 82.561,376.359 66.001,374.153 								"/>
								
									<polyline style="fill:none;stroke:#FCDCE1;stroke-width:0.5;stroke-linecap:round;stroke-linejoin:round;stroke-miterlimit:10;" points="
									71.521,346.689 72.314,360.397 59.95,354.594 								"/>
								
									<polyline style="fill:none;stroke:#FCDCE1;stroke-width:0.5;stroke-linecap:round;stroke-linejoin:round;stroke-miterlimit:10;" points="
									64.242,333.531 65.036,347.239 52.672,341.436 								"/>
							</g>
						</g>
					</g>
				</g>
			</g>
			<g>
				<g>
					<polygon style="fill:#FFF1E3;" points="191.642,169.946 201.18,185.742 221.324,189.488 222.497,192.556 195.21,194.666 
						184.483,175.317 					"/>
					<path style="fill:#00877E;" d="M175.372,284.693c0,0-1.103,3.165-0.939,4.271c0,0,10.927,1.759,15.053,1.402
						c0,0,2.817-1.4-9.76-5.166l-1.537-3.461L175.372,284.693z"/>
					<path style="fill:#00877E;" d="M191.184,260.51c0,0-1.103,3.165-0.939,4.271c0,0,10.927,1.759,15.053,1.403
						c0,0,2.817-1.4-9.76-5.166L194,257.557L191.184,260.51z"/>
					<path style="fill:#4AAD77;" d="M183.992,198.88c0,0,4.931,3.941-4.266,86.321l-6.849,2.723c0,0-0.766-37.298-1.892-93.52
						C170.984,194.404,183.895,200.975,183.992,198.88z"/>
					<path style="fill:#73C497;" d="M176.547,200.728c0,0,9.375,11.167,19.413,22.673c2.957,3.389-1.137,40.175-1.137,40.175
						l-5.347,0.169c0,0-1.061-25.347-3.708-30.785c-6.712-13.789-40.973-16.898-21.51-41.178
						C164.258,191.781,172.475,201.051,176.547,200.728z"/>
					<path style="fill:#862E7A;" d="M186.104,180.289c0,0,5.458-6.74,7.561-9.275c0,0-7.245-11.782-12.019-13.451
						C181.645,157.563,175.649,168.215,186.104,180.289z"/>
					<path style="fill:#862E7A;" d="M187.428,210.737c-0.321,4.102-29.933-7.897-28.947-9.99
						c9.791-20.805,13.547-33.801,15.127-38.282c4.904-13.906,8.425-9.242,12.553-5.143c0,0,4.086,2.121,4.398,4.712
						C192.234,175.959,187.428,210.737,187.428,210.737z"/>
					<path style="fill:#FFEAD3;" d="M179.51,134.479c0,0,1.888,9.057-1.043,19.261c-0.043,0.148,10.32,9.984,11.944,8.763
						c0.918-0.69-5.038-9.766,1.069-15.072c0.816-0.709,1.359-1.68,2.118-2.449c0.427-0.433,0.868-0.852,1.315-1.263
						c0.144-0.132,1.301-1.324,1.413-1.271L179.51,134.479z"/>
					<path style="fill:#FFF1E3;" d="M202.284,135.307c-0.806,7.462-1.845,19.085-8.578,18.202
						c-9.861-1.292-15.686-12.664-15.276-19.445c0.412-6.779,6.244-11.944,13.022-11.531
						C198.232,122.944,203.015,128.555,202.284,135.307z"/>
					<g>
						<path style="fill:#EEC92A;" d="M193.701,191.497c-0.926,9.933-9.729,17.234-19.661,16.309
							c-9.934-0.926-17.236-9.729-16.31-19.662c0.926-9.934,9.729-17.235,19.663-16.309
							C187.325,172.761,194.627,181.563,193.701,191.497z"/>
						<path style="fill:#F5B200;" d="M190.523,191.2c-0.763,8.179-8.009,14.19-16.187,13.428c-8.178-0.763-14.19-8.01-13.428-16.188
							c0.762-8.179,8.011-14.19,16.189-13.427C185.275,175.775,191.285,183.022,190.523,191.2z"/>
						<g>
							<g>
								<g>
									<path style="fill:#FFE252;" d="M173.924,197.596l0.59-6.329c-1.921-0.748-3.288-1.736-4.103-2.965
										c-0.815-1.229-1.147-2.66-0.995-4.29c0.154-1.652,0.805-2.99,1.952-4.016c1.146-1.026,2.595-1.543,4.341-1.553l0.139-1.495
										l2.191,0.204l-0.139,1.495c1.584,0.341,2.806,1.006,3.669,1.995c0.863,0.99,1.354,2.252,1.476,3.787l-3.869,0.141
										c-0.121-1.209-0.65-2.071-1.587-2.586l-0.551,5.906c2.356,0.881,3.923,1.882,4.702,3.006
										c0.779,1.124,1.093,2.501,0.941,4.133c-0.169,1.823-0.863,3.307-2.084,4.453c-1.219,1.146-2.823,1.769-4.812,1.868
										l-0.264,2.824l-2.19-0.204l0.256-2.75c-1.723-0.373-3.077-1.154-4.063-2.344c-0.985-1.188-1.538-2.789-1.654-4.8
										l3.982-0.057c0.085,0.822,0.324,1.544,0.711,2.169C172.951,196.814,173.406,197.283,173.924,197.596z M175.402,181.736
										c-0.613,0.146-1.119,0.446-1.516,0.894c-0.397,0.451-0.623,0.969-0.677,1.553c-0.05,0.534,0.064,1.044,0.343,1.532
										c0.28,0.489,0.733,0.904,1.362,1.246L175.402,181.736z M176.095,198.012c0.769-0.07,1.414-0.363,1.941-0.878
										c0.525-0.514,0.822-1.149,0.893-1.905c0.062-0.674-0.083-1.274-0.434-1.8c-0.352-0.525-0.969-0.96-1.851-1.307
										L176.095,198.012z"/>
								</g>
							</g>
						</g>
						<path style="opacity:0.4;fill:#FFBF14;" d="M183.605,173.569l-25.451,12.028c-0.197,0.827-0.342,1.675-0.423,2.546
							c-0.231,2.478,0.05,4.885,0.756,7.118l32.363-15.296C189.075,177.244,186.58,175.014,183.605,173.569z"/>
						<path style="opacity:0.4;fill:#FFBF14;" d="M168.261,206.272l24.898-11.768c0.261-0.971,0.446-1.973,0.543-3.007
							c0.157-1.685,0.072-3.335-0.217-4.921l-31.552,14.913C163.643,203.51,165.796,205.156,168.261,206.272z"/>
					</g>
					<path style="fill:#FFF1E3;" d="M179.703,166.521c0,0-1.083-0.514-8.989,14.574l16.706,16.777l-1.988,2.95
						c0,0-16.177-7.807-26.579-17.505c0,0,5.628-9.716,15.068-20.765L179.703,166.521z"/>
					<path style="fill:#862E7A;" d="M180.698,157.589c0,0-7.666-0.539-17.358,15.814l12.65,4.963
						C175.989,178.365,186.409,160.464,180.698,157.589z"/>
					<path style="fill:#FFF1E3;" d="M191.687,198.918c0,1.949-1.485,5.341-3.434,5.341c-1.949,0-4.889-5.806-4.889-7.666
						c0-1.86,0,0,1.949,0C187.261,196.593,191.687,196.969,191.687,198.918z"/>
					<path style="fill:#FFCB94;" d="M189.394,196.931c-1.611,0.791-4.722,1.091-4.911,0.708c-0.188-0.383,2.619-1.304,4.23-2.095
						c1.611-0.791,2.012-0.362,2.2,0.021C191.101,195.948,191.005,196.141,189.394,196.931z"/>
					<path style="fill:#F15268;" d="M190.497,122.576c2.834-0.1,5.674-0.143,8.477-0.587c1.049-0.166,1.884-0.436,2.802-0.931
						c0.29-0.157,0.437-0.594,0.802-0.585c0.446,0.01,0.992,0.806,1.265,1.084c0.634,0.646,1.058,1.888,1.062,2.789
						c0.019,4.426-2.68,6.459-4.15,6.679c-4.41,0.656-10.661,1.291-13.855,4.994c-2.027,2.351-6.143,10.045-6.967,9.658
						c-3.158-1.483-3.543-6.894-3.765-9.885c-0.224-3.022-0.193-6.425,1.51-9.025c1.296-1.979,3.225-3.064,5.512-3.506
						C185.604,122.792,188.048,122.663,190.497,122.576z"/>
					<path style="fill:#FFF1E3;" d="M190.162,134.682c0.245,1.729-0.62,5.723-2.349,5.968c-3.131,0.443-3.667-3.353-3.912-5.083
						c-0.245-1.729,0.959-3.328,2.687-3.573C188.318,131.749,189.918,132.953,190.162,134.682z"/>
				</g>
				<g>
					<g>
						<g>
							<path style="fill:#166645;" d="M160.056,275.99c-11.576,33.791-35.491,47.355-35.491,47.355S87.49,288.686,36.229,257.14
								c1.152-19.879,35.491-47.356,35.491-47.356S124.118,234.122,160.056,275.99z"/>
						</g>
						<g>
							<g>
								<path style="fill:#1E9567;" d="M143.282,266.406c-20.415-20.251-43.915-35.112-57.366-42.797
									c-3.854,4.335-10.448,5.071-15.172,1.53c-0.834-0.625-1.547-1.349-2.154-2.136c-6.083,5.432-14.978,14.3-19.336,23.103
									c1.51,0.338,2.978,0.984,4.297,1.973c4.391,3.29,5.693,9.167,3.384,13.927c25.642,16.884,46.319,33.603,57.433,43.037
									c3.919-3.547,9.923-3.944,14.313-0.654c1.023,0.765,1.868,1.678,2.55,2.677c5.492-4.836,12.705-12.93,17.841-25.119
									c-0.876-0.356-1.724-0.818-2.515-1.411C142.104,277.197,140.836,271.201,143.282,266.406z"/>
							</g>
						</g>
						<g>
							<path style="fill:#166645;" d="M112.179,249.565c6.656,5.398,7.829,15.4,2.669,22.767
								c-5.426,7.749-15.854,9.841-23.243,4.667c-7.431-5.194-8.941-15.753-3.559-23.438c2.623-3.745,6.479-6.295,10.856-7.182
								c4.399-0.892,8.799,0.002,12.387,2.516C111.596,249.109,111.893,249.332,112.179,249.565z M92.17,274.533
								c0.244,0.2,0.498,0.39,0.76,0.574c6.347,4.444,15.331,2.604,20.028-4.1c4.659-6.652,3.384-15.747-2.993-20.223
								c-3.064-2.146-6.83-2.908-10.604-2.144c-3.793,0.769-7.14,2.988-9.422,6.244C85.47,261.265,86.449,269.894,92.17,274.533z"/>
						</g>
						<g>
							<g>
								<path style="fill:#166645;" d="M105.799,258.779l-2.955,3.643c0.873,1.246,1.308,2.414,1.304,3.501
									c-0.003,1.088-0.384,2.103-1.147,3.042c-0.77,0.952-1.718,1.505-2.842,1.665c-1.124,0.16-2.226-0.115-3.302-0.825
									l-0.698,0.861l-1.261-1.023l0.697-0.861c-0.832-0.857-1.31-1.767-1.434-2.728c-0.125-0.959,0.091-1.937,0.645-2.929
									l2.432,1.498c-0.421,0.792-0.448,1.538-0.083,2.238l2.757-3.401c-1.084-1.504-1.636-2.762-1.655-3.771
									c-0.018-1.008,0.354-1.984,1.116-2.922c0.852-1.05,1.886-1.675,3.103-1.881c1.218-0.202,2.458,0.072,3.719,0.826l1.32-1.624
									l1.261,1.021l-1.283,1.582c0.903,0.936,1.415,1.972,1.533,3.105c0.118,1.133-0.198,2.341-0.95,3.626l-2.468-1.598
									c0.284-0.539,0.436-1.081,0.452-1.623C106.077,259.656,105.99,259.183,105.799,258.779z M98.394,267.909
									c0.437,0.162,0.868,0.185,1.297,0.07c0.429-0.112,0.779-0.337,1.052-0.674c0.249-0.308,0.388-0.668,0.417-1.082
									c0.029-0.414-0.08-0.855-0.326-1.324L98.394,267.909z M104.637,257.633c-0.501-0.27-1.018-0.355-1.552-0.256
									c-0.532,0.102-0.976,0.37-1.328,0.804c-0.316,0.388-0.472,0.816-0.472,1.283c0.001,0.467,0.201,0.988,0.599,1.561
									L104.637,257.633z"/>
							</g>
						</g>
					</g>
					<g>
						<g>
							<path style="fill:#209461;" d="M158.034,295.629c-30.569,18.477-57.613,13.521-57.613,13.521s-6.173-50.375-25.223-107.472
								c13.645-14.502,57.613-13.521,57.613-13.521S157.36,240.456,158.034,295.629z"/>
						</g>
						<g>
							<g>
								<path style="fill:#25B87F;" d="M151.327,277.511c-2.651-28.632-11.127-55.113-16.506-69.641
									c-5.738,0.849-11.266-2.82-12.615-8.568c-0.238-1.015-0.32-2.027-0.281-3.02c-8.151,0.259-20.664,1.347-29.657,5.299
									c0.941,1.229,1.651,2.666,2.028,4.271c1.254,5.342-1.521,10.683-6.347,12.85c8.82,29.407,13.939,55.502,16.404,69.87
									c5.283-0.204,10.141,3.346,11.395,8.687c0.292,1.244,0.354,2.487,0.236,3.69c7.315-0.182,18.042-1.758,29.805-7.805
									c-0.443-0.835-0.797-1.735-1.022-2.696C143.496,285.028,146.373,279.617,151.327,277.511z"/>
							</g>
						</g>
						<g>
							<path style="fill:#209461;" d="M138.293,244.632c1.637,8.411-3.885,16.833-12.571,19.167
								c-9.135,2.458-18.473-2.633-20.816-11.344c-2.363-8.754,3.258-17.818,12.318-20.255c4.415-1.186,9.009-0.667,12.935,1.463
								c3.945,2.141,6.745,5.65,7.882,9.881C138.139,243.906,138.222,244.268,138.293,244.632z M106.922,250.929
								c0.059,0.309,0.132,0.618,0.213,0.927c2.015,7.482,10.083,11.839,17.988,9.714c7.843-2.109,12.704-9.899,10.688-17.426
								c-0.971-3.612-3.37-6.615-6.753-8.452c-3.403-1.845-7.393-2.293-11.233-1.261
								C110.303,236.454,105.514,243.698,106.922,250.929z"/>
						</g>
						<g>
							<g>
								<path style="fill:#209461;" d="M127.486,247.598l-4.605,0.896c-0.131,1.516-0.546,2.69-1.248,3.521
									c-0.701,0.833-1.645,1.367-2.832,1.597c-1.202,0.235-2.284,0.051-3.249-0.548c-0.964-0.599-1.632-1.517-2.002-2.754
									l-1.088,0.212l-0.31-1.593l1.088-0.213c-0.089-1.191,0.129-2.195,0.652-3.011c0.52-0.817,1.313-1.427,2.375-1.831
									l0.903,2.709c-0.831,0.337-1.331,0.892-1.501,1.663l4.297-0.839c0.134-1.849,0.518-3.167,1.152-3.954
									c0.634-0.784,1.545-1.293,2.732-1.523c1.326-0.258,2.521-0.074,3.586,0.55c1.064,0.625,1.839,1.634,2.321,3.021l2.055-0.399
									l0.311,1.593l-1.999,0.389c0.092,1.297-0.181,2.42-0.817,3.365c-0.637,0.945-1.656,1.668-3.057,2.17l-0.867-2.809
									c0.564-0.232,1.028-0.549,1.389-0.955C127.135,248.451,127.372,248.032,127.486,247.598z M115.946,249.846
									c0.231,0.404,0.546,0.7,0.949,0.887c0.401,0.189,0.814,0.242,1.24,0.159c0.389-0.076,0.726-0.263,1.015-0.562
									c0.287-0.3,0.487-0.708,0.6-1.224L115.946,249.846z M127.33,245.975c-0.211-0.529-0.552-0.927-1.026-1.192
									c-0.473-0.264-0.985-0.343-1.534-0.237c-0.491,0.096-0.885,0.323-1.185,0.682c-0.299,0.358-0.48,0.886-0.543,1.582
									L127.33,245.975z"/>
							</g>
						</g>
					</g>
				</g>
				<g>
					<g>
						<g>
							<path style="fill:#209461;" d="M354.829,377.852c-29.143-20.651-35.397-47.427-35.397-47.427s43.723-25.769,88.468-66.029
								c18.741,6.721,35.396,47.426,35.396,47.426S405.145,355.209,354.829,377.852z"/>
						</g>
						<g>
							<g>
								<path style="fill:#25B87F;" d="M368.763,364.469c25.193-13.859,46.09-32.203,57.262-42.935
									c-3.069-4.922-1.912-11.455,2.819-14.987c0.835-0.623,1.73-1.102,2.658-1.462c-3.492-7.371-9.486-18.408-16.699-25.077
									c-0.75,1.355-1.785,2.579-3.106,3.566c-4.397,3.282-10.402,2.869-14.316-0.689c-23.44,19.826-45.322,34.937-57.512,42.933
									c2.296,4.762,0.98,10.633-3.415,13.915c-1.024,0.765-2.138,1.318-3.289,1.69c3.087,6.633,8.814,15.84,19.054,24.211
									c0.589-0.74,1.273-1.423,2.065-2.014C358.745,360.291,364.855,360.77,368.763,364.469z"/>
							</g>
						</g>
						<g>
							<path style="fill:#209461;" d="M393.705,339.393c-7.058,4.86-16.984,3.159-22.591-3.873
								c-5.901-7.395-4.961-17.989,2.089-23.614c7.084-5.662,17.637-4.128,23.49,3.208c2.851,3.574,4.208,7.994,3.822,12.443
								c-0.388,4.473-2.488,8.44-5.913,11.172C394.308,338.962,394.01,339.184,393.705,339.393z M375.408,313.144
								c-0.26,0.178-0.515,0.368-0.765,0.567c-6.057,4.833-6.831,13.971-1.726,20.369c5.065,6.349,14.148,7.695,20.244,2.844
								c2.924-2.333,4.72-5.731,5.053-9.566c0.333-3.856-0.848-7.694-3.327-10.803C390.03,310.466,381.475,308.967,375.408,313.144z
								"/>
						</g>
						<g>
							<g>
								<path style="fill:#209461;" d="M386.671,330.669l-2.66-3.864c-1.441,0.486-2.685,0.573-3.727,0.262
									c-1.043-0.311-1.909-0.963-2.593-1.959c-0.696-1.009-0.959-2.074-0.796-3.197c0.164-1.123,0.74-2.102,1.727-2.935
									l-0.629-0.912l1.337-0.921l0.628,0.912c1.057-0.556,2.064-0.758,3.021-0.604c0.955,0.151,1.833,0.635,2.628,1.446
									l-2.124,1.909c-0.641-0.628-1.35-0.864-2.124-0.712l2.484,3.605c1.749-0.614,3.11-0.789,4.085-0.522
									c0.972,0.27,1.801,0.9,2.487,1.896c0.766,1.115,1.076,2.283,0.927,3.508c-0.149,1.225-0.764,2.338-1.843,3.335l1.186,1.724
									l-1.337,0.921l-1.154-1.678c-1.153,0.602-2.291,0.801-3.412,0.593c-1.121-0.206-2.19-0.851-3.209-1.936l2.23-1.916
									c0.438,0.424,0.914,0.723,1.43,0.893C385.75,330.688,386.228,330.737,386.671,330.669z M380.003,320.986
									c-0.277,0.374-0.422,0.781-0.433,1.225c-0.014,0.442,0.103,0.843,0.35,1.199c0.224,0.327,0.531,0.562,0.92,0.706
									c0.39,0.143,0.844,0.164,1.362,0.061L380.003,320.986z M388.097,329.879c0.401-0.405,0.629-0.877,0.684-1.418
									c0.054-0.539-0.078-1.04-0.396-1.501c-0.283-0.412-0.65-0.682-1.097-0.814c-0.448-0.132-1.005-0.086-1.667,0.134
									L388.097,329.879z"/>
							</g>
						</g>
					</g>
					<g>
						<g>
							<path style="fill:#166645;" d="M346.446,412.728c-25.933-24.563-28.341-51.952-28.341-51.952s46.925-19.336,96.909-52.868
								c17.605,9.303,28.342,51.952,28.342,51.952S399.456,397.42,346.446,412.728z"/>
						</g>
						<g>
							<g>
								<path style="fill:#1E9567;" d="M362.13,401.449c26.899-10.162,50.177-25.37,62.753-34.416
									c-2.342-5.306-0.273-11.609,4.91-14.437c0.915-0.499,1.869-0.848,2.838-1.073c-2.415-7.79-6.789-19.563-12.987-27.183
									c-0.935,1.233-2.132,2.301-3.579,3.09c-4.817,2.628-10.704,1.371-14.075-2.706c-26.006,16.316-49.803,28.183-63.001,34.377
									c1.6,5.039-0.532,10.666-5.348,13.293c-1.122,0.613-2.303,1.002-3.494,1.208c2.119,7.003,6.487,16.927,15.442,26.662
									c0.688-0.649,1.459-1.23,2.327-1.703C352.802,395.895,358.783,397.232,362.13,401.449z"/>
							</g>
						</g>
						<g>
							<path style="fill:#166645;" d="M390.366,380.147c-7.674,3.813-17.26,0.728-21.819-7.026
								c-4.796-8.153-2.369-18.509,5.406-23.082c7.812-4.604,18.043-1.592,22.799,6.495c2.317,3.941,3.037,8.507,2.026,12.857
								c-1.016,4.374-3.655,8.004-7.432,10.224C391.023,379.806,390.697,379.983,390.366,380.147z M375.962,351.575
								c-0.284,0.141-0.562,0.292-0.838,0.453c-6.68,3.929-8.736,12.866-4.587,19.922c4.117,7,12.919,9.617,19.64,5.675
								c3.225-1.897,5.481-5.006,6.354-8.757c0.876-3.769,0.247-7.737-1.768-11.164
								C390.814,350.991,382.558,348.297,375.962,351.575z"/>
						</g>
						<g>
							<g>
								<path style="fill:#166645;" d="M384.633,370.517l-2.087-4.201c-1.496,0.277-2.738,0.186-3.726-0.267
									c-0.989-0.454-1.753-1.223-2.291-2.307c-0.547-1.095-0.657-2.188-0.334-3.276c0.321-1.089,1.029-1.977,2.121-2.663
									l-0.492-0.993l1.453-0.721l0.493,0.993c1.126-0.402,2.152-0.46,3.077-0.172c0.924,0.284,1.724,0.887,2.396,1.801
									l-2.372,1.591c-0.547-0.711-1.213-1.046-2.001-1.005l1.949,3.92c1.819-0.362,3.191-0.342,4.117,0.06
									c0.926,0.402,1.658,1.146,2.195,2.228c0.601,1.212,0.741,2.411,0.422,3.603c-0.322,1.193-1.085,2.207-2.294,3.041
									l0.928,1.875l-1.452,0.723l-0.906-1.824c-1.227,0.432-2.383,0.468-3.462,0.106c-1.08-0.364-2.047-1.154-2.903-2.372
									l2.478-1.581c0.372,0.482,0.802,0.846,1.289,1.087C383.72,370.405,384.188,370.523,384.633,370.517z M379.402,359.989
									c-0.328,0.33-0.53,0.713-0.602,1.15c-0.076,0.437-0.017,0.848,0.175,1.237c0.178,0.353,0.448,0.63,0.811,0.828
									c0.366,0.198,0.812,0.283,1.34,0.253L379.402,359.989z M386.159,369.935c0.453-0.343,0.746-0.779,0.877-1.306
									c0.128-0.526,0.068-1.041-0.181-1.54c-0.223-0.45-0.547-0.769-0.972-0.962c-0.424-0.194-0.982-0.227-1.669-0.104
									L386.159,369.935z"/>
							</g>
						</g>
					</g>
				</g>
				<g>
					<g>
						<g>
							<path style="fill:#209461;" d="M361.174,268.624c-34.966,7.288-58.837-6.361-58.837-6.361s10.892-49.569,11.864-109.753
								c17.682-9.152,58.835,6.361,58.835,6.361S378.844,216.352,361.174,268.624z"/>
						</g>
						<g>
							<g>
								<path style="fill:#25B87F;" d="M360.857,249.305c7-27.888,7.79-55.683,7.535-71.173c-5.695-1.103-9.692-6.398-9.058-12.268
									c0.112-1.035,0.371-2.017,0.739-2.942c-7.777-2.461-19.942-5.584-29.737-4.841c0.482,1.472,0.675,3.063,0.497,4.703
									c-0.59,5.455-4.98,9.573-10.251,10.017c-1.435,30.667-5.264,56.982-7.706,71.354c5.051,1.56,8.455,6.521,7.867,11.975
									c-0.137,1.27-0.491,2.463-1.001,3.56c6.96,2.255,17.602,4.328,30.705,2.525c-0.14-0.935-0.175-1.901-0.069-2.883
									C350.977,253.799,355.487,249.65,360.857,249.305z"/>
							</g>
						</g>
						<g>
							<path style="fill:#209461;" d="M359.47,213.964c-1.245,8.479-9.248,14.591-18.216,13.911
								c-9.433-0.712-16.554-8.612-15.874-17.607c0.676-9.043,8.983-15.729,18.341-15.021c4.56,0.345,8.721,2.36,11.717,5.672
								c3.012,3.329,4.488,7.568,4.157,11.937C359.565,213.23,359.525,213.599,359.47,213.964z M327.787,209.496
								c-0.046,0.312-0.081,0.628-0.105,0.946c-0.583,7.727,5.583,14.515,13.745,15.132c8.099,0.612,15.268-5.125,15.865-12.892
								c0.282-3.73-0.985-7.358-3.567-10.214c-2.598-2.869-6.213-4.616-10.178-4.918
								C335.78,196.964,328.859,202.209,327.787,209.496z"/>
						</g>
						<g>
							<g>
								<path style="fill:#209461;" d="M348.292,213.178l-4.642-0.682c-0.626,1.387-1.409,2.357-2.346,2.908
									c-0.938,0.552-2.005,0.743-3.201,0.566c-1.213-0.178-2.172-0.709-2.883-1.594c-0.71-0.885-1.036-1.973-0.975-3.263
									l-1.096-0.161l0.236-1.606l1.096,0.16c0.312-1.153,0.85-2.027,1.614-2.624c0.761-0.597,1.713-0.91,2.848-0.94l-0.047,2.855
									c-0.897,0.042-1.552,0.4-1.968,1.07l4.332,0.635c0.74-1.699,1.539-2.815,2.399-3.347c0.859-0.528,1.885-0.706,3.082-0.531
									c1.338,0.198,2.404,0.766,3.201,1.709c0.796,0.944,1.192,2.152,1.188,3.62l2.07,0.305l-0.236,1.606l-2.015-0.296
									c-0.343,1.254-0.972,2.223-1.888,2.903c-0.914,0.681-2.114,1.025-3.602,1.033l0.115-2.938
									c0.609-0.032,1.151-0.177,1.627-0.439C347.678,213.865,348.04,213.549,348.292,213.178z M336.659,211.469
									c0.086,0.458,0.285,0.841,0.603,1.151c0.315,0.311,0.688,0.499,1.117,0.56c0.392,0.059,0.773-0.007,1.143-0.194
									c0.37-0.188,0.695-0.506,0.972-0.956L336.659,211.469z M348.683,211.595c-0.023-0.57-0.214-1.058-0.573-1.466
									c-0.358-0.406-0.815-0.65-1.368-0.731c-0.496-0.073-0.942,0.011-1.344,0.249c-0.401,0.238-0.746,0.677-1.037,1.312
									L348.683,211.595z"/>
							</g>
						</g>
					</g>
					<g>
						<g>
							<path style="fill:#166645;" d="M338.215,280.545c-28.507-21.522-33.949-48.473-33.949-48.473s44.479-24.44,90.419-63.331
								c18.531,7.286,33.95,48.473,33.95,48.473S389.192,259.428,338.215,280.545z"/>
						</g>
						<g>
							<g>
								<path style="fill:#1E9567;" d="M352.546,267.588c25.601-13.094,47.041-30.798,58.531-41.189
									c-2.919-5.012-1.564-11.507,3.271-14.894c0.853-0.597,1.763-1.049,2.701-1.382c-3.268-7.472-8.926-18.685-15.934-25.568
									c-0.791,1.329-1.862,2.524-3.213,3.469c-4.495,3.148-10.484,2.554-14.288-1.122c-24.029,19.11-46.355,33.553-58.782,41.178
									c2.152,4.829,0.659,10.658-3.834,13.806c-1.047,0.733-2.178,1.251-3.338,1.589c2.886,6.724,8.332,16.099,18.315,24.777
									c0.611-0.722,1.313-1.384,2.123-1.952C342.658,263.109,348.751,263.771,352.546,267.588z"/>
							</g>
						</g>
						<g>
							<path style="fill:#166645;" d="M378.234,243.276c-7.202,4.643-17.071,2.645-22.465-4.553
								c-5.675-7.568-4.415-18.13,2.802-23.541c7.251-5.444,17.753-3.592,23.381,3.916c2.741,3.659,3.966,8.117,3.445,12.552
								c-0.522,4.459-2.74,8.362-6.247,10.987C378.85,242.863,378.545,243.076,378.234,243.276z M360.737,216.485
								c-0.266,0.172-0.526,0.352-0.782,0.544c-6.199,4.649-7.249,13.759-2.339,20.309c4.87,6.499,13.91,8.119,20.149,3.453
								c2.994-2.245,4.889-5.585,5.34-9.41c0.451-3.843-0.615-7.716-3-10.897C375.433,214.251,366.928,212.494,360.737,216.485z"/>
						</g>
						<g>
							<g>
								<path style="fill:#166645;" d="M371.465,234.344l-2.542-3.943c-1.455,0.442-2.7,0.491-3.733,0.15
									c-1.034-0.342-1.878-1.019-2.533-2.038c-0.666-1.028-0.896-2.101-0.698-3.219c0.198-1.118,0.803-2.079,1.812-2.883
									l-0.6-0.931l1.363-0.879l0.601,0.932c1.074-0.525,2.087-0.696,3.039-0.514c0.95,0.18,1.812,0.69,2.582,1.524l-2.181,1.845
									c-0.622-0.646-1.321-0.905-2.1-0.775l2.374,3.678c1.767-0.562,3.132-0.695,4.097-0.399c0.964,0.297,1.775,0.955,2.43,1.971
									c0.732,1.136,1.004,2.313,0.82,3.533c-0.186,1.221-0.833,2.314-1.941,3.278l1.131,1.759l-1.362,0.88l-1.104-1.712
									c-1.172,0.567-2.315,0.731-3.428,0.491c-1.114-0.241-2.163-0.919-3.15-2.033l2.287-1.848
									c0.423,0.437,0.891,0.751,1.402,0.937C370.545,234.334,371.022,234.4,371.465,234.344z M365.094,224.464
									c-0.29,0.364-0.447,0.768-0.471,1.21c-0.028,0.442,0.078,0.845,0.313,1.21c0.216,0.331,0.514,0.577,0.899,0.733
									c0.385,0.156,0.838,0.191,1.359,0.102L365.094,224.464z M372.915,233.596c0.413-0.391,0.655-0.857,0.727-1.396
									c0.069-0.537-0.048-1.042-0.352-1.511c-0.272-0.421-0.629-0.702-1.072-0.847c-0.445-0.146-1.002-0.117-1.67,0.082
									L372.915,233.596z"/>
							</g>
						</g>
					</g>
				</g>
				<g>
					<g>
						<path style="fill:#691E63;" d="M219.153,358.945c2.682,5.549,0.356,12.223-5.195,14.904l-82.917,40.051
							c-5.55,2.682-12.224,0.355-14.905-5.195L65.162,303.175c-2.682-5.55-0.356-12.223,5.195-14.905l82.917-40.051
							c5.55-2.682,12.224-0.355,14.905,5.195L219.153,358.945z"/>
					</g>
					<path style="fill:#631C5D;" d="M219.153,358.945l-50.975-105.531c-1.555-3.219-4.455-5.344-7.697-6.046l50.301,104.135
						c2.682,5.549,0.356,12.223-5.195,14.904L122.67,406.46c-2.332,1.127-4.859,1.359-7.208,0.851l0.674,1.396
						c2.681,5.549,9.354,7.877,14.905,5.195l82.917-40.051C219.509,371.168,221.835,364.494,219.153,358.945z"/>
					<g>
						<path style="fill:#EAEEEF;" d="M168.325,275.095c1.69,3.499-1.44,8.508-6.991,11.19l-66.165,31.96
							c-5.551,2.681-11.42,2.019-13.11-1.479l-5.864-12.141c-1.69-3.498,1.44-8.508,6.99-11.189l66.166-31.96
							c5.55-2.681,11.42-2.019,13.11,1.48L168.325,275.095z"/>
					</g>
					<path style="fill:#D9DDDE;" d="M168.325,275.095l-5.864-12.139c-0.894-1.85-2.96-2.897-5.525-3.087
						c0.355,0.36,0.653,0.767,0.875,1.226l5.864,12.139c1.69,3.499-1.44,8.508-6.991,11.19l-66.165,31.96
						c-2.616,1.264-5.298,1.776-7.585,1.607c2.354,2.385,7.413,2.583,12.236,0.253l66.165-31.96
						C166.885,283.603,170.015,278.594,168.325,275.095z"/>
					<g>
						<path style="fill:#E6EAEB;" d="M111.676,346.011c1.733,3.602,0.23,7.925-3.369,9.663l-2.043,0.989
							c-3.599,1.738-7.931,0.233-9.663-3.368l-0.177-0.369c-1.733-3.603-0.231-7.925,3.368-9.664l2.044-0.987
							c3.599-1.739,7.93-0.235,9.663,3.367L111.676,346.011z"/>
					</g>
					<g>
						<path style="fill:#E6EAEB;" d="M130.102,337.111c1.733,3.602,0.23,7.924-3.368,9.662l-2.044,0.989
							c-3.599,1.738-7.925,0.23-9.663-3.368l-0.179-0.37c-1.738-3.599-0.23-7.925,3.369-9.664l2.045-0.985
							c3.598-1.74,7.93-0.235,9.662,3.367L130.102,337.111z"/>
					</g>
					<g>
						<path style="fill:#E6EAEB;" d="M149.365,327.806c1.733,3.603,0.231,7.925-3.367,9.663l-2.046,0.987
							c-3.598,1.739-7.929,0.234-9.663-3.368l-0.178-0.37c-1.733-3.601-0.23-7.923,3.369-9.661l2.044-0.989
							c3.599-1.738,7.93-0.233,9.663,3.369L149.365,327.806z"/>
					</g>
					<g>
						<path style="fill:#E6EAEB;" d="M168.628,318.502c1.733,3.601,0.231,7.924-3.368,9.662l-2.044,0.989
							c-3.599,1.737-7.925,0.23-9.663-3.368l-0.178-0.371c-1.738-3.599-0.23-7.923,3.368-9.663l2.045-0.987
							c3.598-1.738,7.93-0.233,9.663,3.368L168.628,318.502z"/>
					</g>
					<g>
						<path style="fill:#E6EAEB;" d="M187.056,309.601c1.737,3.598,0.229,7.924-3.37,9.663l-2.044,0.987
							c-3.598,1.74-7.93,0.233-9.662-3.367l-0.178-0.371c-1.732-3.601-0.23-7.924,3.368-9.662l2.044-0.988
							c3.599-1.738,7.925-0.231,9.663,3.367L187.056,309.601z"/>
					</g>
					<g>
						<path style="fill:#E6EAEB;" d="M119.74,362.775c1.733,3.602,0.244,7.918-3.354,9.657l-2.051,0.99
							c-3.598,1.739-7.937,0.237-9.669-3.364l-0.178-0.37c-1.733-3.602-0.218-7.932,3.381-9.67l2.037-0.984
							c3.599-1.739,7.925-0.23,9.657,3.371L119.74,362.775z"/>
					</g>
					<g>
						<path style="fill:#FF366D;" d="M194.008,368.329c1.923,3.936,0.002,8.826-4.289,10.923l-0.338,0.165
							c-4.292,2.096-9.329,0.604-11.251-3.331l-8.105-16.59c-1.922-3.935-0.042-8.904,4.25-11l0.338-0.166
							c4.292-2.096,9.368-0.527,11.291,3.409L194.008,368.329z"/>
					</g>
					<g>
						<path style="fill:#E6EAEB;" d="M138.167,353.875c1.733,3.602,0.243,7.917-3.355,9.656l-2.052,0.991
							c-3.598,1.738-7.936,0.237-9.669-3.365l-0.179-0.371c-1.732-3.601-0.216-7.93,3.382-9.668l2.038-0.985
							c3.599-1.738,7.924-0.23,9.656,3.372L138.167,353.875z"/>
					</g>
					<g>
						<path style="fill:#E6EAEB;" d="M157.43,344.57c1.732,3.601,0.243,7.918-3.355,9.656l-2.052,0.99
							c-3.599,1.739-7.937,0.238-9.67-3.365l-0.178-0.369c-1.732-3.602-0.217-7.931,3.382-9.669l2.038-0.985
							c3.598-1.738,7.924-0.23,9.656,3.371L157.43,344.57z"/>
					</g>
					<g>
						<path style="fill:#E6EAEB;" d="M176.693,335.265c1.733,3.602,0.245,7.919-3.354,9.657l-2.051,0.99
							c-3.599,1.738-7.937,0.237-9.67-3.365l-0.177-0.37c-1.733-3.602-0.217-7.93,3.381-9.669l2.039-0.985
							c3.598-1.738,7.923-0.23,9.656,3.372L176.693,335.265z"/>
					</g>
					<g>
						<path style="fill:#E6EAEB;" d="M195.119,326.364c1.733,3.602,0.243,7.918-3.355,9.657l-2.051,0.99
							c-3.598,1.739-7.936,0.237-9.669-3.365l-0.178-0.37c-1.733-3.602-0.217-7.931,3.382-9.669l2.037-0.985
							c3.599-1.737,7.924-0.229,9.656,3.372L195.119,326.364z"/>
					</g>
					<g>
						<path style="fill:#E6EAEB;" d="M103.974,328.935c1.733,3.602,0.243,7.918-3.355,9.657l-2.051,0.99
							c-3.599,1.739-7.936,0.237-9.669-3.365l-0.179-0.37c-1.733-3.602-0.217-7.931,3.382-9.669l2.037-0.985
							c3.599-1.737,7.924-0.229,9.656,3.372L103.974,328.935z"/>
					</g>
					<g>
						<path style="fill:#E6EAEB;" d="M122.24,319.298c1.733,3.602,0.243,7.918-3.355,9.657l-2.051,0.99
							c-3.599,1.739-7.936,0.237-9.669-3.365l-0.178-0.37c-1.733-3.602-0.217-7.931,3.382-9.669l2.037-0.985
							c3.599-1.737,7.924-0.229,9.656,3.372L122.24,319.298z"/>
					</g>
					<g>
						<path style="fill:#E6EAEB;" d="M142.573,309.897c1.733,3.602,0.243,7.918-3.355,9.657l-2.051,0.99
							c-3.599,1.739-7.936,0.237-9.669-3.365l-0.178-0.37c-1.733-3.602-0.217-7.931,3.382-9.669l2.037-0.985
							c3.599-1.737,7.924-0.229,9.656,3.372L142.573,309.897z"/>
					</g>
					<g>
						<path style="fill:#E6EAEB;" d="M162.586,299.622c1.733,3.602,0.243,7.918-3.355,9.657l-2.051,0.99
							c-3.599,1.739-7.936,0.237-9.669-3.365l-0.178-0.37c-1.733-3.602-0.217-7.931,3.382-9.669l2.037-0.985
							c3.599-1.737,7.924-0.229,9.657,3.372L162.586,299.622z"/>
					</g>
					<g>
						<path style="fill:#E6EAEB;" d="M127.805,379.537c1.733,3.603,0.258,7.913-3.341,9.651l-2.057,0.994
							c-3.598,1.74-7.944,0.241-9.677-3.362l-0.177-0.368c-1.733-3.602-0.204-7.937,3.395-9.675l2.031-0.982
							c3.599-1.738,7.917-0.227,9.65,3.375L127.805,379.537z"/>
					</g>
					<g>
						<path style="fill:#E6EAEB;" d="M146.23,370.637c1.734,3.603,0.258,7.912-3.34,9.651l-2.059,0.994
							c-3.598,1.738-7.943,0.24-9.676-3.362l-0.177-0.37c-1.734-3.602-0.205-7.937,3.395-9.675l2.031-0.983
							c3.598-1.738,7.917-0.226,9.649,3.375L146.23,370.637z"/>
					</g>
					<g>
						<path style="fill:#E6EAEB;" d="M165.495,361.333c1.733,3.602,0.257,7.911-3.342,9.65l-2.059,0.994
							c-3.598,1.738-7.943,0.24-9.676-3.362l-0.178-0.37c-1.732-3.601-0.204-7.937,3.394-9.675l2.032-0.98
							c3.598-1.739,7.917-0.227,9.649,3.373L165.495,361.333z"/>
					</g>
					<g>
						<path style="fill:#E6EAEB;" d="M203.184,343.128c1.732,3.601,0.257,7.911-3.341,9.65l-2.058,0.994
							c-3.599,1.739-7.944,0.239-9.676-3.362l-0.178-0.371c-1.732-3.6-0.204-7.937,3.396-9.674l2.03-0.982
							c3.599-1.737,7.917-0.227,9.65,3.375L203.184,343.128z"/>
					</g>
					<g>
						<path style="fill:#E6EAEB;" d="M135.87,396.302c1.732,3.601,0.27,7.906-3.329,9.644l-2.064,0.997
							c-3.599,1.738-7.951,0.243-9.683-3.359l-0.178-0.368c-1.732-3.601-0.191-7.944,3.408-9.682l2.024-0.979
							c3.599-1.738,7.91-0.223,9.643,3.378L135.87,396.302z"/>
					</g>
					<g>
						<path style="fill:#E6EAEB;" d="M154.296,387.401c1.733,3.603,0.271,7.906-3.327,9.643l-2.065,0.998
							c-3.599,1.739-7.951,0.244-9.683-3.358l-0.178-0.37c-1.733-3.601-0.191-7.943,3.408-9.681l2.025-0.978
							c3.598-1.738,7.911-0.223,9.643,3.379L154.296,387.401z"/>
					</g>
					<g>
						<path style="fill:#E6EAEB;" d="M173.56,378.098c1.732,3.599,0.269,7.903-3.328,9.642l-2.066,0.996
							c-3.598,1.74-7.95,0.243-9.682-3.358l-0.179-0.371c-1.732-3.601-0.191-7.943,3.409-9.681l2.025-0.979
							c3.598-1.738,7.91-0.223,9.643,3.378L173.56,378.098z"/>
					</g>
					<g>
						<path style="fill:#E6EAEB;" d="M211.248,359.891c1.732,3.601,0.27,7.906-3.328,9.645l-2.065,0.996
							c-3.598,1.739-7.95,0.243-9.683-3.359l-0.178-0.37c-1.733-3.601-0.191-7.943,3.409-9.682l2.024-0.977
							c3.599-1.738,7.91-0.225,9.643,3.378L211.248,359.891z"/>
					</g>
					<g>
						<path style="fill:#691E63;" d="M139.941,334.224l1.26-0.797c0.165,0.255,0.348,0.415,0.548,0.478
							c0.201,0.064,0.414,0.041,0.639-0.069c0.284-0.139,0.462-0.387,0.533-0.746c0.072-0.359-0.065-0.963-0.412-1.813
							c-0.149,0.571-0.484,0.982-1.003,1.236c-0.565,0.276-1.159,0.296-1.781,0.06c-0.622-0.235-1.105-0.703-1.445-1.402
							c-0.356-0.728-0.426-1.421-0.211-2.077c0.214-0.658,0.657-1.15,1.325-1.477c0.728-0.355,1.463-0.366,2.205-0.029
							c0.742,0.335,1.428,1.147,2.057,2.436c0.641,1.312,0.861,2.378,0.658,3.196c-0.202,0.818-0.693,1.419-1.473,1.799
							c-0.562,0.275-1.089,0.347-1.581,0.217C140.769,335.109,140.329,334.771,139.941,334.224z M141.586,329.696
							c-0.216-0.443-0.487-0.737-0.811-0.884c-0.323-0.145-0.619-0.151-0.886-0.021c-0.255,0.124-0.417,0.328-0.487,0.611
							c-0.07,0.283,0.006,0.652,0.23,1.109c0.226,0.464,0.484,0.759,0.773,0.887c0.288,0.128,0.57,0.126,0.845-0.009
							c0.264-0.129,0.436-0.342,0.515-0.639C141.844,330.453,141.784,330.101,141.586,329.696z"/>
					</g>
					<g>
						<path style="fill:#691E63;" d="M159.518,326.717l0.623-4.945l-3.9-2.346l1.693-0.828l2.567,1.603l0.283-2.995l1.68-0.821
							l-0.53,4.577l4.257,2.494l-1.748,0.854l-2.805-1.705l-0.384,3.262L159.518,326.717z"/>
					</g>
					<g>
						<path style="fill:#691E63;" d="M167.781,340.085l-0.672-1.375l2.703-1.321l0.672,1.376L167.781,340.085z"/>
					</g>
					<g>
						<path style="fill:#691E63;" d="M179.898,316.912l-1.849-8.293l1.033-0.505l1.83,8.301L179.898,316.912z"/>
					</g>
					<g>
						<path style="fill:#691E63;" d="M121.207,340.635c-0.429,0.024-0.789-0.056-1.079-0.24c-0.29-0.184-0.512-0.432-0.665-0.746
							c-0.261-0.535-0.291-1.07-0.087-1.601c0.202-0.532,0.649-0.967,1.337-1.303c0.683-0.333,1.297-0.417,1.846-0.252
							c0.548,0.166,0.952,0.515,1.213,1.05c0.163,0.333,0.221,0.672,0.175,1.016c-0.047,0.344-0.193,0.661-0.44,0.951
							c0.477-0.035,0.893,0.05,1.251,0.256c0.357,0.206,0.634,0.509,0.83,0.911c0.323,0.663,0.375,1.304,0.155,1.926
							c-0.221,0.622-0.682,1.103-1.384,1.446c-0.653,0.318-1.28,0.414-1.882,0.283c-0.71-0.156-1.237-0.585-1.582-1.291
							c-0.19-0.387-0.268-0.792-0.234-1.21C120.697,341.413,120.878,341.014,121.207,340.635z M120.814,339.111
							c0.134,0.274,0.316,0.45,0.545,0.528c0.231,0.078,0.474,0.054,0.733-0.072c0.261-0.128,0.432-0.308,0.513-0.539
							c0.081-0.232,0.055-0.484-0.08-0.759c-0.126-0.258-0.305-0.426-0.535-0.506c-0.231-0.078-0.474-0.057-0.729,0.068
							c-0.265,0.13-0.437,0.311-0.517,0.544C120.665,338.607,120.688,338.853,120.814,339.111z M122.189,342.248
							c0.185,0.378,0.426,0.627,0.724,0.744c0.298,0.117,0.592,0.105,0.883-0.037c0.284-0.139,0.47-0.356,0.556-0.651
							c0.086-0.296,0.035-0.635-0.153-1.02c-0.164-0.336-0.39-0.56-0.68-0.673c-0.289-0.111-0.579-0.096-0.87,0.047
							c-0.337,0.163-0.53,0.402-0.581,0.715C122.016,341.685,122.057,341.978,122.189,342.248z"/>
					</g>
					<g>
						<path style="fill:#691E63;" d="M100.489,348.367l-0.624-1.279l4.706-2.299l0.488,1c-0.202,0.571-0.328,1.313-0.381,2.224
							c-0.052,0.911,0.013,1.821,0.196,2.729c0.182,0.906,0.429,1.677,0.742,2.308l-1.327,0.649
							c-0.461-1.004-0.751-2.115-0.869-3.337c-0.117-1.22-0.05-2.394,0.198-3.523L100.489,348.367z"/>
					</g>
					<g>
						<path style="fill:#691E63;" d="M150.945,345.003l-1.261,0.798c-0.166-0.259-0.349-0.419-0.551-0.484
							c-0.201-0.063-0.41-0.041-0.63,0.065c-0.29,0.143-0.473,0.393-0.545,0.752c-0.073,0.359,0.066,0.965,0.417,1.816
							c0.145-0.573,0.473-0.984,0.981-1.232c0.574-0.281,1.174-0.302,1.797-0.064c0.623,0.237,1.104,0.701,1.442,1.394
							c0.359,0.734,0.431,1.428,0.218,2.083c-0.215,0.655-0.659,1.148-1.335,1.477c-0.725,0.354-1.458,0.364-2.2,0.028
							c-0.742-0.335-1.426-1.144-2.053-2.427c-0.643-1.316-0.863-2.383-0.661-3.201c0.203-0.819,0.692-1.419,1.469-1.798
							c0.546-0.266,1.071-0.334,1.578-0.204C150.118,344.138,150.563,344.471,150.945,345.003z M149.292,349.529
							c0.218,0.447,0.49,0.742,0.815,0.884c0.325,0.142,0.618,0.15,0.884,0.021c0.254-0.125,0.418-0.328,0.49-0.609
							c0.073-0.283-0.002-0.65-0.224-1.104c-0.227-0.467-0.487-0.764-0.775-0.893c-0.288-0.127-0.571-0.124-0.844,0.01
							c-0.264,0.129-0.438,0.342-0.519,0.638C149.036,348.774,149.093,349.124,149.292,349.529z"/>
					</g>
					<g>
						<path style="fill:#691E63;" d="M129.246,360.033l1.301-0.812c0.191,0.291,0.427,0.48,0.708,0.568
							c0.281,0.086,0.547,0.069,0.799-0.054c0.287-0.142,0.473-0.376,0.558-0.708c0.086-0.33,0.013-0.731-0.217-1.201
							c-0.215-0.441-0.476-0.723-0.781-0.847c-0.304-0.124-0.616-0.108-0.933,0.046c-0.395,0.193-0.664,0.541-0.806,1.043
							l-1.196,0.385l-1.121-4.082l3.638-1.776l0.63,1.288l-2.595,1.268l0.38,1.324c0.231-0.304,0.507-0.534,0.827-0.69
							c0.611-0.298,1.236-0.329,1.878-0.092c0.641,0.236,1.135,0.708,1.481,1.416c0.288,0.591,0.375,1.202,0.258,1.834
							c-0.157,0.862-0.651,1.493-1.48,1.899c-0.663,0.324-1.29,0.411-1.882,0.258C130.103,360.949,129.62,360.594,129.246,360.033z"
							/>
					</g>
					<g>
						<path style="fill:#691E63;" d="M114.231,369.654l-0.706-1.444l-2.938,1.436l-0.589-1.205l0.887-6.081l1.155-0.565l2.225,4.555
							l0.891-0.436l0.59,1.21l-0.891,0.435l0.706,1.444L114.231,369.654z M112.934,367l-1.199-2.454l-0.451,3.26L112.934,367z"/>
					</g>
					<g>
						<path style="fill:#691E63;" d="M156.075,367.447l1.253-0.812c0.208,0.318,0.45,0.522,0.723,0.611
							c0.274,0.089,0.543,0.068,0.807-0.062c0.284-0.138,0.471-0.363,0.559-0.674c0.089-0.309,0.045-0.647-0.134-1.013
							c-0.169-0.346-0.396-0.575-0.682-0.687c-0.284-0.111-0.56-0.101-0.828,0.029c-0.176,0.086-0.371,0.222-0.582,0.411
							l-0.397-1.195c0.377-0.172,0.622-0.391,0.734-0.659c0.112-0.267,0.099-0.543-0.04-0.828c-0.118-0.241-0.284-0.398-0.498-0.473
							c-0.214-0.073-0.439-0.051-0.678,0.066c-0.235,0.115-0.396,0.293-0.482,0.538c-0.088,0.245-0.072,0.532,0.045,0.863
							l-1.373,0.404c-0.124-0.477-0.16-0.889-0.109-1.234c0.051-0.347,0.199-0.672,0.445-0.977c0.246-0.303,0.566-0.553,0.962-0.746
							c0.675-0.33,1.323-0.379,1.941-0.147c0.509,0.189,0.871,0.504,1.088,0.949c0.308,0.63,0.21,1.3-0.296,2.013
							c0.455-0.114,0.88-0.077,1.276,0.111c0.397,0.186,0.701,0.496,0.913,0.932c0.308,0.628,0.34,1.278,0.096,1.947
							c-0.243,0.669-0.707,1.171-1.393,1.505c-0.65,0.317-1.279,0.394-1.89,0.229C156.925,368.385,156.438,368.017,156.075,367.447z
							"/>
					</g>
					<g>
						<path style="fill:#691E63;" d="M163.359,382.261l-0.617-1.264l5.019-2.452l0.618,1.264L163.359,382.261z M164.421,384.435
							l-0.619-1.268l5.02-2.452l0.619,1.267L164.421,384.435z"/>
					</g>
					<g>
						<path style="fill:#691E63;" d="M182.102,367.123l-0.911-1.865l-1.881,0.919l-0.629-1.289l1.88-0.919l-0.911-1.865l1.253-0.612
							l0.912,1.865l1.885-0.921l0.63,1.288l-1.886,0.921l0.912,1.865L182.102,367.123z"/>
					</g>
					<g>
						<path style="fill:#691E63;" d="M142.274,374.966l0.624,1.277l-4.824,2.357c-0.184-0.508-0.25-1.043-0.201-1.603
							c0.05-0.561,0.286-1.386,0.707-2.477c0.338-0.88,0.526-1.459,0.567-1.733c0.051-0.377,0.008-0.704-0.127-0.982
							c-0.151-0.307-0.348-0.503-0.593-0.587c-0.245-0.084-0.513-0.055-0.804,0.087c-0.287,0.141-0.473,0.338-0.559,0.594
							c-0.085,0.257-0.042,0.592,0.127,1.006l-1.439,0.533c-0.288-0.797-0.297-1.466-0.027-2.006c0.27-0.54,0.728-0.968,1.374-1.284
							c0.708-0.346,1.358-0.427,1.95-0.242c0.591,0.183,1.025,0.56,1.303,1.128c0.158,0.324,0.25,0.659,0.277,1.008
							c0.027,0.349-0.008,0.744-0.103,1.187c-0.063,0.294-0.214,0.745-0.453,1.357c-0.24,0.61-0.385,1.008-0.438,1.195
							c-0.053,0.186-0.084,0.36-0.095,0.52L142.274,374.966z"/>
					</g>
					<g>
						<path style="fill:#691E63;" d="M123.176,385.879l-1.376,0.672l-2.533-5.186c-0.273,0.716-0.696,1.352-1.268,1.911l-0.61-1.249
							c0.302-0.293,0.583-0.706,0.844-1.24c0.261-0.533,0.363-1.058,0.306-1.572l1.116-0.546L123.176,385.879z"/>
					</g>
					<g>
						<path style="fill:#691E63;" d="M146.423,392.379l-0.673-1.376l1.376-0.672l0.673,1.376L146.423,392.379z"/>
					</g>
					<g>
						<path style="fill:#691E63;" d="M126.727,396.177c0.696-0.339,1.36-0.356,1.994-0.052c0.754,0.36,1.464,1.221,2.128,2.581
							c0.664,1.359,0.905,2.449,0.725,3.272c-0.149,0.68-0.571,1.189-1.266,1.53c-0.7,0.34-1.393,0.348-2.083,0.02
							c-0.69-0.328-1.371-1.181-2.044-2.559c-0.661-1.351-0.901-2.439-0.721-3.263C125.61,397.028,126.032,396.517,126.727,396.177z
							 M127.285,397.319c-0.167,0.08-0.289,0.206-0.368,0.376c-0.078,0.17-0.087,0.41-0.025,0.719
							c0.079,0.402,0.324,1.024,0.736,1.866c0.412,0.842,0.736,1.4,0.975,1.674c0.238,0.274,0.448,0.431,0.628,0.473
							c0.18,0.042,0.353,0.021,0.52-0.059c0.166-0.082,0.289-0.208,0.368-0.378c0.078-0.17,0.087-0.409,0.025-0.719
							c-0.078-0.399-0.322-1.02-0.734-1.861s-0.736-1.4-0.976-1.674c-0.239-0.273-0.448-0.431-0.63-0.474
							C127.625,397.217,127.452,397.237,127.285,397.319z"/>
					</g>
				</g>
				<g>
					<g>
						<path style="fill:#FFF1E3;" d="M268.694,228.839c0,0-17.971-45.676-5.99-36.691c11.98,8.985,2.995-47.173,10.483-29.203
							c7.488,17.971,8.986-62.149,19.469-47.922c10.483,14.227,5.59,51.392,5.59,51.392s14.627-17.697,15.376-7.214
							c0.749,10.483-23.961,47.922-15.724,44.927c8.237-2.995,8.985,5.99-5.241,20.966
							C278.428,240.071,268.694,228.839,268.694,228.839z"/>
						
							<path style="fill:none;stroke:#D6B6BA;stroke-width:0.75;stroke-linecap:round;stroke-linejoin:round;stroke-miterlimit:10;" d="
							M275.137,231.745c0,0,17.518-54.572,14.523-107.736"/>
						<g>
							
								<polyline style="fill:none;stroke:#D6B6BA;stroke-width:0.75;stroke-linecap:round;stroke-linejoin:round;stroke-miterlimit:10;" points="
								270.191,204.129 277.334,224.203 297.935,210.708 							"/>
							
								<polyline style="fill:none;stroke:#D6B6BA;stroke-width:0.75;stroke-linecap:round;stroke-linejoin:round;stroke-miterlimit:10;" points="
								276.556,185.036 282.575,200.991 299.768,189.528 							"/>
							
								<polyline style="fill:none;stroke:#D6B6BA;stroke-width:0.75;stroke-linecap:round;stroke-linejoin:round;stroke-miterlimit:10;" points="
								281.049,163.321 287.039,178.296 301.266,168.562 							"/>
							
								<polyline style="fill:none;stroke:#D6B6BA;stroke-width:0.75;stroke-linecap:round;stroke-linejoin:round;stroke-miterlimit:10;" points="
								283.407,145.834 289.053,158.828 297.741,147.732 							"/>
							
								<polyline style="fill:none;stroke:#D6B6BA;stroke-width:0.75;stroke-linecap:round;stroke-linejoin:round;stroke-miterlimit:10;" points="
								283.99,130.329 289.636,143.323 298.324,132.227 							"/>
						</g>
					</g>
					<g>
						<path style="fill:#834A94;" d="M274.662,228.881c0,0,11.468-29.147,3.823-23.413c-7.645,5.734-1.911-30.103-6.69-18.635
							c-4.778,11.468-5.734-39.659-12.423-30.581c-6.69,9.079-3.567,32.795-3.567,32.795s-9.334-11.293-9.812-4.604
							c-0.478,6.689,15.29,30.581,10.034,28.669c-5.256-1.911-5.734,3.822,3.345,13.379
							C268.45,236.048,274.662,228.881,274.662,228.881z"/>
						<g>
							<path style="fill:#FCDCE1;" d="M270.074,230.888c-1.668-5.597-3.039-11.245-4.245-16.938
								c-1.196-5.692-2.181-11.427-2.968-17.188c-0.814-5.757-1.324-11.554-1.63-17.357c-0.334-5.804-0.226-11.622,0.052-17.421
								c-0.195,5.804-0.219,11.615,0.198,17.407c0.389,5.789,0.98,11.567,1.875,17.3c0.868,5.736,1.932,11.441,3.206,17.099
								c1.282,5.651,2.735,11.281,4.465,16.792L270.074,230.888z"/>
						</g>
						<g>
							
								<polyline style="fill:none;stroke:#FCDCE1;stroke-width:0.5;stroke-linecap:round;stroke-linejoin:round;stroke-miterlimit:10;" points="
								273.706,213.113 269.148,225.922 256.002,217.311 							"/>
							
								<polyline style="fill:none;stroke:#FCDCE1;stroke-width:0.5;stroke-linecap:round;stroke-linejoin:round;stroke-miterlimit:10;" points="
								269.645,200.928 265.803,211.11 254.832,203.795 							"/>
							
								<polyline style="fill:none;stroke:#FCDCE1;stroke-width:0.5;stroke-linecap:round;stroke-linejoin:round;stroke-miterlimit:10;" points="
								266.778,187.071 262.955,196.628 253.876,190.416 							"/>
							
								<polyline style="fill:none;stroke:#FCDCE1;stroke-width:0.5;stroke-linecap:round;stroke-linejoin:round;stroke-miterlimit:10;" points="
								265.273,175.912 261.67,184.204 256.126,177.123 							"/>
							
								<polyline style="fill:none;stroke:#FCDCE1;stroke-width:0.5;stroke-linecap:round;stroke-linejoin:round;stroke-miterlimit:10;" points="
								264.9,166.018 261.298,174.31 255.754,167.229 							"/>
						</g>
					</g>
				</g>
				<g>
					<g>
						<path style="fill:#EEC92A;" d="M203.948,410.522c0,2.21-1.559,3.721-3.482,3.721h-51.909c-1.923,0-3.482-1.511-3.482-3.721
							l0,0c0-2.21,1.558-3.72,3.482-3.72h51.909C202.389,406.802,203.948,408.312,203.948,410.522L203.948,410.522z"/>
						<rect x="159.365" y="406.802" style="fill:#FFDC82;" width="8.371" height="7.441"/>
						<rect x="180.758" y="406.802" style="fill:#FFDC82;" width="3.72" height="7.441"/>
						<g style="opacity:0.5;">
							<path style="fill:#EEC92A;" d="M201.059,406.711c0.226,0.531,0.357,1.126,0.357,1.758c0,2.209-1.559,3.796-3.482,3.796
								c0,0-50.751,1.978-49.377,1.978h51.909c1.923,0,3.482-1.587,3.482-3.797C203.948,408.468,202.699,407.035,201.059,406.711z"
								/>
						</g>
					</g>
					<g>
						<path style="fill:#EEC92A;" d="M201.131,378.433c0,2.21-1.558,4.185-3.482,4.185h-51.909c-1.923,0-3.482-1.975-3.482-4.185
							l0,0c0-2.21,1.559-4.186,3.482-4.186h51.909C199.573,374.247,201.131,376.223,201.131,378.433L201.131,378.433z"/>
						<rect x="156.574" y="374.247" style="fill:#FFDC82;" width="8.371" height="8.371"/>
						<rect x="177.037" y="374.247" style="fill:#FFDC82;" width="4.651" height="8.371"/>
						<g style="opacity:0.5;">
							<path style="fill:#EEC92A;" d="M198.242,374.695c0.227,0.531,0.357,1.126,0.357,1.758c0,2.21-1.559,3.993-3.482,3.993
								c0,0-50.75,2.173-49.377,2.173h51.909c1.923,0,3.482-1.782,3.482-3.993C201.131,376.649,199.882,375.019,198.242,374.695z"/>
						</g>
					</g>
					<g>
						<path style="fill:#EEC92A;" d="M205.847,386.804c0,2.211-1.56,4.186-3.482,4.186h-51.909c-1.923,0-3.482-1.975-3.482-4.186
							l0,0c0-2.209,1.559-4.186,3.482-4.186h51.909C204.288,382.618,205.847,384.595,205.847,386.804L205.847,386.804z"/>
						<rect x="160.295" y="382.618" style="fill:#FFDC82;" width="9.301" height="8.371"/>
						<rect x="182.618" y="382.618" style="fill:#FFDC82;" width="4.651" height="8.371"/>
						<g style="opacity:0.5;">
							<path style="fill:#EEC92A;" d="M202.957,382.699c0.227,0.531,0.358,1.126,0.358,1.757c0,2.21-1.559,4.176-3.483,4.176
								c0,0-50.75,2.357-49.376,2.357h51.909c1.923,0,3.482-1.966,3.482-4.176C205.847,384.836,204.598,383.023,202.957,382.699z"/>
						</g>
					</g>
					<g>
						<path style="fill:#EEC92A;" d="M201.416,402.616c0,2.21-1.559,4.186-3.482,4.186h-51.909c-1.923,0-3.482-1.976-3.482-4.186
							l0,0c0-2.21,1.559-4.186,3.482-4.186h51.909C199.856,398.431,201.416,400.406,201.416,402.616L201.416,402.616z"/>
						<rect x="156.574" y="398.431" style="fill:#FFDC82;" width="8.371" height="8.371"/>
						<rect x="177.967" y="398.431" style="fill:#FFDC82;" width="4.651" height="8.371"/>
						<g style="opacity:0.5;">
							<path style="fill:#EEC92A;" d="M198.527,398.707c0.226,0.531,0.357,1.126,0.357,1.758c0,2.21-1.559,4.078-3.482,4.078
								c0,0-50.751,2.259-49.377,2.259h51.909c1.922,0,3.482-1.868,3.482-4.078C201.416,400.746,200.167,399.031,198.527,398.707z"
								/>
						</g>
					</g>
					<g>
						<path style="fill:#EEC92A;" d="M203.948,394.71c0,2.21-1.559,3.721-3.482,3.721h-51.909c-1.923,0-3.482-1.51-3.482-3.721l0,0
							c0-2.21,1.558-3.72,3.482-3.72h51.909C202.389,390.99,203.948,392.5,203.948,394.71L203.948,394.71z"/>
						<rect x="159.365" y="390.99" style="fill:#FFDC82;" width="8.371" height="7.441"/>
						<rect x="180.758" y="390.99" style="fill:#FFDC82;" width="3.72" height="7.441"/>
						<g style="opacity:0.5;">
							<path style="fill:#EEC92A;" d="M201.059,390.703c0.226,0.531,0.357,1.125,0.357,1.757c0,2.21-1.559,3.895-3.482,3.895
								c0,0-50.751,2.076-49.377,2.076h51.909c1.923,0,3.482-1.685,3.482-3.895C203.948,392.558,202.699,391.027,201.059,390.703z"
								/>
						</g>
					</g>
					<g>
						<path style="fill:#EEC92A;" d="M203.948,371.922c0,2.209-1.559,4.186-3.482,4.186h-51.909c-1.923,0-3.482-1.977-3.482-4.186
							l0,0c0-2.211,1.558-4.186,3.482-4.186h51.909C202.389,367.736,203.948,369.711,203.948,371.922L203.948,371.922z"/>
						<rect x="159.365" y="367.736" style="fill:#FFDC82;" width="8.371" height="8.371"/>
						<rect x="180.758" y="367.736" style="fill:#FFDC82;" width="3.72" height="8.371"/>
						<g style="opacity:0.5;">
							<path style="fill:#EEC92A;" d="M201.059,368.147c0.226,0.531,0.357,1.126,0.357,1.757c0,2.21-1.559,4.011-3.482,4.011
								c0,0-50.751,2.193-49.377,2.193h51.909c1.923,0,3.482-1.802,3.482-4.011C203.948,370.118,202.699,368.47,201.059,368.147z"/>
						</g>
					</g>
					<g>
						<path style="fill:#EEC92A;" d="M205.119,348.204c0,2.21-1.559,3.72-3.482,3.72h-51.909c-1.923,0-3.482-1.51-3.482-3.72l0,0
							c0-2.21,1.559-3.721,3.482-3.721h51.909C203.56,344.483,205.119,345.994,205.119,348.204L205.119,348.204z"/>
						<rect x="160.295" y="344.483" style="fill:#FFDC82;" width="8.371" height="7.441"/>
						<rect x="181.688" y="344.483" style="fill:#FFDC82;" width="4.651" height="7.441"/>
						<g style="opacity:0.5;">
							<path style="fill:#EEC92A;" d="M202.23,344.134c0.225,0.532,0.356,1.126,0.356,1.758c0,2.21-1.558,3.926-3.482,3.926
								c0,0-50.75,2.106-49.376,2.106h51.909c1.923,0,3.482-1.716,3.482-3.926C205.119,346.021,203.87,344.459,202.23,344.134z"/>
						</g>
					</g>
					<g>
						<path style="fill:#EEC92A;" d="M201.416,364.016c0,2.21-1.559,3.72-3.482,3.72h-51.909c-1.923,0-3.482-1.51-3.482-3.72l0,0
							c0-2.21,1.559-3.721,3.482-3.721h51.909C199.856,360.295,201.416,361.806,201.416,364.016L201.416,364.016z"/>
						<rect x="156.574" y="360.295" style="fill:#FFDC82;" width="8.371" height="7.441"/>
						<rect x="177.967" y="360.295" style="fill:#FFDC82;" width="4.651" height="7.441"/>
						<g style="opacity:0.5;">
							<path style="fill:#EEC92A;" d="M198.527,360.143c0.226,0.531,0.357,1.126,0.357,1.757c0,2.21-1.559,3.828-3.482,3.828
								c0,0-50.751,2.009-49.377,2.009h51.909c1.922,0,3.482-1.618,3.482-3.828C201.416,361.931,200.167,360.467,198.527,360.143z"
								/>
						</g>
					</g>
					<g>
						<path style="fill:#EEC92A;" d="M203.948,356.11c0,2.21-1.559,4.186-3.482,4.186h-51.909c-1.923,0-3.482-1.976-3.482-4.186l0,0
							c0-2.21,1.558-4.186,3.482-4.186h51.909C202.389,351.924,203.948,353.9,203.948,356.11L203.948,356.11z"/>
						<rect x="159.365" y="351.924" style="fill:#FFDC82;" width="8.371" height="8.371"/>
						<rect x="180.758" y="351.924" style="fill:#FFDC82;" width="3.72" height="8.371"/>
						<g style="opacity:0.5;">
							<path style="fill:#EEC92A;" d="M201.059,352.138c0.226,0.531,0.357,1.126,0.357,1.758c0,2.21-1.559,4.109-3.482,4.109
								c0,0-50.751,2.29-49.377,2.29h51.909c1.923,0,3.482-1.899,3.482-4.109C203.948,354.209,202.699,352.463,201.059,352.138z"/>
						</g>
					</g>
				</g>
				<g>
					<path style="fill:#3D3D3D;" d="M134.744,415.639c-0.287,0-0.578-0.054-0.861-0.166c-1.193-0.476-1.774-1.829-1.298-3.022
						L227.43,174.8c0.475-1.193,1.826-1.775,3.022-1.298c1.193,0.476,1.773,1.829,1.298,3.022l-94.844,237.65
						C136.542,415.085,135.668,415.639,134.744,415.639z"/>
				</g>
				<g>
					<path style="fill:#D6354C;" d="M247.727,409.092c-23.253,12.518-45.576,0-45.576,0v-50.658h45.576V409.092z"/>
					<g style="opacity:0.3;">
						<path style="fill:#D6354C;" d="M241.335,358.435l-13.316,32.218l13.316,13.329c-15.338,8.555-38.671,5.145-38.671,5.145
							s21.81,12.483,45.063-0.035v-50.658H241.335z"/>
					</g>
					<path style="fill:#D6354C;" d="M313.766,409.092c22.323,12.518,44.646,0,44.646,0v-50.658h-44.646V409.092z"/>
					<g style="opacity:0.3;">
						<path style="fill:#D6354C;" d="M319.891,358.435l7.572,33.424l-7.572,12.124c15.338,8.555,38.806,5.145,38.806,5.145
							s-22.607,12.483-44.93-0.035v-50.658H319.891z"/>
					</g>
					<g>
						<g>
							<path style="fill:#F16C7F;" d="M284.002,219.328v1.606c0,2.459-2.084,4.451-5.116,4.451c-3.032,0-5.116-1.992-5.116-4.451
								v-1.603c-51.157,2.748-91.113,43.076-91.113,92.429c0,51.133,43.072,92.584,96.331,92.584
								c53.257,0,96.208-41.452,96.208-92.584C375.196,262.388,335.159,222.047,284.002,219.328z"/>
						</g>
					</g>
					<g>
						<path style="fill:#D6354C;" d="M367.234,274.613c1.335,6.139,2.041,12.5,2.041,19.02c0,51.132-43.174,92.583-96.432,92.583
							c-39.495,0-73.44-22.8-88.348-55.437c9.136,42.008,47.923,73.565,94.391,73.565c53.258,0,96.432-41.452,96.432-92.584
							C375.318,298.548,372.428,285.985,367.234,274.613z"/>
					</g>
					<path d="M261.374,292.42c0,2.405-1.951,4.356-4.356,4.356c-2.405,0-4.355-1.951-4.355-4.356c0-2.405,1.95-4.356,4.355-4.356
						C259.422,288.063,261.374,290.014,261.374,292.42z"/>
					<path d="M303.672,292.42c0,2.405-1.951,4.356-4.355,4.356c-2.405,0-4.356-1.951-4.356-4.356c0-2.405,1.951-4.356,4.356-4.356
						C301.721,288.063,303.672,290.014,303.672,292.42z"/>
					<path style="fill:#D6354C;" d="M301.967,359.063c0,9.655-10.41,17.482-23.252,17.482c-12.843,0-23.253-7.827-23.253-17.482
						c0-9.656,10.41-17.483,23.253-17.483C291.556,341.58,301.967,349.407,301.967,359.063z"/>
					<g>
						<path style="fill:#C2132C;" d="M294.72,346.388c1.655,2.404,2.596,5.13,2.596,8.024c0,9.655-10.41,17.482-23.252,17.482
							c-6.205,0-11.837-1.83-16.007-4.808c3.868,5.617,11.664,9.458,20.658,9.458c12.842,0,23.252-7.827,23.252-17.482
							C301.967,354.072,299.181,349.573,294.72,346.388z"/>
					</g>
					<path style="fill:#D6354C;" d="M325.202,332.816c0,19.302-20.814,34.95-46.488,34.95c-25.676,0-46.489-15.648-46.489-34.95
						c0-19.304,20.813-34.952,46.489-34.952C304.388,297.864,325.202,313.513,325.202,332.816z"/>
					<g>
						<path style="fill:#C2132C;" d="M311.292,307.891c3.532,4.928,5.539,10.565,5.539,16.554c0,19.302-20.814,34.95-46.488,34.95
							c-12.692,0-24.19-3.828-32.58-10.027c7.849,10.953,23.242,18.398,40.951,18.398c25.674,0,46.488-15.648,46.488-34.95
							C325.202,323.055,319.874,314.232,311.292,307.891z"/>
					</g>
					<g>
						<path style="fill:#BA0C25;" d="M226.199,389.311c3.776,2.45,7.797,4.49,11.914,6.277c4.108,1.812,8.348,3.313,12.657,4.546
							c4.315,1.215,8.692,2.208,13.122,2.875c4.429,0.677,8.907,0.997,13.382,1.048c2.239,0.066,4.476-0.033,6.714-0.111
							c1.117-0.065,2.232-0.174,3.349-0.258c1.118-0.07,2.229-0.209,3.339-0.361c4.455-0.498,8.839-1.471,13.19-2.541
							c8.669-2.296,17.05-5.671,25.024-9.845c-1.974,1.077-3.924,2.212-5.938,3.219l-3.045,1.469l-1.525,0.732l-1.558,0.657
							l-3.126,1.296c-1.048,0.418-2.121,0.768-3.181,1.155c-2.112,0.803-4.288,1.407-6.451,2.061
							c-4.354,1.197-8.786,2.151-13.274,2.701c-1.119,0.161-2.24,0.309-3.368,0.388c-1.126,0.093-2.252,0.21-3.38,0.283
							c-2.259,0.094-4.519,0.211-6.782,0.156c-9.044-0.132-18.07-1.539-26.709-4.188
							C241.936,398.199,233.576,394.495,226.199,389.311z"/>
					</g>
					<g>
						<path style="fill:#C2132C;" d="M307.02,332.782c0,6.007-4.871,10.877-10.878,10.877c-6.008,0-10.877-4.871-10.877-10.877
							c0-6.008,4.87-10.878,10.877-10.878C302.149,321.904,307.02,326.774,307.02,332.782z"/>
						<g>
							<path style="fill:#B31128;" d="M303.346,324.647c1.701,1.92,2.743,4.438,2.743,7.205c0,6.007-4.87,10.877-10.878,10.877
								c-2.767,0-5.285-1.042-7.204-2.743c1.993,2.248,4.893,3.673,8.134,3.673c6.008,0,10.878-4.871,10.878-10.877
								C307.02,329.541,305.594,326.64,303.346,324.647z"/>
						</g>
					</g>
					<g>
						<path style="fill:#C2132C;" d="M268.884,332.782c0,6.007-4.871,10.877-10.878,10.877c-6.008,0-10.877-4.871-10.877-10.877
							c0-6.008,4.87-10.878,10.877-10.878C264.014,321.904,268.884,326.774,268.884,332.782z"/>
						<g>
							<path style="fill:#B31128;" d="M265.211,324.647c1.701,1.92,2.743,4.438,2.743,7.205c0,6.007-4.87,10.877-10.878,10.877
								c-2.767,0-5.285-1.042-7.204-2.743c1.993,2.248,4.893,3.673,8.134,3.673c6.008,0,10.878-4.871,10.878-10.877
								C268.884,329.541,267.459,326.64,265.211,324.647z"/>
						</g>
					</g>
					<path style="fill:#F16C7F;" d="M199.693,270.89c0,0-26.21-33.752,8.203-69.677c0,0,53.185,5.066,54.394,39.884L199.693,270.89z
						"/>
					<g style="opacity:0.3;">
						<path style="fill:#F15268;" d="M209.408,201.393c-0.967-0.127-1.512-0.18-1.512-0.18
							c-34.413,35.925-8.203,69.677-8.203,69.677l4.787-2.279C200.334,262.033,184.74,232.99,209.408,201.393z"/>
					</g>
					<path style="fill:#D6354C;" d="M207.47,263.674c0,0-18.539-24.869,5.715-51.274c0,0,37.552,3.785,38.443,29.413L207.47,263.674
						z"/>
					<path style="fill:#F16C7F;" d="M359.783,270.89c0,0,26.21-33.752-8.204-69.677c0,0-53.185,5.066-54.394,39.884L359.783,270.89z
						"/>
					<path style="fill:#D6354C;" d="M352.004,263.674c0,0,18.539-24.869-5.715-51.274c0,0-37.552,3.785-38.443,29.413
						L352.004,263.674z"/>
					<path style="fill:#C2132C;" d="M324.973,413.44c0,0,4.63-12.224,8.082-1.757c0,0,4.159-13.273,7.523-0.209
						c0,0,3.268-11.589,8.878,1.207C349.456,412.681,337.214,416.215,324.973,413.44z"/>
					<path style="fill:#C2132C;" d="M236.262,413.44c0,0-4.67-12.224-8.153-1.757c0,0-4.196-13.273-7.588-0.209
						c0,0-3.298-11.589-8.956,1.207C211.564,412.681,223.912,416.215,236.262,413.44z"/>
					
						<path style="opacity:0.2;fill:none;stroke:#FFFFFF;stroke-width:4;stroke-linecap:round;stroke-linejoin:round;stroke-miterlimit:10;" d="
						M303.312,309.139c3.336,1.348,8.096,3.837,11.599,7.989"/>
				</g>
				<g>
					<g>
						<path style="fill:#EEC92A;" d="M404.856,410.522c0,2.21-1.559,3.721-3.482,3.721h-51.909c-1.924,0-3.482-1.511-3.482-3.721
							l0,0c0-2.21,1.558-3.72,3.482-3.72h51.909C403.297,406.802,404.856,408.312,404.856,410.522L404.856,410.522z"/>
						<rect x="360.272" y="406.802" style="fill:#FFDC82;" width="8.371" height="7.441"/>
						<rect x="381.665" y="406.802" style="fill:#FFDC82;" width="3.72" height="7.441"/>
						<g style="opacity:0.5;">
							<path style="fill:#EEC92A;" d="M401.966,406.711c0.226,0.531,0.357,1.126,0.357,1.758c0,2.209-1.56,3.796-3.482,3.796
								c0,0-50.751,1.978-49.377,1.978h51.909c1.923,0,3.482-1.587,3.482-3.797C404.856,408.468,403.607,407.035,401.966,406.711z"
								/>
						</g>
					</g>
					<g>
						<path style="fill:#EEC92A;" d="M406.716,315.649c0,2.21-1.559,3.72-3.482,3.72h-51.909c-1.924,0-3.482-1.51-3.482-3.72l0,0
							c0-2.21,1.558-3.72,3.482-3.72h51.909C405.157,311.929,406.716,313.439,406.716,315.649L406.716,315.649z"/>
						<rect x="362.132" y="311.929" style="fill:#FFDC82;" width="8.371" height="7.441"/>
						<rect x="383.525" y="311.929" style="fill:#FFDC82;" width="3.72" height="7.441"/>
						<g style="opacity:0.5;">
							<path style="fill:#EEC92A;" d="M403.826,311.838c0.226,0.531,0.357,1.126,0.357,1.758c0,2.209-1.56,3.796-3.482,3.796
								c0,0-50.751,1.978-49.377,1.978h51.909c1.923,0,3.482-1.587,3.482-3.797C406.716,313.595,405.467,312.162,403.826,311.838z"
								/>
						</g>
					</g>
					<g>
						<path style="fill:#EEC92A;" d="M402.039,378.433c0,2.21-1.559,4.185-3.482,4.185h-51.909c-1.923,0-3.482-1.975-3.482-4.185
							l0,0c0-2.21,1.559-4.186,3.482-4.186h51.909C400.48,374.247,402.039,376.223,402.039,378.433L402.039,378.433z"/>
						<rect x="357.482" y="374.247" style="fill:#FFDC82;" width="8.371" height="8.371"/>
						<rect x="377.945" y="374.247" style="fill:#FFDC82;" width="4.651" height="8.371"/>
						<g style="opacity:0.5;">
							<path style="fill:#EEC92A;" d="M399.15,374.695c0.226,0.531,0.357,1.126,0.357,1.758c0,2.21-1.56,3.993-3.482,3.993
								c0,0-50.75,2.173-49.378,2.173h51.909c1.923,0,3.482-1.782,3.482-3.993C402.039,376.649,400.79,375.019,399.15,374.695z"/>
						</g>
					</g>
					<g>
						<path style="fill:#EEC92A;" d="M405.759,323.555c0,2.21-1.559,4.186-3.482,4.186h-51.909c-1.923,0-3.482-1.976-3.482-4.186
							l0,0c0-2.21,1.559-4.186,3.482-4.186h51.909C404.201,319.37,405.759,321.345,405.759,323.555L405.759,323.555z"/>
						<rect x="361.202" y="319.37" style="fill:#FFDC82;" width="8.371" height="8.371"/>
						<rect x="381.665" y="319.37" style="fill:#FFDC82;" width="4.651" height="8.371"/>
						<g style="opacity:0.5;">
							<path style="fill:#EEC92A;" d="M402.871,319.817c0.226,0.531,0.357,1.126,0.357,1.758c0,2.21-1.559,3.993-3.482,3.993
								c0,0-50.75,2.173-49.378,2.173h51.909c1.923,0,3.482-1.782,3.482-3.993C405.759,321.771,404.51,320.142,402.871,319.817z"/>
						</g>
					</g>
					<g>
						<path style="fill:#EEC92A;" d="M406.755,386.804c0,2.211-1.56,4.186-3.482,4.186h-51.909c-1.922,0-3.481-1.975-3.481-4.186
							l0,0c0-2.209,1.559-4.186,3.481-4.186h51.909C405.195,382.618,406.755,384.595,406.755,386.804L406.755,386.804z"/>
						<rect x="361.202" y="382.618" style="fill:#FFDC82;" width="9.301" height="8.371"/>
						<rect x="383.525" y="382.618" style="fill:#FFDC82;" width="4.651" height="8.371"/>
						<g style="opacity:0.5;">
							<path style="fill:#EEC92A;" d="M403.865,382.699c0.227,0.531,0.358,1.126,0.358,1.757c0,2.21-1.559,4.176-3.483,4.176
								c0,0-50.75,2.357-49.377,2.357h51.909c1.923,0,3.482-1.966,3.482-4.176C406.755,384.836,405.505,383.023,403.865,382.699z"/>
						</g>
					</g>
					<g>
						<path style="fill:#EEC92A;" d="M402.323,402.616c0,2.21-1.56,4.186-3.482,4.186h-51.909c-1.923,0-3.482-1.976-3.482-4.186l0,0
							c0-2.21,1.559-4.186,3.482-4.186h51.909C400.764,398.431,402.323,400.406,402.323,402.616L402.323,402.616z"/>
						<rect x="357.482" y="398.431" style="fill:#FFDC82;" width="8.371" height="8.371"/>
						<rect x="378.875" y="398.431" style="fill:#FFDC82;" width="4.651" height="8.371"/>
						<g style="opacity:0.5;">
							<path style="fill:#EEC92A;" d="M399.434,398.707c0.226,0.531,0.357,1.126,0.357,1.758c0,2.21-1.56,4.078-3.482,4.078
								c0,0-50.751,2.259-49.377,2.259h51.909c1.922,0,3.482-1.868,3.482-4.078C402.323,400.746,401.074,399.031,399.434,398.707z"
								/>
						</g>
					</g>
					<g>
						<path style="fill:#EEC92A;" d="M404.856,394.71c0,2.21-1.559,3.721-3.482,3.721h-51.909c-1.924,0-3.482-1.51-3.482-3.721l0,0
							c0-2.21,1.558-3.72,3.482-3.72h51.909C403.297,390.99,404.856,392.5,404.856,394.71L404.856,394.71z"/>
						<rect x="360.272" y="390.99" style="fill:#FFDC82;" width="8.371" height="7.441"/>
						<rect x="381.665" y="390.99" style="fill:#FFDC82;" width="3.72" height="7.441"/>
						<g style="opacity:0.5;">
							<path style="fill:#EEC92A;" d="M401.966,390.703c0.226,0.531,0.357,1.125,0.357,1.757c0,2.21-1.56,3.895-3.482,3.895
								c0,0-50.751,2.076-49.377,2.076h51.909c1.923,0,3.482-1.685,3.482-3.895C404.856,392.558,403.607,391.027,401.966,390.703z"
								/>
						</g>
					</g>
					<g>
						<path style="fill:#EEC92A;" d="M404.856,371.922c0,2.209-1.559,4.186-3.482,4.186h-51.909c-1.924,0-3.482-1.977-3.482-4.186
							l0,0c0-2.211,1.558-4.186,3.482-4.186h51.909C403.297,367.736,404.856,369.711,404.856,371.922L404.856,371.922z"/>
						<rect x="360.272" y="367.736" style="fill:#FFDC82;" width="8.371" height="8.371"/>
						<rect x="381.665" y="367.736" style="fill:#FFDC82;" width="3.72" height="8.371"/>
						<g style="opacity:0.5;">
							<path style="fill:#EEC92A;" d="M401.966,368.147c0.226,0.531,0.357,1.126,0.357,1.757c0,2.21-1.56,4.011-3.482,4.011
								c0,0-50.751,2.193-49.377,2.193h51.909c1.923,0,3.482-1.802,3.482-4.011C404.856,370.118,403.607,368.47,401.966,368.147z"/>
						</g>
					</g>
					<g>
						<path style="fill:#EEC92A;" d="M404.856,340.297c0,2.209-1.559,4.186-3.482,4.186h-51.909c-1.924,0-3.482-1.977-3.482-4.186
							l0,0c0-2.211,1.558-4.185,3.482-4.185h51.909C403.297,336.112,404.856,338.087,404.856,340.297L404.856,340.297z"/>
						<rect x="360.272" y="336.112" style="fill:#FFDC82;" width="8.371" height="8.371"/>
						<rect x="381.665" y="336.112" style="fill:#FFDC82;" width="3.72" height="8.371"/>
						<g style="opacity:0.5;">
							<path style="fill:#EEC92A;" d="M401.966,336.522c0.226,0.531,0.357,1.126,0.357,1.757c0,2.21-1.56,4.011-3.482,4.011
								c0,0-50.751,2.193-49.377,2.193h51.909c1.923,0,3.482-1.802,3.482-4.011C404.856,338.494,403.607,336.846,401.966,336.522z"
								/>
						</g>
					</g>
					<g>
						<path style="fill:#EEC92A;" d="M403.925,307.743c0,2.209-1.559,4.186-3.482,4.186h-51.909c-1.924,0-3.482-1.977-3.482-4.186
							l0,0c0-2.211,1.558-4.186,3.482-4.186h51.909C402.367,303.557,403.925,305.532,403.925,307.743L403.925,307.743z"/>
						<rect x="359.342" y="303.557" style="fill:#FFDC82;" width="8.371" height="8.371"/>
						<rect x="380.735" y="303.557" style="fill:#FFDC82;" width="3.721" height="8.371"/>
						<g style="opacity:0.5;">
							<path style="fill:#EEC92A;" d="M401.036,303.968c0.226,0.531,0.357,1.126,0.357,1.757c0,2.21-1.56,4.011-3.482,4.011
								c0,0-50.751,2.193-49.377,2.193h51.909c1.923,0,3.482-1.802,3.482-4.011C403.925,305.939,402.676,304.292,401.036,303.968z"
								/>
						</g>
					</g>
					<g>
						<path style="fill:#EEC92A;" d="M406.026,348.204c0,2.21-1.559,3.72-3.482,3.72h-51.908c-1.924,0-3.483-1.51-3.483-3.72l0,0
							c0-2.21,1.559-3.721,3.483-3.721h51.908C404.468,344.483,406.026,345.994,406.026,348.204L406.026,348.204z"/>
						<rect x="361.202" y="344.483" style="fill:#FFDC82;" width="8.371" height="7.441"/>
						<rect x="382.595" y="344.483" style="fill:#FFDC82;" width="4.651" height="7.441"/>
						<g style="opacity:0.5;">
							<path style="fill:#EEC92A;" d="M403.138,344.134c0.225,0.532,0.356,1.126,0.356,1.758c0,2.21-1.559,3.926-3.482,3.926
								c0,0-50.75,2.106-49.376,2.106h51.908c1.923,0,3.482-1.716,3.482-3.926C406.026,346.021,404.777,344.459,403.138,344.134z"/>
						</g>
					</g>
					<g>
						<path style="fill:#EEC92A;" d="M402.323,364.016c0,2.21-1.56,3.72-3.482,3.72h-51.909c-1.923,0-3.482-1.51-3.482-3.72l0,0
							c0-2.21,1.559-3.721,3.482-3.721h51.909C400.764,360.295,402.323,361.806,402.323,364.016L402.323,364.016z"/>
						<rect x="357.482" y="360.295" style="fill:#FFDC82;" width="8.371" height="7.441"/>
						<rect x="378.875" y="360.295" style="fill:#FFDC82;" width="4.651" height="7.441"/>
						<g style="opacity:0.5;">
							<path style="fill:#EEC92A;" d="M399.434,360.143c0.226,0.531,0.357,1.126,0.357,1.757c0,2.21-1.56,3.828-3.482,3.828
								c0,0-50.751,2.009-49.377,2.009h51.909c1.922,0,3.482-1.618,3.482-3.828C402.323,361.931,401.074,360.467,399.434,360.143z"
								/>
						</g>
					</g>
					<g>
						<path style="fill:#EEC92A;" d="M404.856,356.11c0,2.21-1.559,4.186-3.482,4.186h-51.909c-1.924,0-3.482-1.976-3.482-4.186l0,0
							c0-2.21,1.558-4.186,3.482-4.186h51.909C403.297,351.924,404.856,353.9,404.856,356.11L404.856,356.11z"/>
						<rect x="360.272" y="351.924" style="fill:#FFDC82;" width="8.371" height="8.371"/>
						<rect x="381.665" y="351.924" style="fill:#FFDC82;" width="3.72" height="8.371"/>
						<g style="opacity:0.5;">
							<path style="fill:#EEC92A;" d="M401.966,352.138c0.226,0.531,0.357,1.126,0.357,1.758c0,2.21-1.56,4.109-3.482,4.109
								c0,0-50.751,2.29-49.377,2.29h51.909c1.923,0,3.482-1.899,3.482-4.109C404.856,354.209,403.607,352.463,401.966,352.138z"/>
						</g>
					</g>
					<g>
						<path style="fill:#EEC92A;" d="M402.065,331.926c0,2.21-1.559,4.186-3.482,4.186h-51.909c-1.924,0-3.482-1.976-3.482-4.186
							l0,0c0-2.21,1.558-4.186,3.482-4.186h51.909C400.507,327.741,402.065,329.716,402.065,331.926L402.065,331.926z"/>
						<rect x="357.482" y="327.741" style="fill:#FFDC82;" width="8.371" height="8.371"/>
						<rect x="378.875" y="327.741" style="fill:#FFDC82;" width="3.72" height="8.371"/>
						<g style="opacity:0.5;">
							<path style="fill:#EEC92A;" d="M399.176,327.955c0.226,0.531,0.357,1.126,0.357,1.758c0,2.21-1.56,4.109-3.482,4.109
								c0,0-50.751,2.29-49.377,2.29h51.909c1.923,0,3.482-1.899,3.482-4.109C402.065,330.025,400.816,328.28,399.176,327.955z"/>
						</g>
					</g>
				</g>
				<g>
					<g>
						<path style="fill:#EEC92A;" d="M317.424,412.382c0,2.21-1.559,3.721-3.482,3.721h-51.909c-1.924,0-3.482-1.51-3.482-3.721l0,0
							c0-2.21,1.558-3.72,3.482-3.72h51.909C315.865,408.662,317.424,410.172,317.424,412.382L317.424,412.382z"/>
						<rect x="272.84" y="408.662" style="fill:#FFDC82;" width="8.371" height="7.441"/>
						<rect x="294.233" y="408.662" style="fill:#FFDC82;" width="3.72" height="7.441"/>
						<g style="opacity:0.5;">
							<path style="fill:#EEC92A;" d="M314.534,408.571c0.226,0.531,0.357,1.126,0.357,1.758c0,2.209-1.56,3.796-3.482,3.796
								c0,0-50.751,1.978-49.377,1.978h51.909c1.923,0,3.482-1.587,3.482-3.797C317.424,410.329,316.175,408.895,314.534,408.571z"
								/>
						</g>
					</g>
					<g>
						<path style="fill:#EEC92A;" d="M319.323,388.664c0,2.211-1.56,4.185-3.483,4.185h-51.909c-1.922,0-3.481-1.975-3.481-4.185
							l0,0c0-2.209,1.559-4.186,3.481-4.186h51.909C317.763,384.479,319.323,386.455,319.323,388.664L319.323,388.664z"/>
						<rect x="273.77" y="384.479" style="fill:#FFDC82;" width="9.301" height="8.371"/>
						<rect x="296.093" y="384.479" style="fill:#FFDC82;" width="4.651" height="8.371"/>
						<g style="opacity:0.5;">
							<path style="fill:#EEC92A;" d="M316.433,384.559c0.227,0.531,0.358,1.126,0.358,1.757c0,2.21-1.559,4.176-3.482,4.176
								c0,0-50.75,2.357-49.377,2.357h51.909c1.923,0,3.483-1.966,3.483-4.176C319.323,386.697,318.073,384.884,316.433,384.559z"/>
						</g>
					</g>
					<g>
						<path style="fill:#EEC92A;" d="M314.891,404.476c0,2.21-1.56,4.186-3.482,4.186H259.5c-1.923,0-3.482-1.976-3.482-4.186l0,0
							c0-2.21,1.559-4.185,3.482-4.185h51.909C313.332,400.291,314.891,402.266,314.891,404.476L314.891,404.476z"/>
						<rect x="270.05" y="400.291" style="fill:#FFDC82;" width="8.371" height="8.371"/>
						<rect x="291.443" y="400.291" style="fill:#FFDC82;" width="4.651" height="8.371"/>
						<g style="opacity:0.5;">
							<path style="fill:#EEC92A;" d="M312.002,400.567c0.226,0.531,0.357,1.126,0.357,1.758c0,2.21-1.56,4.078-3.482,4.078
								c0,0-50.751,2.259-49.377,2.259h51.909c1.922,0,3.482-1.868,3.482-4.078C314.891,402.606,313.642,400.891,312.002,400.567z"
								/>
						</g>
					</g>
					<g>
						<path style="fill:#EEC92A;" d="M317.424,396.57c0,2.21-1.559,3.72-3.482,3.72h-51.909c-1.924,0-3.482-1.511-3.482-3.72l0,0
							c0-2.21,1.558-3.721,3.482-3.721h51.909C315.865,392.85,317.424,394.36,317.424,396.57L317.424,396.57z"/>
						<rect x="272.84" y="392.85" style="fill:#FFDC82;" width="8.371" height="7.441"/>
						<rect x="294.233" y="392.85" style="fill:#FFDC82;" width="3.72" height="7.441"/>
						<g style="opacity:0.5;">
							<path style="fill:#EEC92A;" d="M314.534,392.564c0.226,0.531,0.357,1.125,0.357,1.757c0,2.21-1.56,3.895-3.482,3.895
								c0,0-50.751,2.076-49.377,2.076h51.909c1.923,0,3.482-1.685,3.482-3.895C317.424,394.418,316.175,392.887,314.534,392.564z"
								/>
						</g>
					</g>
				</g>
				<g>
					<path style="fill:#FFF1E3;" d="M361.126,251.805c0,0-9.07,13.927-10.785,23.849c0,0-1.834,6.666,26.673,15.01l0.265-2.542
						c0,0-10.089-11.63-18.5-14.572c0,0,8.159-15.568,8.934-17.428L361.126,251.805z"/>
					<path style="fill:#FFF1E3;" d="M393.444,251.805c0,0,9.07,13.927,10.785,23.849c0,0,1.834,6.666-26.673,15.01l-0.265-2.542
						c0,0,10.089-11.63,18.5-14.572c0,0-8.159-15.568-8.933-17.428L393.444,251.805z"/>
					<g>
						<path style="fill:#D6A118;" d="M419.858,293.545c0,1.808-3.532,2.882-8.274,2.882c-4.744,0-7.8-0.705-7.8-2.512
							c0-1.81,1.505-3.251,6.249-3.251C414.776,290.664,419.858,291.735,419.858,293.545z"/>
						<path style="fill:#FFCB94;" d="M414.859,293.68c0,1.166-2.827,2.113-5.43,2.113s-4.714-0.946-4.714-2.112
							c0-1.167,2.111-2.113,4.714-2.113S414.859,292.514,414.859,293.68z"/>
					</g>
					<g>
						<path style="fill:#D6A118;" d="M368.086,363.394c-1.694-0.632-1.465-4.316,0.193-8.76c1.66-4.444,3.388-7.06,5.082-6.428
							c1.696,0.633,2.519,2.547,0.859,6.991C372.562,359.64,369.781,364.027,368.086,363.394z"/>
						<path style="fill:#FFCB94;" d="M369.707,358.662c-1.093-0.408-0.99-3.387-0.08-5.826c0.91-2.439,2.534-4.086,3.627-3.678
							c1.094,0.409,1.242,2.717,0.331,5.156C372.674,356.753,370.8,359.07,369.707,358.662z"/>
					</g>
					<path style="fill:#834A94;" d="M365.076,218.478c0,0-4.032,31.289,0,45.453c0,0,12.04,4.354,24.546-0.972
						c0,0,0.599-32.77-1.063-41.836L365.076,218.478z"/>
					<path style="fill:#73C497;" d="M374.835,245.486c-10.377,3.194-12.579,2.806-16.636,11.332
						c-0.584,1.227,4.524,9.164,4.524,9.164s2.329-5.631,2.029-5.144c-1.179,1.911-3.59,7.046,1.28,11.237
						c6.466,5.565,2.813,27.517,2.813,27.517s15.334,4.979,23.4,0c0,0-4.469-25.038-1.789-29.234
						c3.301-5.168-0.733-9.468-0.733-9.468l1.527,4.165l6.34-7.41c0,0-1.848-5.128-4.927-7.583
						c-3.635-2.897-10.875-3.663-10.875-3.663C379.72,245.934,376.944,244.837,374.835,245.486z"/>
					<path style="fill:#FFEAD3;" d="M370.472,239.223l1.21,7.494c0,0,5.052,10.13,10.391-0.243l0.715-9.405
						C382.788,237.068,373.145,230.81,370.472,239.223z"/>
					<path style="fill:#E03564;" d="M358.78,296.776c0,0,3.232,9.572,17.491,6.781c0,0,7.664,2.213,14.918-1.103
						c7.255-3.315,5.716-9.361-5.496-11.222C385.693,291.233,360.871,287.673,358.78,296.776z"/>
					<path style="fill:#691E63;" d="M396.547,295.68c0,1.269-1.028,2.297-2.297,2.297h-34.471c-1.269,0-2.297-1.028-2.297-2.297
						V273.3c0-1.268,1.028-2.297,2.297-2.297h34.471c1.269,0,2.297,1.029,2.297,2.297V295.68z"/>
					<path style="fill:#F15268;" d="M355.329,295.84c-4.175,2.862-6.445,8.926-1.371,11.857c6.349,3.666,52.82-11.58,52.82-11.58
						v-5.197C357.482,293.438,355.612,295.647,355.329,295.84z"/>
					<path style="fill:#F15268;" d="M383.611,301.819c3.524-3.632,9.887-4.867,11.921,0.629c2.546,6.876-18.764,44.478-20.214,48.46
						l-4.814-0.979C378.05,311.776,383.371,302.067,383.611,301.819z"/>
					<path style="fill:#FFF1E3;" d="M388.08,225.628c0,6.523-5.288,18.467-11.811,18.467c-6.523,0-11.811-11.944-11.811-18.467
						c0-6.523,5.288-11.811,11.811-11.811C382.791,213.817,388.08,219.105,388.08,225.628z"/>
					<path style="fill:#FFF1E3;" d="M384.622,227.25c-0.39,1.678-0.148,5.754,1.206,6.237c2.45,0.875,3.305-2.81,3.694-4.488
						c0.39-1.678-0.392-3.429-1.745-3.913C386.424,224.603,385.01,225.573,384.622,227.25z"/>
					<path style="fill:#FFF1E3;" d="M368.061,227.25c0.39,1.678,0.148,5.754-1.206,6.237c-2.45,0.875-3.304-2.81-3.694-4.488
						c-0.39-1.678,0.392-3.429,1.745-3.913C366.259,224.603,367.672,225.573,368.061,227.25z"/>
					<path style="fill:#834A94;" d="M385.325,217.222c-2.729,16.576-18.941,3.244-20.508,10.817
						c0.082-0.395-0.404-1.364-0.493-1.752c-0.333-1.441-0.538-2.925-0.492-4.406c0.153-4.863,3.599-8.977,8.229-10.316
						c2.285-0.661,4.792-0.811,7.138-0.395c1.61,0.285,3.28,0.807,4.598,1.802C384.88,213.79,385.615,215.459,385.325,217.222z"/>
					<path style="fill:#834A94;" d="M383.874,216.939c0,0,2.138,1.949,4,9.999C387.874,226.938,391.113,215.793,383.874,216.939z"/>
				</g>
			</g>
			<g>
				<path style="fill:#EEC92A;" d="M278.725,155.53c2.211,0,4.186,1.56,4.186,3.482v51.909c0,1.922-1.975,3.481-4.186,3.481l0,0
					c-2.209,0-4.186-1.559-4.186-3.481v-51.909C274.54,157.09,276.516,155.53,278.725,155.53L278.725,155.53z"/>
				<rect x="274.54" y="191.781" style="fill:#FFDC82;" width="8.371" height="9.301"/>
				<rect x="274.54" y="174.109" style="fill:#FFDC82;" width="8.371" height="4.651"/>
				<g style="opacity:0.5;">
					<path style="fill:#EEC92A;" d="M274.62,158.42c0.531-0.227,1.126-0.358,1.757-0.358c2.21,0,4.176,1.559,4.176,3.483
						c0,0,2.357,50.75,2.357,49.377v-51.909c0-1.923-1.966-3.482-4.176-3.482C276.758,155.53,274.945,156.78,274.62,158.42z"/>
				</g>
			</g>
			<g>
				<polygon style="fill:#FFFFFF;" points="232.845,117.423 234.16,122.728 239.464,124.043 234.16,125.358 232.845,130.663 
					231.529,125.358 226.225,124.043 231.529,122.728 				"/>
				<polygon style="fill:#FFFFFF;" points="430.896,148.91 432.211,154.215 437.515,155.53 432.211,156.846 430.896,162.15 
					429.58,156.846 424.276,155.53 429.58,154.215 				"/>
				<polyline style="fill:#FFFFFF;" points="159.185,126.708 158.434,129.732 157.684,126.708 154.66,125.958 157.684,125.207 
					158.434,122.183 159.185,125.207 				"/>
				<polygon style="fill:#FFFFFF;" points="69.142,169.51 70.458,174.815 75.762,176.13 70.458,177.445 69.142,182.75 
					67.827,177.445 62.523,176.13 67.827,174.815 				"/>
				<polygon style="fill:#FFFFFF;" points="386.316,347.283 387.631,352.587 392.935,353.903 387.631,355.218 386.316,360.522 
					385,355.218 379.696,353.903 385,352.587 				"/>
				<polygon style="fill:#FFFFFF;" points="396.916,360.78 397.943,364.923 402.086,365.95 397.943,366.978 396.916,371.12 
					395.889,366.978 391.746,365.95 395.889,364.923 				"/>
				<polygon style="fill:#FFFFFF;" points="360.272,390.99 361.141,394.494 364.646,395.363 361.141,396.232 360.272,399.737 
					359.403,396.232 355.898,395.363 359.403,394.494 				"/>
				<polygon style="fill:#FFFFFF;" points="270.05,402.972 270.8,405.997 273.825,406.747 270.8,407.497 270.05,410.522 
					269.3,407.497 266.275,406.747 269.3,405.997 				"/>
				<polygon style="fill:#FFFFFF;" points="284.932,406.693 285.682,409.718 288.707,410.468 285.682,411.218 284.932,414.243 
					284.182,411.218 281.157,410.468 284.182,409.718 				"/>
				<polygon style="fill:#FFFFFF;" points="175.683,376.94 176.433,379.965 179.458,380.715 176.433,381.465 175.683,384.49 
					174.932,381.465 171.908,380.715 174.932,379.965 				"/>
				<polygon style="fill:#FFFFFF;" points="163.085,383.44 164.4,388.744 169.705,390.059 164.4,391.375 163.085,396.679 
					161.77,391.375 156.465,390.059 161.77,388.744 				"/>
				<polygon style="fill:#FFFFFF;" points="232.225,423.806 233.541,429.111 238.845,430.426 233.541,431.741 232.225,437.046 
					230.91,431.741 225.605,430.426 230.91,429.111 				"/>
				<polygon style="fill:#FFFFFF;" points="51.506,277.338 52.349,280.736 55.746,281.578 52.349,282.421 51.506,285.818 
					50.664,282.421 47.266,281.578 50.664,280.736 				"/>
				<polygon style="fill:#FFFFFF;" points="58.947,290.251 60.263,295.556 65.567,296.871 60.263,298.186 58.947,303.491 
					57.632,298.186 52.327,296.871 57.632,295.556 				"/>
			</g>
		</g>
		<polygon style="fill:#FFFFFF;" points="338.455,115.575 339.205,118.599 342.23,119.349 339.205,120.1 338.455,123.124 
			337.705,120.1 334.68,119.349 337.705,118.599 		"/>
	</g>
</g>
<g id="DESIGNED_BY_FREEPIK">
	<g>
		<path style="fill:#112129;" d="M261.618,466.39c-0.433,0.442-0.804,0.932-1.108,1.452l-0.465-0.24
			c-0.068-0.297-0.351-0.502-0.659-0.467c-0.331,0.039-0.568,0.34-0.53,0.671c0.039,0.33,0.339,0.566,0.67,0.527
			c0.066-0.007,0.127-0.024,0.185-0.051l0.45,0.234c-0.251,0.554-0.433,1.139-0.538,1.742l0.746,0.133
			c0.23-1.307,0.851-2.508,1.792-3.474L261.618,466.39z"/>
		<path style="fill:#112129;" d="M267.105,464.087c-0.171,0-0.341,0.007-0.509,0.018l-0.074-0.626
			c0.188-0.15,0.297-0.389,0.267-0.645c-0.046-0.392-0.403-0.674-0.795-0.628c-0.395,0.046-0.675,0.403-0.628,0.796
			c0.029,0.255,0.189,0.461,0.403,0.564l0.073,0.625c-0.714,0.116-1.402,0.332-2.059,0.645l0.327,0.685
			c0.934-0.448,1.94-0.674,2.994-0.674c0.497,0,0.993,0.053,1.477,0.157l0.16-0.74C268.207,464.147,267.657,464.087,267.105,464.087
			"/>
		<path style="fill:#112129;" d="M273.709,466.635c0.33-0.04,0.565-0.342,0.524-0.673c-0.04-0.331-0.34-0.565-0.672-0.524
			c-0.309,0.038-0.535,0.303-0.53,0.607l-0.416,0.363c-0.418-0.429-0.889-0.811-1.406-1.139l-0.404,0.641
			c1.134,0.715,2.02,1.728,2.563,2.925l0.691-0.312c-0.251-0.554-0.568-1.072-0.943-1.545l0.403-0.351
			C273.579,466.64,273.644,466.644,273.709,466.635"/>
		<path style="fill:#112129;" d="M266.56,474.295c-0.387,0.023-0.775,0.035-1.157,0.035c-0.88,0-1.734-0.06-2.479-0.18
			c-0.39-0.061-0.846-0.154-1.27-0.292c1.047,1.862,3.068,3.125,5.388,3.125c2.857,0,5.263-1.916,5.95-4.502
			c-0.682,0.449-1.505,0.825-2.458,1.122C269.353,473.972,267.978,474.21,266.56,474.295"/>
		<path style="fill:#112129;" d="M267.106,465.604c-3.352,0-6.079,2.666-6.079,5.943c0,0.425,0.046,0.849,0.136,1.261
			c0.674,0.482,2.707,0.89,5.348,0.73c2.88-0.174,5.297-0.958,6.672-2.158c-0.005-0.194-0.02-0.391-0.045-0.581
			C272.758,467.838,270.164,465.604,267.106,465.604 M264.947,472.118c-1.021,0-1.851-0.83-1.851-1.849
			c0-1.022,0.83-1.852,1.851-1.852c1.018,0,1.849,0.83,1.849,1.852C266.796,471.288,265.966,472.118,264.947,472.118
			 M269.685,471.21c-0.75,0-1.36-0.609-1.36-1.359s0.61-1.361,1.36-1.361s1.359,0.611,1.359,1.361S270.435,471.21,269.685,471.21"/>
		<path style="fill:#112129;" d="M283.11,467.472c-0.296-0.116-0.807-0.311-1.384-0.238c-0.551,0.068-0.844,0.34-0.844,1.006v0.867
			h2.23v1.717h-2.23v5.455h-1.931v-5.455h-1.339v-1.717h1.339v-0.89c0-1.68,0.895-2.781,2.567-2.781
			c0.644,0,1.157,0.121,1.591,0.307V467.472z"/>
		<path style="fill:#112129;" d="M287.811,470.802c-0.177-0.028-0.356-0.046-0.524-0.046c-0.896,0-1.51,0.549-1.51,1.613v3.909
			h-1.934v-7.172h1.873v0.784c0.451-0.674,1.141-0.978,2.021-0.978c0.414,0,0.847,0.128,1.095,0.337L287.811,470.802z"/>
		<path style="fill:#112129;" d="M295.479,472.681c0,0.223-0.015,0.488-0.037,0.651h-5.085c0.207,1.037,0.934,1.488,1.844,1.488
			c0.621,0,1.295-0.252,1.813-0.689l1.133,1.243c-0.813,0.748-1.85,1.089-3.056,1.089c-2.199,0-3.725-1.496-3.725-3.753
			c0-2.257,1.482-3.797,3.628-3.797C294.058,468.913,295.473,470.446,295.479,472.681 M290.366,472.015h3.175
			c-0.179-0.918-0.733-1.436-1.563-1.436C291.068,470.578,290.536,471.126,290.366,472.015"/>
		<path style="fill:#112129;" d="M303.133,472.681c0,0.223-0.015,0.488-0.037,0.651h-5.085c0.207,1.037,0.934,1.488,1.844,1.488
			c0.621,0,1.296-0.252,1.813-0.689l1.133,1.243c-0.814,0.748-1.85,1.089-3.057,1.089c-2.199,0-3.724-1.496-3.724-3.753
			c0-2.257,1.482-3.797,3.628-3.797C301.711,468.913,303.126,470.446,303.133,472.681 M298.019,472.015h3.176
			c-0.179-0.918-0.734-1.436-1.563-1.436C298.722,470.578,298.189,471.126,298.019,472.015"/>
		<path style="fill:#112129;" d="M311.479,472.689c0,2.153-1.495,3.774-3.473,3.774c-0.962,0-1.644-0.378-2.108-0.932v3.708h-1.925
			v-10.133h1.888v0.792c0.466-0.585,1.154-0.984,2.138-0.984C309.984,468.914,311.479,470.535,311.479,472.689 M305.802,472.689
			c0,1.133,0.748,1.977,1.844,1.977c1.139,0,1.849-0.881,1.849-1.977s-0.71-1.977-1.849-1.977
			C306.55,470.712,305.802,471.556,305.802,472.689"/>
		<path style="fill:#112129;" d="M314.583,466.759c0,0.697-0.541,1.23-1.237,1.23c-0.696,0-1.228-0.533-1.228-1.23
			c0-0.694,0.531-1.243,1.228-1.243C314.042,465.516,314.583,466.065,314.583,466.759 M314.323,476.278h-1.933v-7.172h1.933V476.278
			z"/>
		<polygon style="fill:#112129;" points="317.547,471.66 320.248,469.105 322.616,469.105 319.139,472.48 322.64,476.277 
			320.264,476.277 317.547,473.377 317.547,476.277 315.614,476.277 315.614,465.62 317.547,465.62 		"/>
		<path style="fill:#112129;" d="M185.927,476.214v-1.056c-0.527,0.718-1.391,1.231-2.387,1.231c-1.846,0-3.15-1.406-3.15-3.706
			c0-2.256,1.289-3.722,3.15-3.722c0.952,0,1.816,0.47,2.387,1.245v-3.765h1.099v9.771H185.927z M185.927,474.294v-3.208
			c-0.395-0.614-1.245-1.143-2.124-1.143c-1.42,0-2.27,1.172-2.27,2.74c0,1.566,0.85,2.724,2.27,2.724
			C184.682,475.407,185.532,474.909,185.927,474.294"/>
		<path style="fill:#112129;" d="M188.446,472.669c0-2.052,1.465-3.706,3.487-3.706c2.138,0,3.398,1.67,3.398,3.794v0.277h-5.727
			c0.087,1.333,1.025,2.446,2.548,2.446c0.806,0,1.626-0.322,2.183-0.893l0.527,0.718c-0.703,0.703-1.655,1.084-2.812,1.084
			C189.955,476.39,188.446,474.881,188.446,472.669 M191.918,469.87c-1.509,0-2.256,1.274-2.314,2.358h4.643
			C194.232,471.175,193.529,469.87,191.918,469.87"/>
		<path style="fill:#112129;" d="M196.122,475.276l0.571-0.791c0.469,0.542,1.363,1.011,2.329,1.011c1.084,0,1.67-0.514,1.67-1.216
			c0-1.715-4.38-0.659-4.38-3.281c0-1.1,0.952-2.037,2.637-2.037c1.201,0,2.051,0.455,2.622,1.026l-0.513,0.762
			c-0.424-0.513-1.201-0.895-2.109-0.895c-0.967,0-1.567,0.483-1.567,1.113c0,1.553,4.379,0.528,4.379,3.282
			c0,1.185-0.952,2.138-2.783,2.138C197.821,476.389,196.84,476.038,196.122,475.276"/>
		<path style="fill:#112129;" d="M202.992,467.395c0-0.409,0.337-0.746,0.732-0.746c0.41,0,0.747,0.337,0.747,0.746
			c0,0.41-0.337,0.733-0.747,0.733C203.329,468.127,202.992,467.805,202.992,467.395 M203.182,469.138h1.099v7.075h-1.099V469.138z"
			/>
		<path style="fill:#112129;" d="M206.097,478.03l0.556-0.821c0.586,0.703,1.289,0.967,2.3,0.967c1.171,0,2.27-0.57,2.27-2.124
			v-1.011c-0.513,0.718-1.377,1.26-2.373,1.26c-1.846,0-3.149-1.377-3.149-3.661c0-2.271,1.289-3.678,3.149-3.678
			c0.952,0,1.802,0.47,2.373,1.245v-1.068h1.099v6.869c0,2.345-1.641,3.076-3.369,3.076
			C207.751,479.084,206.931,478.85,206.097,478.03 M211.223,474.177v-3.091c-0.381-0.614-1.23-1.142-2.109-1.142
			c-1.421,0-2.27,1.128-2.27,2.695c0,1.553,0.849,2.694,2.27,2.694C209.993,475.334,210.842,474.792,211.223,474.177"/>
		<path style="fill:#112129;" d="M218.928,476.214v-4.63c0-1.244-0.63-1.641-1.582-1.641c-0.864,0-1.685,0.528-2.094,1.099v5.172
			h-1.099v-7.075h1.099v1.024c0.496-0.586,1.464-1.201,2.518-1.201c1.479,0,2.256,0.747,2.256,2.285v4.967H218.928z"/>
		<path style="fill:#112129;" d="M221.446,472.669c0-2.052,1.465-3.706,3.487-3.706c2.138,0,3.398,1.67,3.398,3.794v0.277h-5.727
			c0.088,1.333,1.025,2.446,2.548,2.446c0.806,0,1.626-0.322,2.183-0.893l0.527,0.718c-0.703,0.703-1.655,1.084-2.812,1.084
			C222.956,476.39,221.446,474.881,221.446,472.669 M224.918,469.87c-1.509,0-2.256,1.274-2.314,2.358h4.643
			C227.232,471.175,226.529,469.87,224.918,469.87"/>
		<path style="fill:#112129;" d="M234.865,476.214v-1.056c-0.527,0.718-1.392,1.231-2.388,1.231c-1.845,0-3.149-1.406-3.149-3.706
			c0-2.256,1.288-3.722,3.149-3.722c0.952,0,1.817,0.47,2.388,1.245v-3.765h1.098v9.771H234.865z M234.865,474.294v-3.208
			c-0.396-0.614-1.245-1.143-2.124-1.143c-1.421,0-2.271,1.172-2.271,2.74c0,1.566,0.85,2.724,2.271,2.724
			C233.62,475.407,234.469,474.909,234.865,474.294"/>
		<path style="fill:#112129;" d="M241.206,476.214v-9.771h1.099v3.766c0.571-0.777,1.421-1.245,2.387-1.245
			c1.846,0,3.15,1.465,3.15,3.72c0,2.3-1.304,3.707-3.15,3.707c-0.996,0-1.86-0.513-2.387-1.23v1.055H241.206z M244.415,475.407
			c1.436,0,2.285-1.156,2.285-2.725c0-1.567-0.849-2.739-2.285-2.739c-0.864,0-1.729,0.528-2.109,1.144v3.208
			C242.686,474.91,243.55,475.407,244.415,475.407"/>
		<path style="fill:#112129;" d="M249.043,477.985c0.161,0.073,0.425,0.117,0.601,0.117c0.483,0,0.805-0.161,1.054-0.747
			l0.469-1.068l-2.959-7.149h1.187l2.358,5.801l2.344-5.801h1.2l-3.544,8.511c-0.425,1.025-1.143,1.421-2.08,1.437
			c-0.234,0-0.601-0.044-0.806-0.104L249.043,477.985z"/>
	</g>
</g>
</svg>
