<svg width="863" height="715" viewBox="0 0 863 715" fill="none" xmlns="http://www.w3.org/2000/svg">
<path d="M118.728 653.089C118.728 653.089 5.26613 694.48 58.9812 552.34C112.696 410.2 -55.4596 253.915 66.2926 173.066C188.045 92.2183 295.726 281.163 414.152 191.214C532.578 101.266 599.726 -97.4945 726.698 57.759C853.669 213.013 913.155 361.694 807.765 460.021C702.374 558.349 903.792 590.451 702.301 676.401C500.809 762.351 326.823 673.858 253.425 676.401C180.024 678.945 118.728 653.089 118.728 653.089Z" fill="#FECBCB"/>
<path d="M691.056 660.807C691.056 660.807 737.787 670.475 768.403 625.355C799.021 580.235 842.528 599.573 857.03 544.785C871.532 489.997 852.196 401.371 828.025 428.764C803.855 456.157 808.689 502.888 776.46 525.449C744.233 548.008 649.161 628.577 691.056 660.807Z" fill="#834A94"/>
<path d="M691.526 649.182C693.298 647.442 695.111 645.354 696.89 643.369L702.263 637.32C705.861 633.291 709.502 629.29 713.211 625.353C720.634 617.48 728.311 609.831 736.418 602.637C744.507 595.431 753.037 588.675 762.169 582.778C771.275 576.909 781.242 572.019 791.759 569.293C796.789 567.856 801.374 565.035 805.28 561.479C809.224 557.935 812.454 553.627 815.288 549.111C820.957 540.032 824.881 529.925 828.089 519.678C831.238 509.391 833.595 498.861 835.421 488.244C837.241 477.625 838.579 466.913 839.305 456.157C838.738 466.925 837.559 477.662 835.894 488.323C834.224 498.981 832.018 509.571 829.006 519.954C825.933 530.3 822.141 540.537 816.51 549.864C813.694 554.505 810.456 558.967 806.419 562.709C802.422 566.457 797.638 569.517 792.305 571.128C781.949 573.983 772.394 578.859 763.475 584.784C754.574 590.721 746.245 597.517 738.343 604.769C730.424 612.008 722.921 619.706 715.667 627.631C712.04 631.595 708.482 635.623 704.959 639.69L699.682 645.812C697.893 647.864 696.208 649.889 694.164 651.959C693.421 652.712 692.208 652.717 691.455 651.974C690.702 651.23 690.696 650.018 691.439 649.265C691.443 649.261 691.449 649.255 691.453 649.251L691.526 649.182Z" fill="#D6B6BA"/>
<path d="M189.583 648.996C189.583 648.996 137.901 659.69 104.042 609.789C70.1822 559.889 22.0637 581.275 6.0249 520.684C-10.0139 460.092 11.3705 362.075 38.1026 392.371C64.8346 422.667 59.487 474.349 95.1304 499.299C130.772 524.248 235.918 613.353 189.583 648.996Z" fill="#FFF1E3"/>
<path d="M186.284 639.066C184.037 636.795 182.169 634.552 180.189 632.285L174.347 625.518C170.446 621.023 166.507 616.57 162.491 612.186C154.461 603.424 146.154 594.913 137.386 586.908C128.637 578.89 119.416 571.375 109.558 564.811C99.6828 558.264 89.095 552.869 77.6335 549.719C71.7533 547.946 66.4728 544.576 62.0564 540.442C57.5979 536.314 54.015 531.387 50.8996 526.261C44.6706 515.959 40.4708 504.643 37.0641 493.206C33.7265 481.728 31.2797 470.019 29.4231 458.234C27.5742 446.446 26.2617 434.573 25.6256 422.665C26.4208 434.563 27.8903 446.41 29.8964 458.157C31.9082 469.9 34.5063 481.549 37.9819 492.932C41.5227 504.269 45.8567 515.455 52.1239 525.508C55.2546 530.509 58.8299 535.282 63.1945 539.211C67.5209 543.153 72.6021 546.285 78.1796 547.885C89.802 550.907 100.802 556.314 110.865 562.807C120.952 569.331 130.375 576.805 139.31 584.778C148.265 592.737 156.749 601.2 164.948 609.908C169.046 614.263 173.069 618.689 177.043 623.148L182.981 629.842C184.949 632.042 186.947 634.349 188.922 636.289L188.988 636.353C189.742 637.094 189.752 638.307 189.011 639.062C188.269 639.817 187.056 639.826 186.301 639.085C186.299 639.081 186.288 639.07 186.284 639.066Z" fill="#D6B6BA"/>
<path d="M198.903 655.522C198.903 655.522 190.455 564.773 178.12 589.694C165.785 614.616 133.669 514.012 136.3 550.066C138.932 586.119 69.3832 454.576 63.9169 486.931C58.4505 519.287 97.671 576.794 97.671 576.794C97.671 576.794 58.6134 559.705 66.1471 577.708C73.6808 595.71 145.977 637.081 129.818 639.012C113.658 640.941 119.939 656.463 156.055 669.375C192.17 682.287 198.903 655.522 198.903 655.522Z" fill="#834A94"/>
<path d="M189.974 666.403C178.291 654.106 167.291 641.259 156.665 628.093C146.063 614.909 135.955 601.336 126.325 587.435C116.628 573.579 107.667 559.216 99.2287 544.572L93.0362 533.507C91.0416 529.783 89.1697 525.991 87.2307 522.238L84.3471 516.593C83.4294 514.69 82.5767 512.757 81.6877 510.839L76.4072 499.316L81.7969 510.788C82.7032 512.696 83.575 514.62 84.51 516.513L87.4472 522.126C89.4207 525.861 91.3271 529.631 93.3542 533.335L99.6464 544.331C108.217 558.883 117.3 573.14 127.114 586.885C136.861 600.673 147.081 614.127 157.785 627.185C168.506 640.217 179.632 652.959 191.344 665.056L189.974 666.403Z" fill="#FCDCE1"/>
<path d="M175.737 615.819L180.701 655.07L135.257 649.947" stroke="#FCDCE1" stroke-width="0.5" stroke-miterlimit="10" stroke-linecap="round" stroke-linejoin="round"/>
<path d="M149.204 589.499L152.584 620.982L114.49 616.374" stroke="#FCDCE1" stroke-width="0.5" stroke-miterlimit="10" stroke-linecap="round" stroke-linejoin="round"/>
<path d="M123.581 557.268L126.187 587.104L94.4579 582.877" stroke="#FCDCE1" stroke-width="0.5" stroke-miterlimit="10" stroke-linecap="round" stroke-linejoin="round"/>
<path d="M105.034 530.256L106.554 556.521L82.8643 545.402" stroke="#FCDCE1" stroke-width="0.5" stroke-miterlimit="10" stroke-linecap="round" stroke-linejoin="round"/>
<path d="M91.0877 505.045L92.609 531.31L68.9196 520.191" stroke="#FCDCE1" stroke-width="0.5" stroke-miterlimit="10" stroke-linecap="round" stroke-linejoin="round"/>
<path d="M335.186 191.616L353.461 221.882L392.057 229.059L394.304 234.937L342.022 238.98L321.469 201.907L335.186 191.616Z" fill="#FFF1E3"/>
<path d="M304.013 411.472C304.013 411.472 301.899 417.536 302.214 419.655C302.214 419.655 323.15 423.025 331.055 422.341C331.055 422.341 336.452 419.659 312.355 412.443L309.41 405.812L304.013 411.472Z" fill="#00877E"/>
<path d="M334.308 365.137C334.308 365.137 332.195 371.201 332.509 373.32C332.509 373.32 353.445 376.691 361.351 376.008C361.351 376.008 366.748 373.326 342.651 366.11L339.704 359.479L334.308 365.137Z" fill="#00877E"/>
<path d="M320.529 247.054C320.529 247.054 329.976 254.605 312.355 412.445L299.232 417.662C299.232 417.662 297.765 346.199 295.607 238.478C295.607 238.478 320.343 251.068 320.529 247.054Z" fill="#4AAD77"/>
<path d="M306.264 250.595C306.264 250.595 324.226 271.991 343.459 294.036C349.125 300.53 341.281 371.012 341.281 371.012L331.036 371.335C331.036 371.335 329.003 322.77 323.931 312.351C311.071 285.932 245.427 279.975 282.718 233.454C282.718 233.454 298.462 251.214 306.264 250.595Z" fill="#73C497"/>
<path d="M324.575 211.434C324.575 211.434 335.033 198.52 339.062 193.663C339.062 193.663 325.181 171.088 316.034 167.891C316.034 167.891 304.543 188.3 324.575 211.434Z" fill="#862E7A"/>
<path d="M327.112 269.772C326.497 277.631 269.76 254.641 271.65 250.631C290.409 210.769 297.606 185.868 300.633 177.283C310.029 150.639 316.775 159.575 324.684 167.429C324.684 167.429 332.513 171.493 333.111 176.457C336.32 203.137 327.112 269.772 327.112 269.772Z" fill="#862E7A"/>
<path d="M311.941 123.662C311.941 123.662 315.558 141.015 309.943 160.566C309.86 160.849 329.716 179.695 332.827 177.356C334.586 176.034 323.175 158.644 334.876 148.478C336.439 147.119 337.479 145.259 338.934 143.785C339.752 142.956 340.597 142.153 341.453 141.366C341.729 141.113 343.946 138.829 344.16 138.93L311.941 123.662Z" fill="#FFEAD3"/>
<path d="M355.576 125.248C354.032 139.545 352.041 161.815 339.141 160.123C320.247 157.648 309.086 135.859 309.872 122.866C310.661 109.878 321.835 99.9818 334.822 100.773C347.812 101.561 356.977 112.311 355.576 125.248Z" fill="#FFF1E3"/>
<path d="M339.131 232.908C337.357 251.94 320.49 265.929 301.461 264.156C282.427 262.382 268.436 245.515 270.211 226.484C271.985 207.45 288.851 193.462 307.885 195.236C326.915 197.01 340.905 213.875 339.131 232.908Z" fill="#EEC92A"/>
<path d="M333.042 232.339C331.58 248.01 317.697 259.527 302.028 258.067C286.359 256.605 274.84 242.72 276.3 227.051C277.76 211.38 291.649 199.863 307.318 201.325C322.987 202.785 334.502 216.67 333.042 232.339Z" fill="#F5B200"/>
<path d="M301.238 244.594L302.369 232.468C298.688 231.034 296.069 229.141 294.507 226.787C292.946 224.432 292.31 221.69 292.601 218.567C292.896 215.402 294.143 212.838 296.341 210.872C298.537 208.907 301.313 207.916 304.658 207.897L304.925 205.032L309.123 205.423L308.856 208.288C311.891 208.941 314.233 210.215 315.886 212.11C317.54 214.007 318.48 216.425 318.714 219.366L311.301 219.636C311.069 217.32 310.056 215.668 308.26 214.681L307.205 225.997C311.719 227.685 314.721 229.603 316.214 231.757C317.706 233.91 318.308 236.549 318.017 239.676C317.693 243.168 316.363 246.012 314.024 248.207C311.688 250.403 308.615 251.597 304.804 251.787L304.298 257.197L300.102 256.807L300.593 251.538C297.291 250.823 294.697 249.326 292.808 247.046C290.921 244.77 289.861 241.703 289.639 237.85L297.268 237.74C297.431 239.315 297.889 240.699 298.631 241.896C299.374 243.096 300.246 243.994 301.238 244.594ZM304.07 214.206C302.896 214.486 301.926 215.061 301.165 215.919C300.405 216.783 299.972 217.776 299.868 218.895C299.773 219.918 299.991 220.895 300.526 221.83C301.062 222.767 301.93 223.562 303.135 224.217L304.07 214.206ZM305.398 245.391C306.871 245.257 308.107 244.695 309.117 243.709C310.123 242.724 310.692 241.507 310.828 240.059C310.947 238.767 310.669 237.618 309.996 236.61C309.322 235.604 308.14 234.771 306.45 234.106L305.398 245.391Z" fill="#FFE252"/>
<path opacity="0.4" d="M319.787 198.558L271.023 221.604C270.646 223.188 270.368 224.813 270.213 226.482C269.77 231.23 270.308 235.842 271.661 240.12L333.669 210.813C330.268 205.6 325.487 201.327 319.787 198.558Z" fill="#FFBF14"/>
<path opacity="0.4" d="M290.388 261.217L338.093 238.67C338.593 236.809 338.947 234.889 339.133 232.908C339.434 229.68 339.271 226.518 338.717 223.48L278.264 252.053C281.54 255.925 285.665 259.079 290.388 261.217Z" fill="#FFBF14"/>
<path d="M312.311 185.054C312.311 185.054 310.236 184.069 295.088 212.978L327.097 245.123L323.288 250.775C323.288 250.775 292.292 235.817 272.362 217.235C272.362 217.235 283.145 198.619 301.232 177.45L312.311 185.054Z" fill="#FFF1E3"/>
<path d="M314.217 167.94C314.217 167.94 299.529 166.908 280.959 198.24L305.197 207.749C305.197 207.749 325.16 173.449 314.217 167.94Z" fill="#862E7A"/>
<path d="M335.272 247.127C335.272 250.861 332.427 257.36 328.693 257.36C324.958 257.36 319.325 246.236 319.325 242.672C319.325 239.108 319.325 242.672 323.06 242.672C326.792 242.672 335.272 243.393 335.272 247.127Z" fill="#FFF1E3"/>
<path d="M330.879 243.32C327.792 244.835 321.831 245.41 321.469 244.676C321.109 243.942 326.487 242.178 329.574 240.662C332.661 239.147 333.429 239.969 333.789 240.702C334.149 241.436 333.966 241.806 330.879 243.32Z" fill="#FFCB94"/>
<path d="M332.992 100.856C338.422 100.664 343.863 100.582 349.234 99.7308C351.244 99.4128 352.844 98.8955 354.603 97.947C355.158 97.6462 355.44 96.8089 356.139 96.8262C356.994 96.8454 358.04 98.3705 358.563 98.9031C359.778 100.141 360.59 102.521 360.598 104.247C360.634 112.727 355.463 116.622 352.646 117.044C344.197 118.301 332.22 119.517 326.1 126.612C322.217 131.117 314.33 145.859 312.751 145.117C306.701 142.276 305.963 131.908 305.538 126.177C305.109 120.387 305.168 113.867 308.431 108.885C310.914 105.094 314.61 103.015 318.992 102.168C323.617 101.269 328.3 101.022 332.992 100.856Z" fill="#F15268"/>
<path d="M332.35 124.051C332.82 127.363 331.162 135.016 327.85 135.485C321.851 136.334 320.824 129.061 320.354 125.746C319.885 122.434 322.192 119.37 325.503 118.9C328.817 118.431 331.883 120.738 332.35 124.051Z" fill="#FFF1E3"/>
<path d="M274.667 394.797C252.488 459.54 206.666 485.529 206.666 485.529C206.666 485.529 135.631 419.122 37.4147 358.68C39.6219 320.592 105.415 267.946 105.415 267.946C105.415 267.946 205.81 314.578 274.667 394.797Z" fill="#166645"/>
<path d="M242.528 376.434C203.413 337.633 158.387 309.159 132.615 294.435C125.231 302.741 112.597 304.151 103.545 297.366C101.948 296.169 100.581 294.782 99.4184 293.274C87.7633 303.681 70.7205 320.672 62.3706 337.539C65.2638 338.187 68.0764 339.424 70.6037 341.319C79.0168 347.623 81.5114 358.883 77.0874 368.003C126.217 400.353 165.835 432.387 187.129 450.462C194.638 443.666 206.141 442.906 214.553 449.209C216.513 450.675 218.132 452.424 219.439 454.338C229.961 445.073 243.781 429.564 253.622 406.21C251.943 405.528 250.319 404.643 248.803 403.507C240.271 397.109 237.842 385.621 242.528 376.434Z" fill="#1E9567"/>
<path d="M182.935 344.166C195.688 354.509 197.935 373.673 188.049 387.788C177.652 402.635 157.672 406.643 143.515 396.73C129.277 386.778 126.384 366.547 136.696 351.823C141.722 344.647 149.11 339.762 157.496 338.062C165.925 336.353 174.355 338.066 181.23 342.883C181.818 343.293 182.387 343.72 182.935 344.166ZM144.598 392.005C145.065 392.388 145.552 392.752 146.054 393.105C158.215 401.62 175.428 398.094 184.427 385.249C193.354 372.504 190.911 355.078 178.693 346.502C172.822 342.39 165.607 340.93 158.376 342.394C151.108 343.868 144.695 348.119 140.323 354.358C131.76 366.584 133.636 383.117 144.598 392.005Z" fill="#166645"/>
<path d="M170.711 361.82L165.049 368.8C166.722 371.188 167.555 373.426 167.548 375.508C167.542 377.593 166.812 379.538 165.35 381.337C163.875 383.161 162.058 384.22 159.905 384.527C157.751 384.834 155.64 384.307 153.578 382.946L152.241 384.596L149.825 382.636L151.16 380.986C149.566 379.344 148.65 377.601 148.412 375.759C148.173 373.922 148.587 372.048 149.648 370.147L154.308 373.018C153.501 374.535 153.45 375.964 154.149 377.306L159.431 370.789C157.354 367.908 156.297 365.497 156.26 363.564C156.226 361.633 156.939 359.763 158.399 357.965C160.031 355.954 162.012 354.756 164.344 354.361C166.678 353.974 169.054 354.499 171.47 355.944L173.999 352.833L176.415 354.789L173.957 357.82C175.687 359.613 176.668 361.598 176.894 363.769C177.12 365.94 176.514 368.254 175.074 370.716L170.345 367.655C170.889 366.622 171.18 365.583 171.211 364.545C171.243 363.501 171.077 362.595 170.711 361.82ZM156.523 379.314C157.36 379.624 158.186 379.668 159.008 379.448C159.83 379.233 160.5 378.802 161.024 378.156C161.501 377.566 161.767 376.876 161.823 376.083C161.878 375.29 161.669 374.445 161.198 373.546L156.523 379.314ZM168.484 359.625C167.525 359.107 166.534 358.945 165.511 359.134C164.492 359.33 163.641 359.843 162.966 360.675C162.361 361.418 162.062 362.238 162.062 363.133C162.064 364.028 162.447 365.026 163.21 366.124L168.484 359.625Z" fill="#166645"/>
<path d="M270.793 432.425C212.223 467.827 160.406 458.331 160.406 458.331C160.406 458.331 148.579 361.813 112.079 252.415C138.223 224.629 222.466 226.509 222.466 226.509C222.466 226.509 269.502 326.714 270.793 432.425Z" fill="#209461"/>
<path d="M257.942 397.711C252.863 342.852 236.623 292.115 226.317 264.279C215.323 265.906 204.731 258.876 202.147 247.863C201.691 245.918 201.533 243.979 201.608 242.076C185.991 242.573 162.016 244.657 144.785 252.229C146.588 254.584 147.949 257.337 148.671 260.412C151.074 270.648 145.757 280.881 136.51 285.033C153.409 341.377 163.217 391.375 167.94 418.904C178.062 418.513 187.37 425.315 189.773 435.548C190.332 437.932 190.451 440.313 190.225 442.618C204.241 442.27 224.794 439.25 247.332 427.664C246.483 426.064 245.805 424.34 245.373 422.498C242.938 412.114 248.451 401.746 257.942 397.711Z" fill="#25B87F"/>
<path d="M232.969 334.715C236.106 350.83 225.526 366.967 208.883 371.439C191.381 376.148 173.489 366.394 169 349.704C164.472 332.931 175.242 315.564 192.601 310.895C201.06 308.623 209.862 309.617 217.385 313.698C224.943 317.8 230.308 324.524 232.486 332.63C232.674 333.324 232.833 334.017 232.969 334.715ZM172.862 346.78C172.975 347.372 173.115 347.964 173.271 348.556C177.131 362.892 192.59 371.24 207.736 367.168C222.763 363.127 232.076 348.202 228.214 333.78C226.353 326.859 221.757 321.105 215.275 317.586C208.755 314.051 201.11 313.192 193.753 315.17C179.34 319.046 170.165 332.925 172.862 346.78Z" fill="#209461"/>
<path d="M212.263 340.398L203.44 342.114C203.189 345.019 202.394 347.268 201.049 348.861C199.706 350.457 197.897 351.48 195.623 351.921C193.32 352.371 191.246 352.018 189.397 350.871C187.55 349.723 186.271 347.964 185.562 345.594L183.477 346L182.883 342.948L184.968 342.54C184.797 340.258 185.215 338.334 186.217 336.771C187.213 335.205 188.733 334.037 190.767 333.262L192.498 338.453C190.905 339.099 189.947 340.162 189.622 341.639L197.855 340.032C198.111 336.489 198.847 333.964 200.062 332.456C201.277 330.954 203.022 329.978 205.296 329.538C207.837 329.043 210.127 329.396 212.167 330.592C214.206 331.789 215.691 333.722 216.614 336.38L220.552 335.615L221.147 338.668L217.317 339.413C217.494 341.898 216.971 344.05 215.752 345.86C214.532 347.671 212.579 349.056 209.895 350.018L208.234 344.636C209.314 344.191 210.203 343.584 210.895 342.806C211.59 342.032 212.045 341.229 212.263 340.398ZM190.152 344.705C190.595 345.479 191.198 346.046 191.971 346.404C192.739 346.766 193.53 346.868 194.346 346.709C195.092 346.563 195.738 346.205 196.291 345.632C196.841 345.057 197.224 344.276 197.441 343.287L190.152 344.705ZM211.964 337.288C211.56 336.274 210.906 335.512 209.998 335.004C209.092 334.498 208.111 334.347 207.059 334.55C206.118 334.734 205.363 335.169 204.789 335.857C204.216 336.543 203.869 337.554 203.748 338.888L211.964 337.288Z" fill="#209461"/>
<path d="M647.852 589.964C592.014 550.397 580.032 499.094 580.032 499.094C580.032 499.094 663.805 449.721 749.536 372.583C785.444 385.46 817.355 463.451 817.355 463.451C817.355 463.451 744.258 546.58 647.852 589.964Z" fill="#209461"/>
<path d="M674.55 564.323C722.82 537.769 762.858 502.622 784.264 482.059C778.384 472.629 780.6 460.111 789.665 453.344C791.265 452.15 792.98 451.233 794.758 450.543C788.067 436.42 776.583 415.273 762.762 402.495C761.325 405.091 759.342 407.437 756.811 409.328C748.387 415.616 736.881 414.825 729.382 408.008C684.471 445.994 642.545 474.947 619.189 490.267C623.588 499.391 621.067 510.64 612.646 516.928C610.684 518.394 608.549 519.454 606.344 520.166C612.259 532.875 623.232 550.516 642.851 566.555C643.98 565.137 645.291 563.828 646.808 562.696C655.355 556.317 667.062 557.235 674.55 564.323Z" fill="#25B87F"/>
<path d="M722.339 516.277C708.816 525.589 689.797 522.329 679.054 508.856C667.748 494.687 669.549 474.389 683.057 463.612C696.63 452.763 716.849 455.703 728.064 469.758C733.526 476.606 736.126 485.075 735.387 493.599C734.643 502.169 730.62 509.77 724.057 515.005C723.494 515.451 722.923 515.876 722.339 516.277ZM687.282 465.984C686.783 466.325 686.295 466.689 685.816 467.07C674.211 476.33 672.728 493.839 682.509 506.097C692.213 518.262 709.616 520.841 721.296 511.546C726.899 507.076 730.34 500.566 730.978 493.218C731.616 485.83 729.353 478.476 724.603 472.519C715.297 460.853 698.906 457.981 687.282 465.984Z" fill="#209461"/>
<path d="M708.861 499.562L703.765 492.158C701.004 493.089 698.62 493.256 696.624 492.66C694.626 492.064 692.966 490.815 691.656 488.907C690.322 486.974 689.818 484.933 690.131 482.781C690.445 480.63 691.549 478.754 693.44 477.158L692.234 475.41L694.796 473.646L695.999 475.393C698.025 474.328 699.954 473.941 701.788 474.236C703.617 474.525 705.3 475.453 706.823 477.007L702.753 480.664C701.525 479.461 700.167 479.009 698.684 479.3L703.443 486.207C706.794 485.031 709.402 484.695 711.27 485.207C713.132 485.724 714.721 486.931 716.035 488.84C717.503 490.976 718.097 493.214 717.811 495.561C717.526 497.908 716.347 500.041 714.28 501.951L716.552 505.254L713.991 507.019L711.78 503.804C709.57 504.957 707.39 505.338 705.242 504.94C703.094 504.545 701.046 503.309 699.094 501.231L703.366 497.559C704.206 498.372 705.118 498.945 706.106 499.27C707.097 499.598 708.013 499.692 708.861 499.562ZM696.086 481.009C695.555 481.726 695.277 482.505 695.256 483.356C695.229 484.203 695.453 484.971 695.927 485.653C696.356 486.28 696.944 486.73 697.689 487.006C698.437 487.28 699.306 487.32 700.299 487.123L696.086 481.009ZM711.594 498.048C712.362 497.272 712.799 496.368 712.904 495.331C713.008 494.298 712.755 493.338 712.146 492.455C711.603 491.666 710.9 491.149 710.044 490.896C709.185 490.643 708.118 490.731 706.85 491.152L711.594 498.048Z" fill="#209461"/>
<path d="M631.79 656.787C582.103 609.724 577.489 557.247 577.489 557.247C577.489 557.247 667.397 520.199 763.167 455.952C796.898 473.776 817.47 555.492 817.47 555.492C817.47 555.492 733.358 627.457 631.79 656.787Z" fill="#166645"/>
<path d="M661.841 635.176C713.379 615.706 757.98 586.567 782.076 569.235C777.588 559.069 781.553 546.992 791.483 541.574C793.236 540.618 795.064 539.949 796.921 539.518C792.294 524.592 783.913 502.035 772.038 487.435C770.246 489.798 767.953 491.844 765.18 493.356C755.951 498.391 744.671 495.983 738.213 488.171C688.385 519.433 642.79 542.17 617.503 554.038C620.568 563.692 616.483 574.474 607.256 579.507C605.106 580.681 602.843 581.427 600.561 581.821C604.621 595.239 612.991 614.254 630.148 632.906C631.467 631.662 632.944 630.549 634.607 629.643C643.968 624.535 655.428 627.097 661.841 635.176Z" fill="#1E9567"/>
<path d="M715.941 594.362C701.238 601.667 682.871 595.756 674.136 580.9C664.947 565.279 669.597 545.437 684.494 536.675C699.462 527.853 719.064 533.624 728.177 549.119C732.616 556.67 733.996 565.418 732.058 573.753C730.112 582.134 725.055 589.089 717.819 593.342C717.2 593.708 716.575 594.047 715.941 594.362ZM688.343 539.618C687.799 539.888 687.266 540.177 686.737 540.486C673.938 548.014 669.999 565.137 677.949 578.656C685.837 592.068 702.701 597.082 715.579 589.529C721.758 585.895 726.081 579.938 727.753 572.751C729.432 565.53 728.226 557.927 724.366 551.361C716.799 538.499 700.981 533.337 688.343 539.618Z" fill="#166645"/>
<path d="M704.957 575.911L700.958 567.861C698.092 568.392 695.712 568.218 693.819 567.35C691.924 566.48 690.46 565.007 689.429 562.93C688.381 560.832 688.171 558.737 688.789 556.653C689.404 554.566 690.761 552.865 692.853 551.551L691.911 549.648L694.695 548.266L695.639 550.169C697.797 549.399 699.762 549.288 701.535 549.84C703.305 550.384 704.838 551.539 706.125 553.29L701.581 556.339C700.533 554.976 699.257 554.334 697.747 554.413L701.481 561.924C704.966 561.23 707.595 561.268 709.369 562.039C711.143 562.809 712.546 564.234 713.575 566.308C714.726 568.63 714.995 570.927 714.383 573.211C713.766 575.497 712.305 577.439 709.988 579.037L711.766 582.63L708.984 584.015L707.248 580.52C704.897 581.348 702.682 581.417 700.615 580.724C698.546 580.026 696.693 578.513 695.053 576.179L699.801 573.15C700.513 574.073 701.337 574.771 702.27 575.232C703.207 575.696 704.104 575.922 704.957 575.911ZM694.934 555.739C694.306 556.371 693.919 557.105 693.781 557.942C693.635 558.78 693.748 559.567 694.116 560.312C694.457 560.989 694.974 561.519 695.67 561.899C696.371 562.278 697.226 562.441 698.237 562.384L694.934 555.739ZM707.88 574.795C708.748 574.138 709.31 573.303 709.561 572.293C709.806 571.285 709.691 570.299 709.214 569.342C708.787 568.48 708.166 567.869 707.352 567.499C706.539 567.128 705.47 567.064 704.154 567.3L707.88 574.795Z" fill="#166645"/>
<path d="M660.009 380.684C593.014 394.647 547.278 368.496 547.278 368.496C547.278 368.496 568.147 273.522 570.009 158.209C603.888 140.674 682.737 170.397 682.737 170.397C682.737 170.397 693.865 280.53 660.009 380.684Z" fill="#209461"/>
<path d="M659.402 343.668C672.814 290.235 674.328 236.98 673.839 207.301C662.927 205.188 655.269 195.042 656.484 183.795C656.698 181.812 657.195 179.931 657.9 178.159C642.999 173.443 619.691 167.46 600.924 168.883C601.847 171.704 602.217 174.752 601.876 177.894C600.746 188.346 592.334 196.236 582.235 197.087C579.486 255.845 572.149 306.264 567.47 333.801C577.148 336.79 583.67 346.295 582.544 356.745C582.281 359.178 581.603 361.464 580.626 363.566C593.961 367.887 614.351 371.858 639.456 368.404C639.188 366.612 639.121 364.762 639.324 362.88C640.472 352.279 649.113 344.329 659.402 343.668Z" fill="#25B87F"/>
<path d="M656.744 275.955C654.359 292.201 639.025 303.911 621.843 302.609C603.769 301.244 590.125 286.108 591.428 268.874C592.723 251.547 608.639 238.737 626.569 240.093C635.306 240.754 643.279 244.615 649.019 250.961C654.79 257.339 657.618 265.461 656.984 273.832C656.926 274.549 656.85 275.256 656.744 275.955ZM596.04 267.394C595.952 267.992 595.885 268.598 595.839 269.207C594.722 284.012 606.536 297.018 622.174 298.2C637.692 299.372 651.428 288.38 652.571 273.499C653.112 266.352 650.684 259.401 645.737 253.929C640.759 248.432 633.833 245.084 626.236 244.506C611.354 243.383 598.094 253.432 596.04 267.394Z" fill="#209461"/>
<path d="M635.327 274.449L626.433 273.142C625.234 275.8 623.734 277.658 621.938 278.714C620.141 279.772 618.097 280.138 615.805 279.798C613.481 279.457 611.644 278.44 610.281 276.744C608.921 275.049 608.296 272.964 608.413 270.492L606.313 270.184L606.766 267.107L608.865 267.413C609.463 265.204 610.494 263.53 611.958 262.386C613.416 261.242 615.24 260.642 617.415 260.585L617.325 266.055C615.606 266.135 614.351 266.821 613.554 268.105L621.854 269.322C623.272 266.067 624.803 263.928 626.451 262.909C628.096 261.897 630.062 261.556 632.356 261.892C634.919 262.271 636.962 263.359 638.489 265.166C640.014 266.975 640.773 269.289 640.765 272.102L644.731 272.686L644.279 275.763L640.418 275.196C639.761 277.599 638.556 279.456 636.801 280.758C635.05 282.063 632.75 282.722 629.899 282.738L630.12 277.108C631.287 277.047 632.325 276.769 633.237 276.267C634.151 275.765 634.845 275.16 635.327 274.449ZM613.039 271.175C613.203 272.052 613.585 272.786 614.194 273.38C614.797 273.976 615.512 274.336 616.334 274.453C617.085 274.566 617.815 274.439 618.524 274.081C619.233 273.721 619.856 273.112 620.386 272.249L613.039 271.175ZM636.077 271.416C636.032 270.324 635.666 269.389 634.979 268.607C634.293 267.829 633.417 267.362 632.358 267.207C631.407 267.067 630.553 267.228 629.782 267.684C629.014 268.14 628.353 268.981 627.796 270.197L636.077 271.416Z" fill="#209461"/>
<path d="M616.02 403.524C561.4 362.288 550.974 310.65 550.974 310.65C550.974 310.65 636.195 263.823 724.216 189.308C759.722 203.268 789.265 282.182 789.265 282.182C789.265 282.182 713.692 363.064 616.02 403.524Z" fill="#166645"/>
<path d="M643.478 378.699C692.53 353.61 733.609 319.69 755.623 299.78C750.031 290.177 752.627 277.733 761.891 271.244C763.525 270.1 765.269 269.234 767.066 268.596C760.804 254.279 749.964 232.795 736.536 219.607C735.021 222.154 732.969 224.443 730.38 226.254C721.768 232.285 710.293 231.147 703.004 224.104C656.965 260.719 614.188 288.392 590.378 303.001C594.501 312.254 591.641 323.422 583.032 329.454C581.026 330.858 578.859 331.85 576.636 332.498C582.166 345.381 592.601 363.344 611.728 379.971C612.899 378.587 614.244 377.319 615.796 376.231C624.533 370.117 636.207 371.385 643.478 378.699Z" fill="#1E9567"/>
<path d="M692.696 332.117C678.897 341.013 659.988 337.185 649.653 323.393C638.78 308.893 641.194 288.656 655.022 278.289C668.915 267.858 689.037 271.406 699.82 285.792C705.072 292.802 707.419 301.344 706.421 309.841C705.42 318.385 701.171 325.863 694.451 330.892C693.876 331.326 693.292 331.734 692.696 332.117ZM659.172 280.785C658.662 281.115 658.164 281.46 657.674 281.828C645.796 290.735 643.785 308.19 653.192 320.74C662.523 333.192 679.844 336.296 691.798 327.356C697.534 323.054 701.165 316.655 702.029 309.326C702.893 301.963 700.851 294.542 696.281 288.447C687.329 276.505 671.034 273.139 659.172 280.785Z" fill="#166645"/>
<path d="M679.727 315.003L674.856 307.448C672.069 308.295 669.683 308.389 667.704 307.736C665.723 307.08 664.106 305.783 662.851 303.831C661.575 301.861 661.134 299.805 661.513 297.663C661.893 295.521 663.052 293.68 664.985 292.139L663.835 290.356L666.447 288.672L667.599 290.457C669.656 289.451 671.597 289.124 673.421 289.472C675.241 289.817 676.893 290.794 678.368 292.392L674.19 295.927C672.998 294.69 671.659 294.193 670.166 294.443L674.715 301.49C678.1 300.413 680.715 300.158 682.564 300.725C684.411 301.294 685.965 302.555 687.22 304.502C688.623 306.678 689.144 308.933 688.791 311.271C688.435 313.61 687.195 315.704 685.072 317.551L687.239 320.922L684.63 322.608L682.515 319.328C680.269 320.414 678.079 320.728 675.947 320.268C673.812 319.807 671.802 318.507 669.911 316.373L674.293 312.832C675.103 313.67 676 314.271 676.979 314.628C677.964 314.984 678.878 315.11 679.727 315.003ZM667.52 296.073C666.964 296.77 666.663 297.545 666.618 298.391C666.564 299.238 666.767 300.01 667.217 300.71C667.631 301.344 668.202 301.815 668.94 302.114C669.677 302.413 670.545 302.48 671.544 302.31L667.52 296.073ZM682.505 313.57C683.296 312.821 683.76 311.928 683.898 310.895C684.03 309.866 683.806 308.899 683.224 308C682.702 307.193 682.018 306.655 681.17 306.377C680.317 306.098 679.25 306.153 677.97 306.534L682.505 313.57Z" fill="#166645"/>
<path d="M387.897 553.739C393.036 564.37 388.579 577.158 377.943 582.295L219.075 659.032C208.441 664.171 195.653 659.713 190.517 649.079L92.8504 446.883C87.7116 436.249 92.1683 423.464 102.804 418.325L261.673 341.588C272.307 336.449 285.094 340.907 290.231 351.541L387.897 553.739Z" fill="#691E63"/>
<path d="M387.897 553.739L290.229 351.541C287.25 345.374 281.693 341.302 275.482 339.957L371.858 539.48C376.997 550.112 372.54 562.899 361.905 568.036L203.036 644.777C198.568 646.937 193.726 647.381 189.225 646.408L190.516 649.083C195.653 659.714 208.439 664.175 219.074 659.036L377.943 582.298C388.579 577.158 393.036 564.37 387.897 553.739Z" fill="#631C5D"/>
<path d="M290.511 393.082C293.749 399.786 287.752 409.383 277.116 414.522L150.344 475.757C139.708 480.894 128.463 479.626 125.225 472.924L113.99 449.661C110.752 442.959 116.749 433.36 127.382 428.223L254.157 366.988C264.79 361.851 276.037 363.12 279.275 369.824L290.511 393.082Z" fill="#EAEEEF"/>
<path d="M290.511 393.082L279.275 369.824C277.562 366.279 273.604 364.273 268.689 363.909C269.37 364.599 269.94 365.379 270.366 366.258L281.601 389.516C284.839 396.22 278.842 405.818 268.207 410.956L141.434 472.192C136.422 474.614 131.283 475.595 126.901 475.271C131.412 479.84 141.105 480.22 150.346 475.755L277.118 414.52C287.752 409.383 293.749 399.786 290.511 393.082Z" fill="#D9DDDE"/>
<path d="M181.971 528.957C185.292 535.859 182.412 544.141 175.516 547.471L171.602 549.366C164.706 552.696 156.406 549.813 153.088 542.913L152.748 542.206C149.428 535.303 152.306 527.022 159.201 523.69L163.118 521.799C170.013 518.467 178.312 521.349 181.632 528.25L181.971 528.957Z" fill="#E6EAEB"/>
<path d="M217.275 511.905C220.596 518.806 217.716 527.087 210.822 530.417L206.906 532.312C200.01 535.642 191.722 532.753 188.392 525.859L188.049 525.15C184.719 518.254 187.608 509.966 194.504 506.634L198.422 504.746C205.316 501.413 213.616 504.296 216.934 511.198L217.275 511.905Z" fill="#E6EAEB"/>
<path d="M254.183 494.076C257.504 500.98 254.626 509.261 247.732 512.591L243.812 514.482C236.918 517.814 228.62 514.93 225.298 508.029L224.957 507.32C221.636 500.42 224.516 492.139 231.412 488.809L235.328 486.914C242.224 483.584 250.522 486.468 253.842 493.369L254.183 494.076Z" fill="#E6EAEB"/>
<path d="M291.091 476.25C294.412 483.149 291.534 491.432 284.638 494.762L280.722 496.657C273.826 499.985 265.538 497.098 262.208 490.204L261.866 489.493C258.536 482.598 261.426 474.313 268.32 470.979L272.238 469.088C279.132 465.758 287.432 468.641 290.752 475.541L291.091 476.25Z" fill="#E6EAEB"/>
<path d="M326.399 459.196C329.727 466.089 326.838 474.378 319.942 477.71L316.026 479.601C309.132 482.935 300.832 480.047 297.514 473.15L297.173 472.439C293.854 465.539 296.732 457.257 303.626 453.927L307.542 452.033C314.438 448.703 322.726 451.591 326.056 458.485L326.399 459.196Z" fill="#E6EAEB"/>
<path d="M197.422 561.077C200.742 567.978 197.889 576.248 190.996 579.58L187.066 581.477C180.172 584.809 171.859 581.931 168.54 575.031L168.199 574.322C164.879 567.421 167.781 559.125 174.677 555.795L178.58 553.909C185.476 550.577 193.764 553.469 197.083 560.368L197.422 561.077Z" fill="#E6EAEB"/>
<path d="M339.719 571.718C343.404 579.26 339.723 588.629 331.502 592.647L330.854 592.963C322.63 596.979 312.98 594.12 309.297 586.581L293.768 554.794C290.085 547.255 293.687 537.734 301.911 533.718L302.558 533.4C310.782 529.384 320.508 532.391 324.192 539.932L339.719 571.718Z" fill="#FF366D"/>
<path d="M232.728 544.025C236.048 550.926 233.194 559.194 226.3 562.525L222.368 564.424C215.474 567.754 207.163 564.878 203.842 557.977L203.499 557.266C200.181 550.367 203.086 542.072 209.979 538.742L213.884 536.855C220.78 533.525 229.066 536.414 232.385 543.316L232.728 544.025Z" fill="#E6EAEB"/>
<path d="M269.636 526.196C272.954 533.096 270.101 541.367 263.208 544.697L259.276 546.594C252.38 549.926 244.069 547.05 240.748 540.146L240.407 539.439C237.089 532.538 239.992 524.244 246.887 520.914L250.792 519.026C257.686 515.696 265.974 518.586 269.293 525.485L269.636 526.196Z" fill="#E6EAEB"/>
<path d="M306.544 508.368C309.864 515.269 307.013 523.541 300.117 526.871L296.188 528.767C289.292 532.097 280.98 529.222 277.66 522.32L277.321 521.611C274 514.71 276.905 506.417 283.799 503.085L287.706 501.198C294.599 497.868 302.886 500.757 306.207 507.659L306.544 508.368Z" fill="#E6EAEB"/>
<path d="M341.848 491.313C345.168 498.215 342.314 506.484 335.42 509.816L331.49 511.713C324.596 515.045 316.285 512.167 312.964 505.266L312.623 504.557C309.303 497.655 312.207 489.361 319.103 486.031L323.006 484.144C329.902 480.816 338.188 483.705 341.507 490.604L341.848 491.313Z" fill="#E6EAEB"/>
<path d="M167.214 496.239C170.535 503.141 167.68 511.41 160.786 514.742L156.856 516.639C149.961 519.971 141.651 517.093 138.33 510.192L137.987 509.483C134.667 502.581 137.572 494.287 144.467 490.957L148.37 489.07C155.266 485.742 163.553 488.631 166.871 495.531L167.214 496.239Z" fill="#E6EAEB"/>
<path d="M202.212 477.775C205.532 484.676 202.677 492.946 195.784 496.278L191.854 498.175C184.958 501.507 176.649 498.629 173.328 491.727L172.987 491.018C169.667 484.117 172.571 475.823 179.467 472.493L183.37 470.605C190.266 467.277 198.552 470.167 201.871 477.066L202.212 477.775Z" fill="#E6EAEB"/>
<path d="M241.17 459.763C244.49 466.664 241.635 474.933 234.742 478.265L230.812 480.162C223.916 483.494 215.607 480.616 212.286 473.715L211.945 473.006C208.625 466.105 211.529 457.81 218.425 454.48L222.328 452.593C229.224 449.265 237.51 452.154 240.829 459.054L241.17 459.763Z" fill="#E6EAEB"/>
<path d="M279.515 440.076C282.835 446.977 279.98 455.247 273.087 458.579L269.157 460.475C262.261 463.807 253.951 460.929 250.631 454.028L250.29 453.319C246.97 446.418 249.874 438.123 256.77 434.793L260.673 432.906C267.568 429.578 275.855 432.467 279.176 439.367L279.515 440.076Z" fill="#E6EAEB"/>
<path d="M212.874 593.193C216.195 600.096 213.369 608.354 206.473 611.684L202.532 613.589C195.638 616.922 187.311 614.05 183.991 607.147L183.652 606.442C180.331 599.541 183.261 591.235 190.156 587.905L194.048 586.023C200.943 582.693 209.217 585.588 212.537 592.49L212.874 593.193Z" fill="#E6EAEB"/>
<path d="M248.177 576.14C251.499 583.044 248.671 591.3 241.777 594.632L237.832 596.536C230.938 599.866 222.613 596.996 219.293 590.095L218.954 589.386C215.631 582.484 218.561 574.178 225.459 570.848L229.35 568.965C236.244 565.635 244.519 568.532 247.838 575.431L248.177 576.14Z" fill="#E6EAEB"/>
<path d="M285.088 558.314C288.409 565.215 285.581 573.471 278.685 576.803L274.74 578.708C267.846 582.038 259.521 579.168 256.201 572.266L255.86 571.557C252.541 564.658 255.469 556.35 262.363 553.02L266.256 551.142C273.15 547.81 281.425 550.707 284.744 557.605L285.088 558.314Z" fill="#E6EAEB"/>
<path d="M357.301 523.433C360.619 530.333 357.793 538.591 350.899 541.923L346.956 543.827C340.06 547.159 331.735 544.285 328.417 537.386L328.076 536.675C324.757 529.777 327.685 521.467 334.583 518.139L338.472 516.258C345.368 512.93 353.641 515.823 356.961 522.724L357.301 523.433Z" fill="#E6EAEB"/>
<path d="M228.327 625.315C231.645 632.214 228.844 640.462 221.949 643.792L217.994 645.703C211.098 649.033 202.76 646.168 199.441 639.267L199.1 638.562C195.782 631.662 198.734 623.341 205.63 620.011L209.508 618.135C216.404 614.805 224.664 617.708 227.984 624.608L228.327 625.315Z" fill="#E6EAEB"/>
<path d="M263.631 608.26C266.951 615.164 264.15 623.408 257.256 626.736L253.3 628.648C246.404 631.98 238.066 629.116 234.747 622.215L234.406 621.506C231.086 614.606 234.04 606.287 240.936 602.957L244.816 601.083C251.71 597.753 259.973 600.656 263.292 607.557L263.631 608.26Z" fill="#E6EAEB"/>
<path d="M300.541 590.436C303.859 597.331 301.056 605.578 294.164 608.91L290.206 610.818C283.312 614.152 274.974 611.284 271.655 604.384L271.312 603.673C267.994 596.774 270.946 588.455 277.844 585.125L281.724 583.249C288.618 579.919 296.879 582.822 300.2 589.721L300.541 590.436Z" fill="#E6EAEB"/>
<path d="M372.751 555.551C376.07 562.451 373.269 570.699 366.375 574.031L362.418 575.939C355.524 579.271 347.186 576.405 343.866 569.503L343.525 568.795C340.204 561.895 343.159 553.576 350.056 550.244L353.934 548.372C360.83 545.042 369.09 547.941 372.41 554.844L372.751 555.551Z" fill="#E6EAEB"/>
<path d="M236.127 506.373L238.541 504.846C238.857 505.335 239.208 505.641 239.591 505.762C239.976 505.885 240.384 505.841 240.815 505.63C241.359 505.364 241.701 504.888 241.837 504.2C241.974 503.513 241.712 502.355 241.047 500.727C240.762 501.821 240.12 502.608 239.125 503.095C238.043 503.624 236.905 503.662 235.713 503.21C234.521 502.76 233.596 501.863 232.944 500.524C232.262 499.129 232.128 497.801 232.54 496.544C232.95 495.283 233.799 494.341 235.079 493.714C236.474 493.034 237.882 493.013 239.304 493.659C240.725 494.301 242.04 495.856 243.245 498.326C244.473 500.84 244.894 502.882 244.506 504.45C244.118 506.017 243.178 507.168 241.683 507.896C240.606 508.423 239.597 508.561 238.654 508.312C237.713 508.069 236.87 507.421 236.127 506.373ZM239.279 497.698C238.865 496.849 238.346 496.286 237.725 496.004C237.106 495.726 236.539 495.715 236.027 495.964C235.539 496.201 235.228 496.592 235.094 497.134C234.96 497.677 235.106 498.383 235.535 499.259C235.968 500.148 236.462 500.713 237.016 500.959C237.568 501.204 238.108 501.2 238.635 500.941C239.141 500.694 239.47 500.286 239.622 499.717C239.773 499.148 239.658 498.474 239.279 497.698Z" fill="#691E63"/>
<path d="M273.636 491.99L274.83 482.515L267.358 478.02L270.601 476.434L275.52 479.505L276.062 473.767L279.281 472.194L278.265 480.963L286.422 485.742L283.073 487.378L277.698 484.111L276.963 490.361L273.636 491.99Z" fill="#691E63"/>
<path d="M289.468 517.603L288.181 514.968L293.36 512.437L294.647 515.074L289.468 517.603Z" fill="#691E63"/>
<path d="M312.685 473.203L309.142 457.314L311.121 456.346L314.627 472.251L312.685 473.203Z" fill="#691E63"/>
<path d="M200.233 518.657C199.411 518.703 198.721 518.549 198.165 518.197C197.61 517.844 197.184 517.369 196.891 516.767C196.391 515.742 196.334 514.717 196.724 513.7C197.111 512.681 197.968 511.847 199.286 511.203C200.595 510.565 201.771 510.404 202.823 510.721C203.873 511.039 204.647 511.707 205.147 512.732C205.459 513.37 205.571 514.02 205.482 514.679C205.392 515.338 205.113 515.946 204.639 516.501C205.553 516.434 206.35 516.597 207.036 516.992C207.72 517.386 208.251 517.967 208.627 518.737C209.245 520.007 209.345 521.236 208.924 522.427C208.5 523.619 207.617 524.541 206.272 525.198C205.021 525.807 203.819 525.991 202.666 525.74C201.306 525.441 200.296 524.619 199.635 523.267C199.271 522.525 199.121 521.749 199.186 520.948C199.255 520.147 199.602 519.383 200.233 518.657ZM199.48 515.737C199.736 516.262 200.085 516.599 200.524 516.748C200.966 516.898 201.432 516.852 201.928 516.61C202.428 516.365 202.756 516.02 202.911 515.578C203.066 515.133 203.017 514.65 202.758 514.123C202.517 513.629 202.174 513.307 201.733 513.154C201.29 513.004 200.825 513.045 200.336 513.284C199.828 513.533 199.499 513.88 199.346 514.326C199.194 514.771 199.238 515.242 199.48 515.737ZM202.114 521.747C202.469 522.471 202.93 522.949 203.501 523.173C204.072 523.397 204.636 523.374 205.193 523.102C205.737 522.835 206.094 522.42 206.258 521.854C206.423 521.287 206.326 520.638 205.965 519.9C205.651 519.256 205.218 518.827 204.662 518.611C204.109 518.398 203.553 518.427 202.996 518.701C202.35 519.013 201.98 519.471 201.882 520.071C201.783 520.668 201.861 521.23 202.114 521.747Z" fill="#691E63"/>
<path d="M160.537 533.471L159.341 531.021L168.358 526.616L169.293 528.532C168.906 529.626 168.665 531.047 168.563 532.793C168.463 534.538 168.588 536.282 168.939 538.022C169.287 539.758 169.761 541.235 170.36 542.444L167.818 543.687C166.934 541.764 166.379 539.635 166.153 537.294C165.929 534.956 166.057 532.707 166.532 530.543L160.537 533.471Z" fill="#691E63"/>
<path d="M257.211 527.026L254.794 528.555C254.476 528.058 254.126 527.752 253.739 527.627C253.354 527.507 252.953 527.549 252.532 527.752C251.976 528.026 251.625 528.505 251.487 529.193C251.348 529.881 251.614 531.042 252.286 532.672C252.564 531.574 253.193 530.787 254.166 530.312C255.266 529.773 256.415 529.733 257.609 530.189C258.803 530.643 259.724 531.532 260.372 532.86C261.06 534.266 261.198 535.596 260.79 536.851C260.378 538.106 259.527 539.051 258.232 539.681C256.843 540.359 255.438 540.378 254.017 539.734C252.595 539.093 251.284 537.543 250.083 535.084C248.851 532.563 248.429 530.519 248.817 528.951C249.205 527.382 250.142 526.232 251.631 525.506C252.677 524.997 253.683 524.866 254.655 525.115C255.626 525.368 256.479 526.006 257.211 527.026ZM254.043 535.697C254.461 536.554 254.982 537.119 255.605 537.391C256.228 537.663 256.789 537.679 257.299 537.431C257.785 537.192 258.1 536.803 258.238 536.265C258.377 535.722 258.234 535.019 257.808 534.149C257.373 533.255 256.875 532.686 256.323 532.438C255.772 532.195 255.229 532.201 254.706 532.458C254.2 532.705 253.867 533.113 253.712 533.68C253.553 534.251 253.662 534.922 254.043 535.697Z" fill="#691E63"/>
<path d="M215.635 555.823L218.128 554.267C218.494 554.825 218.946 555.187 219.485 555.356C220.023 555.521 220.533 555.488 221.015 555.252C221.565 554.98 221.922 554.532 222.085 553.896C222.249 553.263 222.11 552.495 221.669 551.595C221.257 550.75 220.757 550.209 220.172 549.972C219.59 549.734 218.992 549.765 218.385 550.06C217.628 550.43 217.113 551.096 216.84 552.058L214.549 552.796L212.401 544.975L219.372 541.572L220.579 544.04L215.607 546.469L216.335 549.006C216.777 548.424 217.306 547.983 217.919 547.684C219.09 547.113 220.287 547.054 221.517 547.508C222.746 547.96 223.692 548.864 224.355 550.221C224.907 551.353 225.074 552.524 224.849 553.735C224.549 555.386 223.602 556.595 222.014 557.373C220.743 557.994 219.542 558.161 218.408 557.868C217.277 557.578 216.352 556.898 215.635 555.823Z" fill="#691E63"/>
<path d="M186.867 574.257L185.514 571.49L179.885 574.242L178.756 571.933L180.456 560.282L182.669 559.199L186.932 567.927L188.639 567.091L189.769 569.41L188.062 570.243L189.415 573.01L186.867 574.257ZM184.381 569.172L182.084 564.47L181.22 570.716L184.381 569.172Z" fill="#691E63"/>
<path d="M267.04 570.028L269.44 568.473C269.839 569.082 270.303 569.473 270.826 569.643C271.351 569.814 271.866 569.774 272.372 569.525C272.916 569.26 273.274 568.829 273.443 568.233C273.613 567.641 273.529 566.994 273.186 566.292C272.862 565.629 272.427 565.191 271.879 564.976C271.335 564.763 270.807 564.782 270.293 565.032C269.956 565.196 269.582 565.457 269.178 565.819L268.417 563.529C269.14 563.2 269.609 562.78 269.824 562.267C270.038 561.755 270.013 561.226 269.747 560.68C269.521 560.219 269.203 559.918 268.793 559.774C268.383 559.634 267.952 559.676 267.494 559.901C267.043 560.121 266.735 560.462 266.57 560.931C266.402 561.401 266.432 561.951 266.656 562.585L264.026 563.359C263.788 562.445 263.719 561.656 263.817 560.995C263.915 560.33 264.198 559.707 264.67 559.123C265.141 558.542 265.754 558.063 266.513 557.693C267.806 557.061 269.048 556.967 270.232 557.412C271.207 557.774 271.901 558.377 272.316 559.23C272.906 560.437 272.719 561.721 271.749 563.087C272.621 562.868 273.435 562.939 274.194 563.299C274.955 563.656 275.537 564.25 275.943 565.085C276.533 566.288 276.595 567.534 276.127 568.816C275.662 570.097 274.773 571.059 273.458 571.699C272.213 572.307 271.008 572.454 269.837 572.138C268.668 571.826 267.735 571.121 267.04 570.028Z" fill="#691E63"/>
<path d="M280.996 598.412L279.814 595.99L289.43 591.292L290.614 593.714L280.996 598.412ZM283.031 602.577L281.845 600.148L291.463 595.45L292.649 597.877L283.031 602.577Z" fill="#691E63"/>
<path d="M316.907 569.408L315.162 565.834L311.558 567.595L310.353 565.125L313.955 563.365L312.209 559.791L314.61 558.619L316.358 562.192L319.969 560.427L321.176 562.895L317.563 564.66L319.31 568.233L316.907 569.408Z" fill="#691E63"/>
<path d="M240.597 584.435L241.793 586.882L232.55 591.398C232.197 590.424 232.071 589.399 232.165 588.326C232.26 587.251 232.713 585.671 233.519 583.58C234.167 581.894 234.527 580.785 234.606 580.26C234.703 579.538 234.621 578.911 234.362 578.378C234.073 577.79 233.696 577.415 233.226 577.254C232.757 577.093 232.243 577.148 231.686 577.42C231.136 577.691 230.779 578.068 230.615 578.558C230.452 579.051 230.534 579.693 230.858 580.486L228.101 581.507C227.549 579.98 227.532 578.698 228.049 577.664C228.566 576.629 229.444 575.809 230.682 575.204C232.038 574.541 233.284 574.385 234.418 574.74C235.55 575.091 236.382 575.813 236.914 576.901C237.217 577.522 237.393 578.164 237.445 578.832C237.497 579.501 237.43 580.258 237.248 581.107C237.127 581.67 236.838 582.534 236.38 583.707C235.92 584.876 235.642 585.638 235.541 585.996C235.439 586.353 235.38 586.686 235.359 586.993L240.597 584.435Z" fill="#691E63"/>
<path d="M204.005 605.344L201.369 606.632L196.515 596.695C195.992 598.067 195.182 599.286 194.086 600.357L192.917 597.964C193.496 597.402 194.034 596.611 194.534 595.588C195.034 594.567 195.23 593.561 195.121 592.576L197.259 591.53L204.005 605.344Z" fill="#691E63"/>
<path d="M248.546 617.798L247.257 615.162L249.893 613.874L251.183 616.511L248.546 617.798Z" fill="#691E63"/>
<path d="M210.809 625.075C212.142 624.426 213.415 624.393 214.629 624.976C216.074 625.665 217.434 627.315 218.707 629.921C219.979 632.525 220.441 634.613 220.096 636.19C219.81 637.493 219.002 638.468 217.67 639.121C216.329 639.773 215.001 639.788 213.679 639.16C212.357 638.531 211.052 636.897 209.763 634.257C208.496 631.668 208.036 629.583 208.381 628.005C208.669 626.706 209.477 625.727 210.809 625.075ZM211.878 627.263C211.558 627.417 211.324 627.658 211.173 627.984C211.024 628.309 211.006 628.769 211.125 629.361C211.276 630.131 211.746 631.323 212.535 632.936C213.325 634.55 213.945 635.619 214.403 636.144C214.859 636.669 215.262 636.97 215.607 637.05C215.951 637.131 216.283 637.09 216.603 636.937C216.921 636.78 217.157 636.539 217.308 636.213C217.457 635.887 217.475 635.429 217.356 634.835C217.206 634.071 216.739 632.881 215.95 631.27C215.16 629.658 214.539 628.587 214.08 628.062C213.622 627.539 213.221 627.236 212.872 627.154C212.529 627.068 212.198 627.106 211.878 627.263Z" fill="#691E63"/>
<path d="M482.818 304.455C482.818 304.455 448.385 216.94 471.341 234.156C494.294 251.371 477.079 143.772 491.426 178.203C505.773 212.635 508.643 59.1251 528.729 86.384C548.814 113.643 539.439 184.851 539.439 184.851C539.439 184.851 567.465 150.944 568.9 171.029C570.335 191.115 522.99 262.848 538.772 257.109C554.555 251.371 555.988 268.586 528.731 297.28C501.468 325.976 482.818 304.455 482.818 304.455Z" fill="#FFF1E3"/>
<path d="M495.162 310.023C495.162 310.023 528.727 205.463 522.988 103.601" stroke="#D6B6BA" stroke-width="0.75" stroke-miterlimit="10" stroke-linecap="round" stroke-linejoin="round"/>
<path d="M485.686 257.111L499.372 295.573L538.843 269.716" stroke="#D6B6BA" stroke-width="0.75" stroke-miterlimit="10" stroke-linecap="round" stroke-linejoin="round"/>
<path d="M497.881 220.529L509.414 251.099L542.355 229.136" stroke="#D6B6BA" stroke-width="0.75" stroke-miterlimit="10" stroke-linecap="round" stroke-linejoin="round"/>
<path d="M506.49 178.923L517.967 207.615L545.225 188.965" stroke="#D6B6BA" stroke-width="0.75" stroke-miterlimit="10" stroke-linecap="round" stroke-linejoin="round"/>
<path d="M511.008 145.418L521.825 170.314L538.472 149.055" stroke="#D6B6BA" stroke-width="0.75" stroke-miterlimit="10" stroke-linecap="round" stroke-linejoin="round"/>
<path d="M512.125 115.71L522.942 140.607L539.589 119.347" stroke="#D6B6BA" stroke-width="0.75" stroke-miterlimit="10" stroke-linecap="round" stroke-linejoin="round"/>
<path d="M494.252 304.536C494.252 304.536 516.225 248.69 501.577 259.677C486.929 270.663 497.916 201.999 488.759 223.972C479.604 245.945 477.773 147.985 464.957 165.379C452.139 182.774 458.122 228.214 458.122 228.214C458.122 228.214 440.238 206.577 439.322 219.393C438.407 232.209 468.618 277.986 458.548 274.323C448.477 270.661 447.561 281.645 464.957 299.957C482.35 318.268 494.252 304.536 494.252 304.536Z" fill="#834A94"/>
<path d="M485.462 308.381C482.266 297.658 479.639 286.836 477.328 275.928C475.037 265.022 473.149 254.034 471.642 242.996C470.082 231.966 469.105 220.859 468.518 209.74C467.879 198.62 468.085 187.472 468.618 176.361C468.245 187.482 468.199 198.616 468.997 209.713C469.743 220.805 470.875 231.876 472.59 242.86C474.253 253.85 476.292 264.781 478.733 275.622C481.189 286.449 483.973 297.236 487.288 307.795L485.462 308.381Z" fill="#FCDCE1"/>
<path d="M492.421 274.324L483.687 298.866L458.5 282.368" stroke="#FCDCE1" stroke-width="0.5" stroke-miterlimit="10" stroke-linecap="round" stroke-linejoin="round"/>
<path d="M484.64 250.978L477.278 270.487L456.258 256.471" stroke="#FCDCE1" stroke-width="0.5" stroke-miterlimit="10" stroke-linecap="round" stroke-linejoin="round"/>
<path d="M479.147 224.428L471.822 242.739L454.426 230.837" stroke="#FCDCE1" stroke-width="0.5" stroke-miterlimit="10" stroke-linecap="round" stroke-linejoin="round"/>
<path d="M476.263 203.047L469.36 218.935L458.737 205.368" stroke="#FCDCE1" stroke-width="0.5" stroke-miterlimit="10" stroke-linecap="round" stroke-linejoin="round"/>
<path d="M475.548 184.09L468.647 199.978L458.025 186.411" stroke="#FCDCE1" stroke-width="0.5" stroke-miterlimit="10" stroke-linecap="round" stroke-linejoin="round"/>
<path d="M358.764 652.56C358.764 656.794 355.777 659.69 352.093 659.69H252.635C248.951 659.69 245.964 656.794 245.964 652.56C245.964 648.326 248.949 645.433 252.635 645.433H352.093C355.777 645.433 358.764 648.326 358.764 652.56Z" fill="#EEC92A"/>
<path d="M289.382 645.433H273.343V659.69H289.382V645.433Z" fill="#FFDC82"/>
<path d="M321.46 645.433H314.332V659.69H321.46V645.433Z" fill="#FFDC82"/>
<g opacity="0.5">
<path d="M353.229 645.258C353.662 646.276 353.913 647.416 353.913 648.627C353.913 652.859 350.926 655.9 347.241 655.9C347.241 655.9 250.002 659.69 252.635 659.69H352.093C355.777 659.69 358.764 656.649 358.764 652.415C358.764 648.625 356.371 645.879 353.229 645.258Z" fill="#EEC92A"/>
</g>
<path d="M353.367 591.078C353.367 595.312 350.382 599.096 346.695 599.096H247.238C243.553 599.096 240.566 595.312 240.566 591.078C240.566 586.843 243.553 583.057 247.238 583.057H346.695C350.382 583.057 353.367 586.843 353.367 591.078Z" fill="#EEC92A"/>
<path d="M284.034 583.057H267.996V599.096H284.034V583.057Z" fill="#FFDC82"/>
<path d="M316.114 583.057H307.203V599.096H316.114V583.057Z" fill="#FFDC82"/>
<g opacity="0.5">
<path d="M347.832 583.916C348.266 584.933 348.516 586.073 348.516 587.284C348.516 591.518 345.529 594.935 341.844 594.935C341.844 594.935 244.607 599.098 247.238 599.098H346.695C350.38 599.098 353.367 595.684 353.367 591.447C353.367 587.66 350.974 584.536 347.832 583.916Z" fill="#EEC92A"/>
</g>
<path d="M362.403 607.116C362.403 611.353 359.414 615.137 355.731 615.137H256.274C252.589 615.137 249.602 611.353 249.602 607.116C249.602 602.884 252.589 599.096 256.274 599.096H355.731C359.416 599.096 362.403 602.884 362.403 607.116Z" fill="#EEC92A"/>
<path d="M292.946 599.096H275.125V615.135H292.946V599.096Z" fill="#FFDC82"/>
<path d="M326.807 599.096H317.896V615.135H326.807V599.096Z" fill="#FFDC82"/>
<g opacity="0.5">
<path d="M356.866 599.251C357.3 600.269 357.551 601.409 357.551 602.618C357.551 606.852 354.564 610.619 350.878 610.619C350.878 610.619 253.641 615.135 256.274 615.135H355.731C359.416 615.135 362.403 611.368 362.403 607.134C362.403 603.346 360.01 599.872 356.866 599.251Z" fill="#EEC92A"/>
</g>
<path d="M353.913 637.412C353.913 641.647 350.926 645.433 347.241 645.433H247.784C244.099 645.433 241.112 641.647 241.112 637.412C241.112 633.178 244.099 629.392 247.784 629.392H347.241C350.924 629.394 353.913 633.178 353.913 637.412Z" fill="#EEC92A"/>
<path d="M284.034 629.394H267.996V645.433H284.034V629.394Z" fill="#FFDC82"/>
<path d="M317.896 629.394H308.985V645.433H317.896V629.394Z" fill="#FFDC82"/>
<g opacity="0.5">
<path d="M348.378 629.923C348.811 630.94 349.062 632.08 349.062 633.291C349.062 637.525 346.075 641.104 342.39 641.104C342.39 641.104 245.151 645.433 247.784 645.433H347.241C350.924 645.433 353.913 641.854 353.913 637.619C353.913 633.829 351.52 630.543 348.378 629.923Z" fill="#EEC92A"/>
</g>
<path d="M358.764 622.264C358.764 626.499 355.777 629.394 352.093 629.394H252.635C248.951 629.394 245.964 626.501 245.964 622.264C245.964 618.03 248.949 615.137 252.635 615.137H352.093C355.777 615.137 358.764 618.03 358.764 622.264Z" fill="#EEC92A"/>
<path d="M289.382 615.137H273.343V629.394H289.382V615.137Z" fill="#FFDC82"/>
<path d="M321.46 615.137H314.332V629.394H321.46V615.137Z" fill="#FFDC82"/>
<g opacity="0.5">
<path d="M353.229 614.587C353.662 615.604 353.913 616.742 353.913 617.953C353.913 622.188 350.926 625.416 347.241 625.416C347.241 625.416 250.002 629.394 252.635 629.394H352.093C355.777 629.394 358.764 626.165 358.764 621.931C358.764 618.141 356.371 615.208 353.229 614.587Z" fill="#EEC92A"/>
</g>
<path d="M358.764 578.603C358.764 582.835 355.777 586.623 352.093 586.623H252.635C248.951 586.623 245.964 582.835 245.964 578.603C245.964 574.366 248.949 570.582 252.635 570.582H352.093C355.777 570.582 358.764 574.366 358.764 578.603Z" fill="#EEC92A"/>
<path d="M289.382 570.582H273.343V586.621H289.382V570.582Z" fill="#FFDC82"/>
<path d="M321.46 570.582H314.332V586.621H321.46V570.582Z" fill="#FFDC82"/>
<g opacity="0.5">
<path d="M353.229 571.37C353.662 572.387 353.913 573.527 353.913 574.736C353.913 578.97 350.926 582.421 347.241 582.421C347.241 582.421 250.002 586.623 252.635 586.623H352.093C355.777 586.623 358.764 583.17 358.764 578.938C358.764 575.146 356.371 571.988 353.229 571.37Z" fill="#EEC92A"/>
</g>
<path d="M361.008 533.159C361.008 537.393 358.021 540.286 354.336 540.286H254.879C251.194 540.286 248.207 537.393 248.207 533.159C248.207 528.925 251.194 526.029 254.879 526.029H354.336C358.021 526.029 361.008 528.925 361.008 533.159Z" fill="#EEC92A"/>
<path d="M291.164 526.029H275.125V540.286H291.164V526.029Z" fill="#FFDC82"/>
<path d="M325.025 526.029H316.114V540.286H325.025V526.029Z" fill="#FFDC82"/>
<g opacity="0.5">
<path d="M355.473 525.361C355.904 526.38 356.155 527.518 356.155 528.729C356.155 532.963 353.169 536.251 349.483 536.251C349.483 536.251 252.246 540.286 254.879 540.286H354.336C358.021 540.286 361.008 536.998 361.008 532.764C361.008 528.976 358.615 525.983 355.473 525.361Z" fill="#EEC92A"/>
</g>
<path d="M353.913 563.455C353.913 567.689 350.926 570.582 347.241 570.582H247.784C244.099 570.582 241.112 567.689 241.112 563.455C241.112 559.22 244.099 556.325 247.784 556.325H347.241C350.924 556.325 353.913 559.22 353.913 563.455Z" fill="#EEC92A"/>
<path d="M284.034 556.325H267.996V570.582H284.034V556.325Z" fill="#FFDC82"/>
<path d="M317.896 556.325H308.985V570.582H317.896V556.325Z" fill="#FFDC82"/>
<g opacity="0.5">
<path d="M348.378 556.034C348.811 557.051 349.062 558.191 349.062 559.4C349.062 563.635 346.075 566.735 342.39 566.735C342.39 566.735 245.151 570.584 247.784 570.584H347.241C350.924 570.584 353.913 567.484 353.913 563.25C353.913 559.46 351.52 556.655 348.378 556.034Z" fill="#EEC92A"/>
</g>
<path d="M358.764 548.307C358.764 552.541 355.777 556.327 352.093 556.327H252.635C248.951 556.327 245.964 552.541 245.964 548.307C245.964 544.072 248.949 540.286 252.635 540.286H352.093C355.777 540.286 358.764 544.072 358.764 548.307Z" fill="#EEC92A"/>
<path d="M289.382 540.286H273.343V556.325H289.382V540.286Z" fill="#FFDC82"/>
<path d="M321.46 540.286H314.332V556.325H321.46V540.286Z" fill="#FFDC82"/>
<g opacity="0.5">
<path d="M353.229 540.696C353.662 541.714 353.913 542.854 353.913 544.065C353.913 548.299 350.926 551.938 347.241 551.938C347.241 551.938 250.002 556.325 252.635 556.325H352.093C355.777 556.325 358.764 552.687 358.764 548.452C358.764 544.664 356.371 541.319 353.229 540.696Z" fill="#EEC92A"/>
</g>
<path d="M226.169 662.364C225.62 662.364 225.062 662.261 224.52 662.046C222.234 661.134 221.121 658.542 222.033 656.256L403.756 200.917C404.666 198.631 407.254 197.516 409.546 198.43C411.832 199.342 412.943 201.934 412.033 204.22L230.312 659.557C229.614 661.303 227.94 662.364 226.169 662.364Z" fill="#3D3D3D"/>
<path d="M442.645 649.82C398.092 673.805 355.321 649.82 355.321 649.82V552.76H442.645V649.82Z" fill="#D6354C"/>
<g opacity="0.3">
<path d="M430.398 552.761L404.884 614.491L430.398 640.029C401.01 656.421 356.304 649.887 356.304 649.887C356.304 649.887 398.092 673.805 442.645 649.82V552.76H430.398V552.761Z" fill="#D6354C"/>
</g>
<path d="M569.176 649.82C611.946 673.805 654.717 649.82 654.717 649.82V552.76H569.176V649.82Z" fill="#D6354C"/>
<g opacity="0.3">
<path d="M580.911 552.761L595.419 616.802L580.911 640.031C610.299 656.423 655.263 649.889 655.263 649.889C655.263 649.889 611.948 673.807 569.177 649.822V552.761H580.911Z" fill="#D6354C"/>
</g>
<path d="M512.148 286.232V289.31C512.148 294.021 508.155 297.838 502.345 297.838C496.536 297.838 492.543 294.021 492.543 289.31V286.238C394.526 291.503 317.971 368.772 317.971 463.332C317.971 561.303 400.497 640.723 502.541 640.723C604.581 640.723 686.875 561.301 686.875 463.332C686.875 368.735 610.165 291.442 512.148 286.232Z" fill="#F16C7F"/>
<path d="M671.62 392.158C674.178 403.921 675.531 416.108 675.531 428.601C675.531 526.57 592.809 605.99 490.767 605.99C415.095 605.99 350.056 562.305 321.492 499.772C338.997 580.26 413.313 640.723 502.345 640.723C604.388 640.723 687.109 561.301 687.109 463.332C687.109 438.018 681.572 413.947 671.62 392.158Z" fill="#D6354C"/>
<path d="M468.792 426.277C468.792 430.885 465.054 434.623 460.446 434.623C455.838 434.623 452.102 430.885 452.102 426.277C452.102 421.669 455.838 417.931 460.446 417.931C465.052 417.929 468.792 421.667 468.792 426.277Z" fill="black"/>
<path d="M549.835 426.277C549.835 430.885 546.097 434.623 541.491 434.623C536.883 434.623 533.145 430.885 533.145 426.277C533.145 421.669 536.883 417.931 541.491 417.931C546.097 417.929 549.835 421.667 549.835 426.277Z" fill="black"/>
<path d="M546.569 553.965C546.569 572.464 526.623 587.46 502.018 587.46C477.411 587.46 457.465 572.464 457.465 553.965C457.465 535.464 477.411 520.467 502.018 520.467C526.621 520.467 546.569 535.464 546.569 553.965Z" fill="#D6354C"/>
<path d="M532.683 529.679C535.854 534.285 537.657 539.508 537.657 545.053C537.657 563.552 517.712 578.549 493.107 578.549C481.218 578.549 470.427 575.043 462.437 569.337C469.848 580.099 484.785 587.458 502.018 587.458C526.623 587.458 546.569 572.462 546.569 553.963C546.569 544.402 541.231 535.782 532.683 529.679Z" fill="#C2132C"/>
<path d="M591.087 503.675C591.087 540.658 551.207 570.64 502.016 570.64C452.821 570.64 412.943 540.658 412.943 503.675C412.943 466.689 452.821 436.707 502.016 436.707C551.207 436.707 591.087 466.691 591.087 503.675Z" fill="#D6354C"/>
<path d="M564.435 455.919C571.203 465.361 575.048 476.162 575.048 487.637C575.048 524.619 535.168 554.601 485.977 554.601C461.659 554.601 439.629 547.266 423.554 535.389C438.593 556.375 468.085 570.64 502.016 570.64C551.207 570.64 591.087 540.658 591.087 503.675C591.087 484.973 580.878 468.068 564.435 455.919Z" fill="#C2132C"/>
<path d="M401.397 611.92C408.632 616.614 416.336 620.523 424.224 623.947C432.095 627.418 440.219 630.294 448.475 632.657C456.743 634.985 465.129 636.887 473.617 638.165C482.103 639.462 490.683 640.075 499.257 640.173C503.547 640.3 507.833 640.11 512.121 639.96C514.261 639.836 516.397 639.627 518.538 639.466C520.68 639.332 522.808 639.066 524.935 638.774C533.471 637.82 541.871 635.956 550.207 633.906C566.817 629.507 582.875 623.04 598.153 615.043C594.371 617.106 590.635 619.281 586.776 621.21L580.942 624.025L578.02 625.428L575.035 626.686L569.045 629.17C567.037 629.97 564.981 630.641 562.951 631.383C558.904 632.921 554.735 634.078 550.59 635.331C542.248 637.625 533.756 639.453 525.157 640.506C523.013 640.815 520.866 641.099 518.704 641.25C516.547 641.428 514.389 641.652 512.228 641.792C507.9 641.972 503.57 642.196 499.234 642.091C481.906 641.838 464.612 639.142 448.059 634.067C431.549 628.949 415.532 621.852 401.397 611.92Z" fill="#BA0C25"/>
<path d="M556.25 503.61C556.25 515.12 546.917 524.451 535.408 524.451C523.897 524.451 514.568 515.118 514.568 503.61C514.568 492.099 523.899 482.768 535.408 482.768C546.917 482.768 556.25 492.099 556.25 503.61Z" fill="#C2132C"/>
<path d="M549.211 488.024C552.47 491.702 554.466 496.527 554.466 501.828C554.466 513.338 545.135 522.669 533.624 522.669C528.323 522.669 523.498 520.672 519.821 517.413C523.64 521.72 529.196 524.451 535.406 524.451C546.917 524.451 556.248 515.118 556.248 503.61C556.25 497.4 553.518 491.842 549.211 488.024Z" fill="#B31128"/>
<path d="M483.182 503.61C483.182 515.12 473.849 524.451 462.339 524.451C450.828 524.451 441.499 515.118 441.499 503.61C441.499 492.099 450.83 482.768 462.339 482.768C473.851 482.768 483.182 492.099 483.182 503.61Z" fill="#C2132C"/>
<path d="M476.144 488.024C479.403 491.702 481.4 496.527 481.4 501.828C481.4 513.338 472.069 522.669 460.557 522.669C455.256 522.669 450.431 520.672 446.755 517.413C450.573 521.72 456.13 524.451 462.339 524.451C473.851 524.451 483.182 515.118 483.182 503.61C483.182 497.4 480.451 491.842 476.144 488.024Z" fill="#B31128"/>
<path d="M350.612 385.025C350.612 385.025 300.393 320.356 366.329 251.524C366.329 251.524 468.231 261.231 470.548 327.942L350.612 385.025Z" fill="#F16C7F"/>
<g opacity="0.3">
<path d="M369.226 251.869C367.373 251.626 366.329 251.524 366.329 251.524C300.393 320.356 350.612 385.025 350.612 385.025L359.784 380.659C351.84 368.055 321.962 312.409 369.226 251.869Z" fill="#F15268"/>
</g>
<path d="M365.512 371.199C365.512 371.199 329.992 323.55 376.462 272.958C376.462 272.958 448.412 280.21 450.119 329.314L365.512 371.199Z" fill="#D6354C"/>
<path d="M657.344 385.025C657.344 385.025 707.563 320.356 641.625 251.524C641.625 251.524 539.723 261.231 537.406 327.942L657.344 385.025Z" fill="#F16C7F"/>
<path d="M642.44 371.199C642.44 371.199 677.96 323.55 631.49 272.958C631.49 272.958 559.54 280.21 557.833 329.314L642.44 371.199Z" fill="#D6354C"/>
<path d="M590.648 658.151C590.648 658.151 599.519 634.73 606.133 654.785C606.133 654.785 614.102 629.354 620.547 654.384C620.547 654.384 626.809 632.18 637.558 656.697C637.558 656.697 614.102 663.468 590.648 658.151Z" fill="#C2132C"/>
<path d="M420.678 658.151C420.678 658.151 411.73 634.73 405.057 654.785C405.057 654.785 397.017 629.354 390.518 654.384C390.518 654.384 384.199 632.18 373.358 656.697C373.358 656.697 397.015 663.468 420.678 658.151Z" fill="#C2132C"/>
<path opacity="0.2" d="M549.146 458.31C555.538 460.893 564.658 465.662 571.369 473.617" stroke="white" stroke-width="4" stroke-miterlimit="10" stroke-linecap="round" stroke-linejoin="round"/>
<path d="M743.704 652.56C743.704 656.795 740.717 659.69 737.032 659.69H637.575C633.888 659.69 630.903 656.795 630.903 652.56C630.903 648.326 633.888 645.433 637.575 645.433H737.032C740.717 645.433 743.704 648.326 743.704 652.56Z" fill="#EEC92A"/>
<path d="M674.32 645.433H658.281V659.69H674.32V645.433Z" fill="#FFDC82"/>
<path d="M706.398 645.433H699.27V659.69H706.398V645.433Z" fill="#FFDC82"/>
<g opacity="0.5">
<path d="M738.167 645.258C738.6 646.276 738.851 647.416 738.851 648.627C738.851 652.859 735.862 655.9 732.179 655.9C732.179 655.9 634.94 659.69 637.573 659.69H737.031C740.715 659.69 743.702 656.649 743.702 652.415C743.704 648.625 741.311 645.879 738.167 645.258Z" fill="#EEC92A"/>
</g>
<path d="M747.268 470.784C747.268 475.018 744.281 477.911 740.596 477.911H641.139C637.452 477.911 634.467 475.018 634.467 470.784C634.467 466.549 637.452 463.656 641.139 463.656H740.596C744.281 463.656 747.268 466.549 747.268 470.784Z" fill="#EEC92A"/>
<path d="M677.884 463.656H661.845V477.913H677.884V463.656Z" fill="#FFDC82"/>
<path d="M709.961 463.656H702.834V477.913H709.961V463.656Z" fill="#FFDC82"/>
<g opacity="0.5">
<path d="M741.73 463.482C742.163 464.499 742.415 465.639 742.415 466.85C742.415 471.082 739.426 474.123 735.743 474.123C735.743 474.123 638.504 477.913 641.137 477.913H740.594C744.279 477.913 747.266 474.872 747.266 470.638C747.268 466.848 744.875 464.102 741.73 463.482Z" fill="#EEC92A"/>
</g>
<path d="M738.307 591.078C738.307 595.312 735.32 599.096 731.635 599.096H632.177C628.493 599.096 625.506 595.312 625.506 591.078C625.506 586.843 628.493 583.057 632.177 583.057H731.635C735.32 583.057 738.307 586.843 738.307 591.078Z" fill="#EEC92A"/>
<path d="M668.974 583.057H652.935V599.096H668.974V583.057Z" fill="#FFDC82"/>
<path d="M701.054 583.057H692.143V599.096H701.054V583.057Z" fill="#FFDC82"/>
<g opacity="0.5">
<path d="M732.771 583.916C733.204 584.933 733.455 586.073 733.455 587.284C733.455 591.518 730.466 594.935 726.784 594.935C726.784 594.935 629.547 599.098 632.176 599.098H731.633C735.318 599.098 738.305 595.684 738.305 591.447C738.307 587.66 735.914 584.536 732.771 583.916Z" fill="#EEC92A"/>
</g>
<path d="M745.434 485.931C745.434 490.166 742.447 493.952 738.763 493.952H639.305C635.621 493.952 632.633 490.166 632.633 485.931C632.633 481.697 635.621 477.911 639.305 477.911H738.763C742.449 477.913 745.434 481.697 745.434 485.931Z" fill="#EEC92A"/>
<path d="M676.102 477.913H660.063V493.952H676.102V477.913Z" fill="#FFDC82"/>
<path d="M708.181 477.913H699.27V493.952H708.181V477.913Z" fill="#FFDC82"/>
<g opacity="0.5">
<path d="M739.901 478.769C740.334 479.787 740.585 480.927 740.585 482.138C740.585 486.372 737.598 489.788 733.913 489.788C733.913 489.788 636.676 493.952 639.305 493.952H738.763C742.447 493.952 745.434 490.537 745.434 486.301C745.434 482.513 743.041 479.392 739.901 478.769Z" fill="#EEC92A"/>
</g>
<path d="M747.342 607.116C747.342 611.353 744.354 615.137 740.671 615.137H641.213C637.531 615.137 634.544 611.353 634.544 607.116C634.544 602.884 637.531 599.096 641.213 599.096H740.671C744.354 599.096 747.342 602.884 747.342 607.116Z" fill="#EEC92A"/>
<path d="M677.884 599.096H660.063V615.135H677.884V599.096Z" fill="#FFDC82"/>
<path d="M711.745 599.096H702.834V615.135H711.745V599.096Z" fill="#FFDC82"/>
<g opacity="0.5">
<path d="M741.805 599.251C742.24 600.269 742.491 601.409 742.491 602.618C742.491 606.852 739.504 610.619 735.818 610.619C735.818 610.619 638.581 615.135 641.211 615.135H740.669C744.353 615.135 747.341 611.368 747.341 607.134C747.342 603.346 744.947 599.872 741.805 599.251Z" fill="#EEC92A"/>
</g>
<path d="M738.851 637.412C738.851 641.647 735.862 645.433 732.179 645.433H632.722C629.037 645.433 626.05 641.647 626.05 637.412C626.05 633.178 629.037 629.392 632.722 629.392H732.179C735.864 629.394 738.851 633.178 738.851 637.412Z" fill="#EEC92A"/>
<path d="M668.974 629.394H652.935V645.433H668.974V629.394Z" fill="#FFDC82"/>
<path d="M702.836 629.394H693.924V645.433H702.836V629.394Z" fill="#FFDC82"/>
<g opacity="0.5">
<path d="M733.315 629.923C733.748 630.94 733.999 632.08 733.999 633.291C733.999 637.525 731.01 641.104 727.328 641.104C727.328 641.104 630.089 645.433 632.722 645.433H732.179C735.862 645.433 738.851 641.854 738.851 637.619C738.851 633.829 736.458 630.543 733.315 629.923Z" fill="#EEC92A"/>
</g>
<path d="M743.704 622.264C743.704 626.499 740.717 629.394 737.032 629.394H637.575C633.888 629.394 630.903 626.501 630.903 622.264C630.903 618.03 633.888 615.137 637.575 615.137H737.032C740.717 615.137 743.704 618.03 743.704 622.264Z" fill="#EEC92A"/>
<path d="M674.32 615.137H658.281V629.394H674.32V615.137Z" fill="#FFDC82"/>
<path d="M706.398 615.137H699.27V629.394H706.398V615.137Z" fill="#FFDC82"/>
<g opacity="0.5">
<path d="M738.167 614.587C738.6 615.604 738.851 616.742 738.851 617.953C738.851 622.188 735.862 625.416 732.179 625.416C732.179 625.416 634.94 629.394 637.573 629.394H737.031C740.715 629.394 743.702 626.165 743.702 621.931C743.704 618.141 741.311 615.208 738.167 614.587Z" fill="#EEC92A"/>
</g>
<path d="M743.704 578.603C743.704 582.835 740.717 586.623 737.032 586.623H637.575C633.888 586.623 630.903 582.835 630.903 578.603C630.903 574.366 633.888 570.582 637.575 570.582H737.032C740.717 570.582 743.704 574.366 743.704 578.603Z" fill="#EEC92A"/>
<path d="M674.32 570.582H658.281V586.621H674.32V570.582Z" fill="#FFDC82"/>
<path d="M706.398 570.582H699.27V586.621H706.398V570.582Z" fill="#FFDC82"/>
<g opacity="0.5">
<path d="M738.167 571.37C738.6 572.387 738.851 573.527 738.851 574.736C738.851 578.97 735.862 582.421 732.179 582.421C732.179 582.421 634.94 586.623 637.573 586.623H737.031C740.715 586.623 743.702 583.17 743.702 578.938C743.704 575.146 741.311 571.988 738.167 571.37Z" fill="#EEC92A"/>
</g>
<path d="M743.704 518.009C743.704 522.241 740.717 526.029 737.032 526.029H637.575C633.888 526.029 630.903 522.241 630.903 518.009C630.903 513.773 633.888 509.991 637.575 509.991H737.032C740.717 509.991 743.704 513.775 743.704 518.009Z" fill="#EEC92A"/>
<path d="M674.32 509.991H658.281V526.029H674.32V509.991Z" fill="#FFDC82"/>
<path d="M706.398 509.991H699.27V526.029H706.398V509.991Z" fill="#FFDC82"/>
<g opacity="0.5">
<path d="M738.167 510.776C738.6 511.794 738.851 512.934 738.851 514.143C738.851 518.377 735.862 521.828 732.179 521.828C732.179 521.828 634.94 526.029 637.573 526.029H737.031C740.715 526.029 743.702 522.577 743.702 518.344C743.704 514.554 741.311 511.397 738.167 510.776Z" fill="#EEC92A"/>
</g>
<path d="M741.92 455.636C741.92 459.868 738.933 463.656 735.249 463.656H635.791C632.105 463.656 629.12 459.868 629.12 455.636C629.12 451.399 632.105 447.615 635.791 447.615H735.249C738.935 447.615 741.92 451.399 741.92 455.636Z" fill="#EEC92A"/>
<path d="M672.538 447.615H656.499V463.654H672.538V447.615Z" fill="#FFDC82"/>
<path d="M704.618 447.615H697.488V463.654H704.618V447.615Z" fill="#FFDC82"/>
<g opacity="0.5">
<path d="M736.385 448.403C736.818 449.42 737.069 450.56 737.069 451.769C737.069 456.004 734.08 459.454 730.397 459.454C730.397 459.454 633.158 463.656 635.791 463.656H735.249C738.933 463.656 741.92 460.203 741.92 455.971C741.92 452.179 739.527 449.023 736.385 448.403Z" fill="#EEC92A"/>
</g>
<path d="M745.946 533.159C745.946 537.393 742.959 540.286 739.274 540.286H639.818C636.132 540.286 633.145 537.393 633.145 533.159C633.145 528.925 636.132 526.029 639.818 526.029H739.274C742.961 526.029 745.946 528.925 745.946 533.159Z" fill="#EEC92A"/>
<path d="M676.102 526.029H660.063V540.286H676.102V526.029Z" fill="#FFDC82"/>
<path d="M709.963 526.029H701.052V540.286H709.963V526.029Z" fill="#FFDC82"/>
<g opacity="0.5">
<path d="M740.412 525.361C740.843 526.38 741.094 527.518 741.094 528.729C741.094 532.963 738.107 536.251 734.423 536.251C734.423 536.251 637.186 540.286 639.818 540.286H739.274C742.959 540.286 745.946 536.998 745.946 532.764C745.946 528.976 743.553 525.983 740.412 525.361Z" fill="#EEC92A"/>
</g>
<path d="M738.851 563.455C738.851 567.689 735.862 570.582 732.179 570.582H632.722C629.037 570.582 626.05 567.689 626.05 563.455C626.05 559.22 629.037 556.325 632.722 556.325H732.179C735.864 556.325 738.851 559.22 738.851 563.455Z" fill="#EEC92A"/>
<path d="M668.974 556.325H652.935V570.582H668.974V556.325Z" fill="#FFDC82"/>
<path d="M702.836 556.325H693.924V570.582H702.836V556.325Z" fill="#FFDC82"/>
<g opacity="0.5">
<path d="M733.315 556.034C733.748 557.051 733.999 558.191 733.999 559.4C733.999 563.635 731.01 566.735 727.328 566.735C727.328 566.735 630.089 570.584 632.722 570.584H732.179C735.862 570.584 738.851 567.484 738.851 563.25C738.851 559.46 736.458 556.655 733.315 556.034Z" fill="#EEC92A"/>
</g>
<path d="M743.704 548.307C743.704 552.541 740.717 556.327 737.032 556.327H637.575C633.888 556.327 630.903 552.541 630.903 548.307C630.903 544.072 633.888 540.286 637.575 540.286H737.032C740.717 540.286 743.704 544.072 743.704 548.307Z" fill="#EEC92A"/>
<path d="M674.32 540.286H658.281V556.325H674.32V540.286Z" fill="#FFDC82"/>
<path d="M706.398 540.286H699.27V556.325H706.398V540.286Z" fill="#FFDC82"/>
<g opacity="0.5">
<path d="M738.167 540.696C738.6 541.714 738.851 542.854 738.851 544.065C738.851 548.299 735.862 551.938 732.179 551.938C732.179 551.938 634.94 556.325 637.573 556.325H737.031C740.715 556.325 743.702 552.687 743.702 548.452C743.704 544.664 741.311 541.319 738.167 540.696Z" fill="#EEC92A"/>
</g>
<path d="M738.356 501.97C738.356 506.205 735.369 509.991 731.685 509.991H632.227C628.541 509.991 625.556 506.205 625.556 501.97C625.556 497.736 628.541 493.95 632.227 493.95H731.685C735.371 493.952 738.356 497.736 738.356 501.97Z" fill="#EEC92A"/>
<path d="M668.974 493.952H652.935V509.991H668.974V493.952Z" fill="#FFDC82"/>
<path d="M701.052 493.952H693.924V509.991H701.052V493.952Z" fill="#FFDC82"/>
<g opacity="0.5">
<path d="M732.821 494.362C733.254 495.379 733.505 496.519 733.505 497.73C733.505 501.965 730.516 505.603 726.834 505.603C726.834 505.603 629.595 509.991 632.227 509.991H731.685C735.369 509.991 738.356 506.352 738.356 502.118C738.356 498.328 735.963 494.985 732.821 494.362Z" fill="#EEC92A"/>
</g>
<path d="M576.184 656.124C576.184 660.358 573.197 663.253 569.513 663.253H470.055C466.369 663.253 463.384 660.36 463.384 656.124C463.384 651.889 466.369 648.996 470.055 648.996H569.513C573.197 648.996 576.184 651.889 576.184 656.124Z" fill="#EEC92A"/>
<path d="M506.8 648.996H490.761V663.253H506.8V648.996Z" fill="#FFDC82"/>
<path d="M538.878 648.996H531.75V663.253H538.878V648.996Z" fill="#FFDC82"/>
<g opacity="0.5">
<path d="M570.647 648.822C571.08 649.839 571.331 650.979 571.331 652.19C571.331 656.423 568.342 659.463 564.66 659.463C564.66 659.463 467.421 663.253 470.053 663.253H569.511C573.195 663.253 576.182 660.212 576.182 655.978C576.184 652.19 573.791 649.443 570.647 648.822Z" fill="#EEC92A"/>
</g>
<path d="M579.823 610.68C579.823 614.916 576.834 618.699 573.149 618.699H473.692C470.009 618.699 467.022 614.914 467.022 610.68C467.022 606.448 470.009 602.66 473.692 602.66H573.149C576.834 602.662 579.823 606.448 579.823 610.68Z" fill="#EEC92A"/>
<path d="M510.364 602.662H492.543V618.7H510.364V602.662Z" fill="#FFDC82"/>
<path d="M544.225 602.662H535.314V618.7H544.225V602.662Z" fill="#FFDC82"/>
<g opacity="0.5">
<path d="M574.285 602.815C574.72 603.832 574.971 604.972 574.971 606.181C574.971 610.416 571.984 614.182 568.3 614.182C568.3 614.182 471.063 618.698 473.694 618.698H573.151C576.836 618.698 579.825 614.932 579.825 610.697C579.823 606.911 577.428 603.438 574.285 602.815Z" fill="#EEC92A"/>
</g>
<path d="M571.331 640.976C571.331 645.21 568.342 648.996 564.66 648.996H465.202C461.517 648.996 458.53 645.21 458.53 640.976C458.53 636.742 461.517 632.957 465.202 632.957H564.66C568.344 632.957 571.331 636.742 571.331 640.976Z" fill="#EEC92A"/>
<path d="M501.454 632.957H485.416V648.996H501.454V632.957Z" fill="#FFDC82"/>
<path d="M535.316 632.957H526.405V648.996H535.316V632.957Z" fill="#FFDC82"/>
<g opacity="0.5">
<path d="M565.796 633.486C566.229 634.504 566.48 635.644 566.48 636.855C566.48 641.089 563.491 644.668 559.808 644.668C559.808 644.668 462.569 648.996 465.202 648.996H564.66C568.342 648.996 571.331 645.417 571.331 641.183C571.331 637.393 568.938 634.107 565.796 633.486Z" fill="#EEC92A"/>
</g>
<path d="M576.184 625.828C576.184 630.062 573.197 632.955 569.513 632.955H470.055C466.369 632.955 463.384 630.06 463.384 625.828C463.384 621.594 466.369 618.698 470.055 618.698H569.513C573.197 618.7 576.184 621.594 576.184 625.828Z" fill="#EEC92A"/>
<path d="M506.8 618.7H490.761V632.957H506.8V618.7Z" fill="#FFDC82"/>
<path d="M538.878 618.7H531.75V632.957H538.878V618.7Z" fill="#FFDC82"/>
<g opacity="0.5">
<path d="M570.647 618.152C571.08 619.17 571.331 620.308 571.331 621.519C571.331 625.753 568.342 628.982 564.66 628.982C564.66 628.982 467.421 632.959 470.053 632.959H569.511C573.195 632.959 576.182 629.731 576.182 625.497C576.184 621.705 573.791 618.771 570.647 618.152Z" fill="#EEC92A"/>
</g>
<path d="M659.917 348.458C659.917 348.458 642.539 375.143 639.253 394.153C639.253 394.153 635.739 406.925 690.359 422.912L690.866 418.042C690.866 418.042 671.536 395.759 655.42 390.122C655.42 390.122 671.053 360.294 672.538 356.73L659.917 348.458Z" fill="#FFF1E3"/>
<path d="M721.839 348.458C721.839 348.458 739.217 375.143 742.503 394.153C742.503 394.153 746.017 406.925 691.397 422.912L690.889 418.042C690.889 418.042 710.22 395.759 726.335 390.122C726.335 390.122 710.703 360.294 709.22 356.73L721.839 348.458Z" fill="#FFF1E3"/>
<path d="M772.448 428.432C772.448 431.896 765.681 433.954 756.595 433.954C747.505 433.954 741.65 432.603 741.65 429.141C741.65 425.673 744.534 422.912 753.623 422.912C762.711 422.912 772.448 424.964 772.448 428.432Z" fill="#D6A118"/>
<path d="M762.87 428.691C762.87 430.925 757.453 432.739 752.466 432.739C747.478 432.739 743.434 430.927 743.434 428.693C743.434 426.457 747.478 424.644 752.466 424.644C757.453 424.644 762.87 426.457 762.87 428.691Z" fill="#FFCB94"/>
<path d="M673.253 562.263C670.007 561.052 670.446 553.993 673.622 545.479C676.803 536.964 680.114 531.952 683.36 533.163C686.609 534.376 688.186 538.043 685.005 546.557C681.829 555.07 676.5 563.476 673.253 562.263Z" fill="#D6A118"/>
<path d="M676.359 553.196C674.264 552.415 674.462 546.707 676.205 542.034C677.949 537.361 681.06 534.205 683.155 534.987C685.251 535.77 685.534 540.193 683.789 544.866C682.043 549.539 678.453 553.978 676.359 553.196Z" fill="#FFCB94"/>
<path d="M667.486 284.604C667.486 284.604 659.76 344.554 667.486 371.692C667.486 371.692 690.554 380.034 714.516 369.83C714.516 369.83 715.663 307.042 712.479 289.672L667.486 284.604Z" fill="#834A94"/>
<path d="M686.184 336.351C666.301 342.471 662.082 341.727 654.309 358.063C653.19 360.414 662.977 375.621 662.977 375.621C662.977 375.621 667.44 364.833 666.865 365.766C664.606 369.427 659.986 379.266 669.317 387.296C681.706 397.958 674.707 440.018 674.707 440.018C674.707 440.018 704.087 449.558 719.541 440.018C719.541 440.018 710.979 392.045 716.114 384.006C722.438 374.104 714.709 365.865 714.709 365.865L717.635 373.845L729.782 359.648C729.782 359.648 726.242 349.823 720.342 345.119C713.378 339.568 699.506 338.1 699.506 338.1C695.543 337.21 690.225 335.108 686.184 336.351Z" fill="#73C497"/>
<path d="M677.824 324.351L680.143 338.71C680.143 338.71 689.822 358.119 700.052 338.244L701.422 320.224C701.422 320.224 682.946 308.232 677.824 324.351Z" fill="#FFEAD3"/>
<path d="M655.422 434.623C655.422 434.623 661.615 452.963 688.935 447.615C688.935 447.615 703.619 451.855 717.518 445.502C731.419 439.15 728.47 427.566 706.988 424C706.988 424 659.429 417.181 655.422 434.623Z" fill="#E03564"/>
<path d="M727.784 432.523C727.784 434.954 725.814 436.924 723.383 436.924H657.336C654.905 436.924 652.935 434.954 652.935 432.523V389.643C652.935 387.213 654.905 385.242 657.336 385.242H723.383C725.814 385.242 727.784 387.213 727.784 389.643V432.523Z" fill="#691E63"/>
<path d="M648.81 432.829C640.811 438.313 636.462 449.932 646.183 455.547C658.348 462.571 747.387 433.36 747.387 433.36V423.403C652.935 428.227 649.353 432.46 648.81 432.829Z" fill="#F15268"/>
<path d="M702.999 444.285C709.751 437.326 721.942 434.96 725.839 445.49C730.717 458.665 689.887 530.71 687.109 538.34L677.886 536.464C692.344 463.363 702.539 444.76 702.999 444.285Z" fill="#F15268"/>
<path d="M711.561 298.303C711.561 310.801 701.429 333.686 688.931 333.686C676.433 333.686 666.301 310.801 666.301 298.303C666.301 285.805 676.433 275.673 688.931 275.673C701.427 275.673 711.561 285.805 711.561 298.303Z" fill="#FFF1E3"/>
<path d="M704.936 301.411C704.188 304.626 704.652 312.436 707.246 313.361C711.941 315.038 713.579 307.977 714.324 304.762C715.071 301.547 713.573 298.192 710.981 297.265C708.388 296.339 705.679 298.198 704.936 301.411Z" fill="#FFF1E3"/>
<path d="M673.205 301.411C673.952 304.626 673.488 312.436 670.894 313.361C666.2 315.038 664.564 307.977 663.816 304.762C663.069 301.547 664.567 298.192 667.16 297.265C669.752 296.339 672.459 298.198 673.205 301.411Z" fill="#FFF1E3"/>
<path d="M706.283 282.197C701.054 313.957 669.992 288.413 666.989 302.923C667.146 302.166 666.215 300.309 666.045 299.566C665.407 296.805 665.014 293.962 665.102 291.124C665.395 281.806 671.998 273.924 680.869 271.359C685.247 270.092 690.05 269.805 694.545 270.602C697.63 271.148 700.83 272.148 703.355 274.054C705.43 275.622 706.838 278.819 706.283 282.197Z" fill="#834A94"/>
<path d="M703.502 281.655C703.502 281.655 707.599 285.389 711.166 300.813C711.166 300.813 717.372 279.459 703.502 281.655Z" fill="#834A94"/>
<path d="M502.037 163.995C506.273 163.995 510.057 166.984 510.057 170.667V270.125C510.057 273.807 506.273 276.794 502.037 276.794C497.805 276.794 494.017 273.807 494.017 270.125V170.667C494.019 166.984 497.805 163.995 502.037 163.995Z" fill="#EEC92A"/>
<path d="M510.058 233.452H494.019V251.273H510.058V233.452Z" fill="#FFDC82"/>
<path d="M510.058 199.593H494.019V208.504H510.058V199.593Z" fill="#FFDC82"/>
<g opacity="0.5">
<path d="M494.172 169.533C495.189 169.098 496.329 168.847 497.538 168.847C501.773 168.847 505.54 171.834 505.54 175.52C505.54 175.52 510.056 272.757 510.056 270.127V170.669C510.056 166.984 506.289 163.997 502.054 163.997C498.268 163.996 494.795 166.391 494.172 169.533Z" fill="#EEC92A"/>
</g>
<path d="M414.131 90.9824L416.651 101.147L426.813 103.666L416.651 106.186L414.131 116.35L411.61 106.186L401.447 103.666L411.61 101.147L414.131 90.9824Z" fill="white"/>
<path d="M793.597 151.312L796.116 161.476L806.279 163.995L796.116 166.517L793.597 176.679L791.075 166.517L780.913 163.995L791.075 161.476L793.597 151.312Z" fill="white"/>
<path d="M272.999 108.772L271.56 114.566L270.123 108.772L264.329 107.335L270.123 105.897L271.56 100.103L272.999 105.897" fill="white"/>
<path d="M100.476 190.781L102.998 200.946L113.16 203.465L102.998 205.985L100.476 216.149L97.9565 205.985L87.7941 203.465L97.9565 200.946L100.476 190.781Z" fill="white"/>
<path d="M708.181 531.394L710.701 541.557L720.863 544.078L710.701 546.598L708.181 556.76L705.66 546.598L695.498 544.078L705.66 541.557L708.181 531.394Z" fill="white"/>
<path d="M728.491 557.254L730.459 565.192L738.397 567.16L730.459 569.13L728.491 577.066L726.523 569.13L718.585 567.16L726.523 565.192L728.491 557.254Z" fill="white"/>
<path d="M658.281 615.137L659.946 621.85L666.662 623.515L659.946 625.18L658.281 631.896L656.616 625.18L649.901 623.515L656.616 621.85L658.281 615.137Z" fill="white"/>
<path d="M485.416 638.094L486.853 643.89L492.649 645.327L486.853 646.764L485.416 652.56L483.979 646.764L478.183 645.327L483.979 643.89L485.416 638.094Z" fill="white"/>
<path d="M513.93 645.224L515.367 651.02L521.163 652.457L515.367 653.894L513.93 659.69L512.493 653.894L506.697 652.457L512.493 651.02L513.93 645.224Z" fill="white"/>
<path d="M304.609 588.217L306.046 594.013L311.842 595.45L306.046 596.887L304.609 602.683L303.17 596.887L297.376 595.45L303.17 594.013L304.609 588.217Z" fill="white"/>
<path d="M280.471 600.671L282.99 610.833L293.155 613.353L282.99 615.874L280.471 626.037L277.951 615.874L267.787 613.353L277.951 610.833L280.471 600.671Z" fill="white"/>
<path d="M412.943 678.012L415.465 688.177L425.627 690.696L415.465 693.216L412.943 703.38L410.424 693.216L400.259 690.696L410.424 688.177L412.943 678.012Z" fill="white"/>
<path d="M66.6855 397.38L68.3007 403.89L74.8093 405.503L68.3007 407.119L66.6855 413.627L65.0722 407.119L58.5616 405.503L65.0722 403.89L66.6855 397.38Z" fill="white"/>
<path d="M80.9425 422.121L83.4639 432.285L93.6264 434.805L83.4639 437.324L80.9425 447.489L78.4229 437.324L68.2585 434.805L78.4229 432.285L80.9425 422.121Z" fill="white"/>
<path d="M616.48 87.4417L617.917 93.2356L623.713 94.6726L617.917 96.1116L616.48 101.906L615.043 96.1116L609.247 94.6726L615.043 93.2356L616.48 87.4417Z" fill="white"/>
</svg>
