<svg width="863" height="863" viewBox="0 0 863 863" fill="none" xmlns="http://www.w3.org/2000/svg">
<path d="M146.95 755.828C135.677 745.927 124.922 735.45 114.73 724.445C110.459 719.831 106.287 715.125 102.22 710.325C38.454 635.124 0 537.784 0 431.462C0 193.174 193.174 0 431.462 0C669.75 0 862.924 193.174 862.924 431.462C862.924 537.785 824.469 635.124 760.703 710.325C756.636 715.125 752.463 719.831 748.193 724.445C738.001 735.45 727.246 745.927 715.973 755.828H146.95Z" fill="#FCDCE1"/>
<path d="M715.973 755.828C640.022 822.499 540.457 862.924 431.462 862.924C322.467 862.924 222.901 822.5 146.951 755.828C210.839 654.415 314.471 588.476 431.462 588.476C548.453 588.476 652.085 654.416 715.973 755.828Z" fill="#AA2B40"/>
<path d="M431.462 516.365C527.705 516.365 605.725 438.345 605.725 342.102C605.725 245.859 527.705 167.839 431.462 167.839C335.219 167.839 257.199 245.859 257.199 342.102C257.199 438.345 335.219 516.365 431.462 516.365Z" fill="#AA2B40"/>
</svg>
